<?xml version="1.0" standalone="no"?>
<!DOCTYPE svg PUBLIC "-//W3C//DTD SVG 1.1//EN" "http://www.w3.org/Graphics/SVG/1.1/DTD/svg11.dtd" >
<svg xmlns="http://www.w3.org/2000/svg" xmlns:xlink="http://www.w3.org/1999/xlink" version="1.1">
<metadata>
Created by FontForge 20170731 at Sun Nov 20 22:50:31 2011
 By Aleksey,,,
Copyright (c) 2011 by Anna Giedrys (http://ancymonic.com), with Reserved Font Names "Signika".
</metadata>
<defs>
<font id="Signika-Semibold" horiz-adv-x="398" >
  <font-face 
    font-family="Signika"
    font-weight="600"
    font-stretch="normal"
    units-per-em="1000"
    panose-1="2 1 0 3 2 6 0 0 0 4"
    ascent="800"
    descent="-200"
    x-height="496"
    cap-height="688"
    bbox="-124 -278 977 922"
    underline-thickness="50"
    underline-position="-250"
    unicode-range="U+000D-20AC"
  />
<missing-glyph horiz-adv-x="186" 
 />
    <glyph glyph-name=".notdef" horiz-adv-x="186" 
 />
    <glyph glyph-name=".null" horiz-adv-x="0" 
 />
    <glyph glyph-name=".null" horiz-adv-x="0" 
 />
    <glyph glyph-name="nonmarkingreturn" horiz-adv-x="333" 
 />
    <glyph glyph-name="CR" unicode="&#xd;" horiz-adv-x="186" 
 />
    <glyph glyph-name="space" unicode=" " horiz-adv-x="220" 
 />
    <glyph glyph-name="exclam" unicode="!" horiz-adv-x="298" 
d="M96 202l-17 452q50 37 139 37l8 -10l-30 -479q-20 -6 -49 -6q-32 0 -51 6zM146 125q39 0 66 -15q10 -18 10 -53t-10 -53q-25 -14 -66 -14q-40 0 -66 14q-9 17 -9 53q0 37 9 53q28 15 66 15z" />
    <glyph glyph-name="quotedbl" unicode="&#x22;" horiz-adv-x="421" 
d="M244 711q0 29 6 54q25 15 61 15t60 -15q7 -30 7 -54q0 -8 -6 -39t-14.5 -81t-13.5 -91q-11 -7 -33 -7t-33 7q-5 42 -13.5 91.5t-14.5 80.5t-6 39zM44 711q0 29 6 54q25 15 61 15t60 -15q7 -30 7 -54q0 -8 -6 -39t-14.5 -81t-13.5 -91q-11 -7 -33 -7t-33 7
q-5 42 -13.5 91.5t-14.5 80.5t-6 39z" />
    <glyph glyph-name="numbersign" unicode="#" horiz-adv-x="683" 
d="M447 515l30 130q22 9 59 9t56 -9l-30 -130h96q8 -23 8 -53t-8 -52h-119l-37 -162h105q19 -53 0 -105h-128l-29 -130q-21 -10 -58.5 -10t-56.5 10l29 130h-122l-29 -130q-21 -10 -58.5 -10t-57.5 10l29 130h-98q-8 22 -8 52t8 53h121l37 162h-107q-19 52 0 105h130l30 130
q22 9 59 9t57 -9l-30 -130h122zM302 410l-37 -162h122l37 162h-122z" />
    <glyph glyph-name="dollar" unicode="$" horiz-adv-x="505" 
d="M27 96q1 26 16 56t34 42q104 -55 179 -55q35 0 57 14t22 39q0 43 -58 63l-97 35q-129 49 -129 154q0 63 41.5 107.5t109.5 56.5v81q16 4 49 4q32 0 49 -4v-80q78 -7 157 -43q0 -28 -13 -56.5t-33 -45.5q-92 40 -156 40q-32 0 -50.5 -13.5t-18.5 -37.5q0 -19 13.5 -29.5
t43.5 -21.5l94 -35q136 -50 136 -167q0 -66 -48.5 -110.5t-128.5 -54.5v-75q-13 -3 -49 -3q-37 0 -49 3v77q-105 14 -171 59z" />
    <glyph glyph-name="percent" unicode="%" horiz-adv-x="950" 
d="M904 199q0 -118 -51 -168q-41 -44 -114 -44q-72 0 -115 44q-50 50 -50 168q0 116 50 167q44 44 115 44t114 -44q51 -51 51 -167zM682 199q0 -61 11.5 -95t45.5 -34t45.5 34t11.5 95q0 39 -3.5 64.5t-17 44.5t-36.5 19t-36.5 -19t-17 -44.5t-3.5 -64.5zM376 485
q0 -118 -51 -168q-41 -44 -114 -44q-71 0 -115 44q-50 50 -50 168q0 116 50 167q44 44 115 44t114 -44q51 -50 51 -167zM154 485q0 -61 11.5 -95t45.5 -34t45.5 34t11.5 95q0 39 -3.5 64.5t-17 44.5t-36.5 19t-36.5 -19t-17 -44.5t-3.5 -64.5zM223 0l377 683q27 6 68 6
t59 -6l-378 -683q-26 -6 -67.5 -6t-58.5 6z" />
    <glyph glyph-name="ampersand" unicode="&#x26;" horiz-adv-x="640" 
d="M323 416h189q61 0 101 17q17 -20 17 -61q0 -68 -85 -68h-27q0 -12 0.5 -33t0.5 -28v-87q0 -58 7 -156q-26 -8 -61 -8q-34 0 -60 7l-9 42q-68 -55 -158 -55q-91 0 -142 55t-51 138q0 68 37.5 118.5t91.5 67.5q-45 16 -72.5 57t-27.5 94q0 80 58 130.5t156 50.5
q107 0 198 -32q2 -59 -34 -100q-81 27 -146 27q-45 0 -69.5 -23.5t-24.5 -62.5q0 -90 111 -90zM390 242q0 39 1 62h-79q-64 0 -97 -31.5t-33 -82.5q0 -49 25 -75t66 -26q68 0 117 43v110z" />
    <glyph glyph-name="quotesingle" unicode="'" horiz-adv-x="227" 
d="M42 711q0 29 6 54q26 15 61 15q36 0 60 -15q7 -30 7 -54q0 -8 -6 -39t-14.5 -81t-13.5 -91q-11 -7 -33 -7t-33 7q-5 42 -13.5 91.5t-14.5 80.5t-6 39z" />
    <glyph glyph-name="parenleft" unicode="(" horiz-adv-x="354" 
d="M198 323q0 -116 35 -233t103 -210q-23 -51 -76 -69q-95 91 -147.5 232t-52.5 280t52.5 280.5t147.5 232.5q53 -18 76 -69q-68 -93 -103 -210t-35 -234z" />
    <glyph glyph-name="parenright" unicode=")" horiz-adv-x="354" 
d="M156 323q0 117 -35 234t-103 210q23 51 76 69q95 -91 147.5 -232.5t52.5 -280.5t-52.5 -280t-147.5 -232q-53 18 -76 69q68 93 103 210t35 233z" />
    <glyph glyph-name="asterisk" unicode="*" horiz-adv-x="513" 
d="M40 534q-2 21 9 54.5t25 48.5l56 -20q37 -14 96 -56q-21 76 -22 109l-2 60q19 8 54 8t54 -8l-2 -60q-2 -29 -22 -108q54 38 96 53l57 21q13 -15 24 -48t10 -54l-59 -17q-33 -10 -109 -12q59 -49 80 -75l37 -47q-10 -17 -38 -38t-49 -26l-33 50q-18 27 -46 99
q-23 -64 -46 -98l-33 -50q-20 4 -48.5 24.5t-39.5 38.5l37 47q21 28 81 75q-72 2 -109 13z" />
    <glyph glyph-name="plus" unicode="+" horiz-adv-x="530" 
d="M208 409v103q24 5 57 5t57 -5v-103q0 -11 -0.5 -30.5t-0.5 -29.5q9 0 28.5 0.5t30.5 0.5h96q5 -32 5 -54q0 -26 -5 -53h-96q-11 0 -30.5 0.5t-28.5 0.5q0 -10 0.5 -29.5t0.5 -28.5v-104q-24 -5 -56 -5q-34 0 -58 5v104q0 9 0.5 28.5t0.5 29.5q-10 0 -29.5 -0.5
t-29.5 -0.5h-96q-5 20 -5 53t5 54h96q10 0 29.5 -0.5t29.5 -0.5q0 10 -0.5 29.5t-0.5 30.5z" />
    <glyph glyph-name="comma" unicode="," horiz-adv-x="283" 
d="M211 116q12 -29 12 -73q0 -70 -42.5 -129.5t-120.5 -84.5q-17 8 -26 26t-7 36q36 14 60.5 40.5t28.5 60.5q-30 4 -42 15q-11 18 -11 53q0 39 11 56q27 16 69 16q46 0 68 -16z" />
    <glyph glyph-name="hyphen" unicode="-" horiz-adv-x="364" 
d="M314 214h-265q-6 22 -6 54t6 54h265q6 -22 6 -54t-6 -54z" />
    <glyph glyph-name="period" unicode="." horiz-adv-x="275" 
d="M57 62q0 34 10 55q30 16 71 16q40 0 70 -16q10 -21 10 -55q0 -35 -10 -56q-26 -16 -70 -16t-71 16q-10 21 -10 56z" />
    <glyph glyph-name="slash" unicode="/" horiz-adv-x="437" 
d="M4 -73l315 838q66 -7 112 -43l-315 -837q-65 5 -112 42z" />
    <glyph glyph-name="zero" unicode="0" horiz-adv-x="530" 
d="M38 324q0 100 14.5 164.5t57.5 111.5q60 62 155 62t155 -62q43 -47 57.5 -111.5t14.5 -164.5t-14.5 -165t-57.5 -112q-61 -61 -155 -61t-155 61q-43 47 -57.5 112t-14.5 165zM173 324q0 -155 28 -200q19 -37 64 -37t64 37q28 45 28 200t-28 200q-19 37 -64 37t-64 -37
q-28 -45 -28 -200z" />
    <glyph glyph-name="one" unicode="1" horiz-adv-x="530" 
d="M43 451q141 88 192 197q28 5 62 5q32 0 61 -5v-470q0 -12 -0.5 -35.5t-0.5 -35.5q8 0 32.5 0.5t31.5 0.5h61q6 -24 6 -54q0 -28 -6 -54h-398q-6 26 -6 54q0 30 6 54h87q6 0 29 -0.5t31 -0.5q0 12 -0.5 35.5t-0.5 35.5v177q0 12 1 31.5t2.5 46t2.5 41.5q-56 -65 -138 -100
q-45 23 -55 77z" />
    <glyph glyph-name="two" unicode="2" horiz-adv-x="530" 
d="M482 112q0 -26 -3 -50q-11 -63 -82 -63h-304q-48 48 -48 81q0 77 120 184l103 92q63 55 63 114q0 38 -22.5 61.5t-59.5 23.5t-63.5 -26t-39.5 -66q-27 1 -54.5 12t-39.5 29q21 68 77 113t133 45q93 0 148 -53.5t55 -141.5q0 -62 -31 -107t-91 -97l-74 -63
q-74 -63 -90 -97q78 9 143 9h160z" />
    <glyph glyph-name="three" unicode="3" horiz-adv-x="530" 
d="M432 513l-90 -94q-18 -18 -33 -28q77 -7 125.5 -55.5t48.5 -133.5q0 -101 -68.5 -158.5t-165.5 -57.5q-127 0 -207 69q10 50 56 86q65 -49 134 -49q52 0 84.5 30.5t32.5 84.5q0 47 -28 74t-72 27q-33 0 -61 -14q-17 7 -31 27t-19 43l108 115q47 47 68 63l-4 6
q-36 -11 -106 -11h-131q-8 23 -8 49q0 36 11 62h355q27 -49 27 -79q0 -29 -26 -56z" />
    <glyph glyph-name="four" unicode="4" horiz-adv-x="530" 
d="M281 0v63q0 11 0.5 32t0.5 31q-10 0 -31.5 -1t-32.5 -1h-160q-29 47 -29 81q0 20 19 64l165 386q28 6 66.5 -2t53.5 -24l-90 -211q-51 -128 -90 -186l3 -4q58 6 124 6h1v25v55q0 48 23.5 75.5t65.5 27.5h32l6 -6v-114q0 -11 -0.5 -32t-0.5 -31q10 0 25.5 0.5t26.5 0.5h39
q4 -21 4 -48q0 -31 -9 -61h-86q0 -10 0.5 -31t0.5 -32v-63q-29 -5 -64 -5q-36 0 -63 5z" />
    <glyph glyph-name="five" unicode="5" horiz-adv-x="530" 
d="M445 648q9 -24 9 -54q0 -56 -56 -56h-168h-22q0 -8 -0.5 -21t-0.5 -17l-4 -58l-3 -21q35 11 70 11q97 0 153 -57t56 -153q0 -114 -70.5 -175t-168.5 -61q-119 0 -194 67q4 20 20 46t34 40q67 -47 130 -47q49 0 81.5 32t32.5 92q0 59 -32 87t-79 28q-52 0 -98 -37
q-17 4 -36 17t-29 28l16 302l8 7h351z" />
    <glyph glyph-name="six" unicode="6" horiz-adv-x="530" 
d="M271 -14q-105 0 -163 70q-11 15 -14.5 19.5t-16 30t-18.5 50t-12 69.5t-6 98q0 158 69.5 248.5t195.5 90.5q92 0 155 -33q-5 -61 -44 -91q-50 21 -101 21q-130 0 -139 -173q60 48 133 48q85 0 133.5 -54t48.5 -164q0 -105 -63 -167.5t-158 -62.5zM276 328q-51 0 -99 -43
v-13q0 -114 34 -156q23 -32 62 -32q44 0 66 33.5t22 90.5q0 120 -85 120z" />
    <glyph glyph-name="seven" unicode="7" horiz-adv-x="530" 
d="M64 648h403q24 -52 24 -80q0 -24 -19 -51l-36 -52q-70 -100 -108 -200t-50 -224l-3 -41q-21 -5 -66 -5q-43 0 -68 5l4 45q21 231 151 411l12 16q30 43 60 71l-4 5q-43 -11 -145 -11h-161q-6 19 -6 45q0 38 12 66z" />
    <glyph glyph-name="eight" unicode="8" horiz-adv-x="530" 
d="M35 164q0 53 31.5 97.5t80.5 72.5q-96 58 -96 154q0 74 61 124t153 50q95 0 153.5 -47.5t58.5 -123.5q0 -89 -95 -142q113 -63 113 -178q-1 -85 -68 -135t-168 -50q-102 0 -163 47.5t-61 130.5zM236 294h-1q-68 -48 -68 -121q0 -43 27 -69t70 -26t70 26.5t27 67.5
q0 78 -103 114zM180 489q0 -65 99 -96l13 -5q58 38 58 98q0 37 -24 59.5t-62 22.5q-36 0 -60 -22.5t-24 -56.5z" />
    <glyph glyph-name="nine" unicode="9" horiz-adv-x="530" 
d="M259 662q105 0 163 -70q11 -15 14.5 -19.5t16 -30t18.5 -50t12 -69.5t6 -98q0 -158 -69.5 -248.5t-195.5 -90.5q-92 0 -155 33q5 61 44 91q50 -21 101 -21q67 0 101 46.5t37 126.5q-58 -48 -132 -48q-85 0 -133.5 54t-48.5 164q0 105 63 167.5t158 62.5zM254 320
q52 0 99 42v14q0 114 -34 156q-25 32 -62 32q-44 0 -66 -33.5t-22 -90.5q0 -120 85 -120z" />
    <glyph glyph-name="colon" unicode=":" horiz-adv-x="282" 
d="M60 62q0 34 10 55q30 16 71 16q40 0 70 -16q10 -21 10 -55q0 -35 -10 -56q-26 -16 -70 -16t-71 16q-10 21 -10 56zM60 381q0 34 10 55q30 16 71 16q40 0 70 -16q10 -21 10 -55q0 -35 -10 -56q-26 -16 -70 -16t-71 16q-10 21 -10 56z" />
    <glyph glyph-name="semicolon" unicode=";" horiz-adv-x="286" 
d="M210 116q12 -29 12 -73q0 -70 -42.5 -129.5t-120.5 -84.5q-17 8 -26 26t-7 36q36 14 60.5 40.5t28.5 60.5q-30 4 -42 15q-11 18 -11 53q0 39 11 56q27 16 69 16q46 0 68 -16zM62 381q0 34 10 55q30 16 71 16q40 0 70 -16q10 -21 10 -55q0 -35 -10 -56q-26 -16 -70 -16
t-71 16q-10 21 -10 56z" />
    <glyph glyph-name="less" unicode="&#x3c;" horiz-adv-x="530" 
d="M52 346l362 199q24 -14 41.5 -42t18.5 -59l-209 -109q-30 -17 -80 -35v-8q46 -17 80 -34l209 -109q-3 -31 -20 -60.5t-40 -42.5l-362 199q-13 57 0 101z" />
    <glyph glyph-name="equal" unicode="=" horiz-adv-x="530" 
d="M476 138h-422q-5 22 -5 54t5 54h422q5 -23 5 -54q0 -32 -5 -54zM476 349h-422q-5 22 -5 54q0 31 5 54h422q5 -23 5 -54t-5 -54z" />
    <glyph glyph-name="greater" unicode="&#x3e;" horiz-adv-x="530" 
d="M478 246l-363 -199q-24 15 -41 43t-18 59l209 109q42 21 80 35v7q-38 14 -80 35l-209 109q2 31 19.5 60t40.5 43l362 -200q13 -55 0 -101z" />
    <glyph glyph-name="question" unicode="?" horiz-adv-x="409" 
d="M6 643q96 54 198 54q93 0 145 -48t52 -128q0 -126 -130 -197l-62 -33l-9 -88q-21 -7 -48 -7q-29 0 -51 7l-7 149l10 13l52 25q107 51 107 117q0 35 -23 56t-65 21q-50 0 -122 -36q-18 14 -32 42t-15 53zM152 123q41 0 65 -15q10 -16 10 -53t-10 -53q-25 -14 -65 -14
q-41 0 -66 14q-10 18 -10 53t10 53q24 15 66 15z" />
    <glyph glyph-name="at" unicode="@" horiz-adv-x="965" 
d="M680 412l-1 -251q0 -60 37 -60q36 0 60 46.5t24 149.5q0 132 -82 210t-219 78q-146 0 -235 -101.5t-89 -260.5q0 -156 77 -237.5t211 -81.5q106 0 200 38q33 -36 33 -90q-115 -48 -242 -48q-186 0 -298 107t-112 312q0 200 128.5 329.5t326.5 129.5q189 0 309 -105
t120 -284q0 -139 -63.5 -213.5t-149.5 -74.5t-130 59q-65 -63 -138 -63q-77 0 -119 61.5t-42 164.5q0 114 55.5 185.5t154.5 71.5q53 0 103 -21t81 -51zM476 100q41 0 81 45v6v217q-25 23 -61 23q-85 0 -85 -159q0 -132 65 -132z" />
    <glyph glyph-name="A" unicode="A" horiz-adv-x="625" 
d="M237 154q-33 0 -49 1l-47 -156q-21 -5 -58 -5q-40 0 -64 9l-5 7l223 673q37 5 78 5q45 0 77 -6l219 -673q-29 -17 -77 -17q-33 0 -50.5 15t-29.5 57l-28 91q-8 0 -26.5 -0.5t-22.5 -0.5h-140zM260 388l-39 -127q7 0 24 0.5t21 0.5h86q4 0 19 -0.5t23 -0.5l-30 102
q-34 114 -54 194h-6q-9 -43 -44 -169z" />
    <glyph glyph-name="B" unicode="B" horiz-adv-x="610" 
d="M90 684q154 4 219 4q109 0 168 -46.5t59 -134.5q0 -46 -25.5 -84t-66.5 -55q52 -16 88 -64.5t36 -109.5q0 -95 -63 -147t-181 -52q-74 0 -234 4l-7 6v673zM314 309h-98v-218q36 1 102 1q63 0 88.5 32t25.5 76q0 43 -27.5 76t-90.5 33zM216 591v-183h87q100 0 100 92
q0 90 -99 90q-60 0 -88 1z" />
    <glyph glyph-name="C" unicode="C" horiz-adv-x="606" 
d="M446 428q2 69 -27 115.5t-97 46.5q-139 0 -139 -252q0 -114 39.5 -174.5t111.5 -60.5q79 0 174 73q21 -14 40 -39t24 -48q-44 -44 -114.5 -73.5t-146.5 -29.5q-73 0 -127 30t-84 81.5t-44 112t-14 129.5q0 178 80 268.5t204 90.5q111 0 180 -59t69 -143q0 -75 -76 -75
q-21 0 -53 7z" />
    <glyph glyph-name="D" unicode="D" horiz-adv-x="658" 
d="M614 342q0 -101 -22.5 -173.5t-86.5 -123.5q-30 -25 -81 -37.5t-98 -12.5q-62 0 -236 4l-7 6v673l7 6q115 4 236 4q47 0 98 -12.5t81 -37.5q64 -51 86.5 -123.5t22.5 -172.5zM476 342q0 48 -5.5 85t-20 75t-46 59t-78.5 21q-69 0 -109 1v-483q40 1 109 1q38 0 66 15
t43.5 37.5t25 56.5t12.5 64.5t3 67.5z" />
    <glyph glyph-name="E" unicode="E" horiz-adv-x="570" 
d="M529 111q0 -32 -3 -49q-11 -64 -86 -64h-281q-36 0 -56.5 21.5t-20.5 58.5v598l7 7h417q5 -25 5 -53q0 -29 -11 -60h-220h-66q0 -13 0.5 -34.5t0.5 -34.5v-103q25 1 65 1h169q8 -23 8 -55t-8 -55h-169h-65v-118q0 -11 -0.5 -30.5t-0.5 -31.5q42 2 70 2h245z" />
    <glyph glyph-name="F" unicode="F" horiz-adv-x="529" 
d="M217 0q-27 -5 -66 -5q-40 0 -68 5v677l7 6h412q6 -23 6 -52q0 -33 -17.5 -47.5t-55.5 -14.5h-135h-84q1 -33 1 -97v-75h31h197q7 -22 7 -55q0 -32 -7 -56h-197h-31v-286z" />
    <glyph glyph-name="G" unicode="G" horiz-adv-x="649" 
d="M345 374l155 1q92 0 92 -85v-262q-118 -42 -257 -42q-147 0 -220 95.5t-73 255.5q0 90 26 160.5t70 113t97 64.5t112 22q136 0 243 -72q-3 -29 -21.5 -56.5t-40.5 -41.5q-80 57 -174 57q-81 0 -127.5 -60t-46.5 -188q0 -242 179 -242q55 0 106 12v89q0 44 2 66h-68
q-33 0 -48.5 13.5t-15.5 43.5q0 29 10 56z" />
    <glyph glyph-name="H" unicode="H" horiz-adv-x="681" 
d="M463 0v223q0 14 0.5 37.5t0.5 36.5q-6 0 -26.5 -0.5t-26.5 -0.5h-141q-6 0 -26.5 0.5t-27.5 0.5q0 -13 0.5 -36.5t0.5 -37.5v-223q-26 -5 -67 -5t-67 5v683q26 5 67 5t67 -5v-201q0 -14 -0.5 -37.5t-0.5 -36.5q7 0 27.5 0.5t26.5 0.5h141q6 0 26.5 -0.5t26.5 -0.5
q0 13 -0.5 36.5t-0.5 37.5v201q26 5 67 5q40 0 68 -5v-683q-29 -5 -67 -5q-41 0 -68 5z" />
    <glyph glyph-name="I" unicode="I" horiz-adv-x="306" 
d="M86 0v683q25 5 67 5q39 0 67 -5v-683q-28 -5 -67 -5q-42 0 -67 5z" />
    <glyph glyph-name="J" unicode="J" horiz-adv-x="460" 
d="M58 133q52 -32 98 -32q56 0 77 33.5t21 106.5v442q26 5 67 5t67 -5v-427q0 -62 -9 -106.5t-32 -82.5t-67.5 -57.5t-110.5 -19.5q-88 0 -159 43q10 57 48 100z" />
    <glyph glyph-name="K" unicode="K" horiz-adv-x="609" 
d="M598 34q-28 -42 -90 -42q-35 0 -52.5 18t-31.5 61l-46 131q-18 52 -41.5 73.5t-63.5 21.5q-10 0 -56 -2v-295q-26 -5 -67 -5t-67 5v683q26 5 67 5t67 -5v-275l40 1q16 0 24 6.5t18 24.5l111 198q15 27 30 38.5t44 11.5q25 0 79 -4l8 -10l-136 -243q-23 -41 -49 -62
q47 -10 72 -38.5t44 -79.5l47 -134q0 -1 3.5 -9.5t4 -10t3.5 -8.5t4 -9l4 -8t4.5 -8.5t5 -7.5t6 -8t6.5 -6.5t8 -7.5z" />
    <glyph glyph-name="L" unicode="L" horiz-adv-x="517" 
d="M308 114h186q0 -30 -4 -51q-11 -65 -87 -65h-243q-36 0 -57 21.5t-21 58.5v604l7 7h50q40 0 59 -20.5t19 -65.5v-493q43 4 91 4z" />
    <glyph glyph-name="M" unicode="M" horiz-adv-x="821" 
d="M64 2l53 680q41 7 90 7q46 0 85 -7l77 -277q31 -124 38 -171h7q7 47 38 171l76 277q42 7 85 7q49 0 91 -7l53 -680q-27 -7 -68 -7q-34 0 -59 4l-19 321q-8 124 -8 217h-7l-117 -435q-33 -5 -69 -5q-35 0 -68 5l-117 435h-7q-2 -123 -8 -217l-19 -321q-25 -4 -60 -4
q-40 0 -67 7z" />
    <glyph glyph-name="N" unicode="N" horiz-adv-x="688" 
d="M598 689l7 -7v-680q-31 -7 -81 -7q-44 0 -79 5l-184 387q-40 88 -60 140l-4 -1q11 -141 11 -272v-254q-28 -5 -61 -5q-38 0 -64 5v681q29 7 79 7q44 0 79 -5l182 -387l65 -148l3 1q-10 145 -10 274v183q0 45 17 64t57 19h43z" />
    <glyph glyph-name="O" unicode="O" horiz-adv-x="662" 
d="M183 342q0 -251 148 -251t148 251q0 250 -148 250t-148 -250zM42 342q0 202 107 294q75 61 182 61q109 0 182 -61q107 -91 107 -294q0 -204 -107 -295q-73 -61 -182 -61q-107 0 -182 61q-107 92 -107 295z" />
    <glyph glyph-name="P" unicode="P" horiz-adv-x="579" 
d="M546 457q0 -110 -65 -170t-172 -60h-92v-227q-26 -5 -67 -5t-67 5v678l7 6q160 4 219 4q108 0 172.5 -59t64.5 -172zM217 584v-255q66 2 84 2q32 0 54 12t33 32t15.5 39.5t4.5 42.5q0 51 -23.5 88.5t-83.5 37.5q-54 0 -84 1z" />
    <glyph glyph-name="Q" unicode="Q" horiz-adv-x="662" 
d="M444 -103l-108 89h-4q-112 0 -183 61q-107 91 -107 295t107 294q69 61 181 61q111 0 182 -61q106 -90 106 -295q0 -184 -84 -269q-27 -30 -61 -44l24 -17q71 -51 126 -51q-1 -45 -26.5 -71t-60.5 -26q-51 0 -92 34zM181 342q0 -250 149 -250t149 250t-149 250t-149 -250z
" />
    <glyph glyph-name="R" unicode="R" horiz-adv-x="608" 
d="M553 477q0 -67 -36 -115.5t-89 -67.5q50 -18 74 -88l37 -101q17 -49 47 -73q-13 -18 -37.5 -29t-51.5 -11q-35 0 -52 18t-33 61l-42 119q-13 35 -33 53.5t-60 18.5h-61v-262q-28 -5 -67 -5q-40 0 -66 5v678l7 6q160 4 228 4q108 0 171.5 -54t63.5 -157zM216 586v-220
q53 3 92 3q107 0 107 108t-107 108q-61 0 -92 1z" />
    <glyph glyph-name="S" unicode="S" horiz-adv-x="556" 
d="M22 60q3 28 18.5 56.5t35.5 45.5q104 -66 202 -66q49 0 76 22.5t28 56.5q0 57 -77 91l-118 50q-140 61 -140 179q0 88 66.5 145t168.5 57q118 0 224 -55q-3 -61 -47 -102q-100 48 -176 48q-47 0 -73 -22t-26 -54q0 -46 71 -76l118 -50q71 -30 110.5 -79t39.5 -113
q0 -93 -65.5 -150.5t-188.5 -57.5q-135 0 -247 74z" />
    <glyph glyph-name="T" unicode="T" horiz-adv-x="501" 
d="M184 0v498q0 13 0.5 36.5t0.5 37.5h-1q-7 0 -30 -0.5t-30 -0.5h-111q-5 25 -5 56t5 56h478q7 -25 7 -52q0 -32 -17 -46t-55 -14h-47q-7 0 -30 0.5t-30 0.5h-1q0 -14 0.5 -37.5t0.5 -36.5v-498q-29 -5 -68 -5q-38 0 -67 5z" />
    <glyph glyph-name="U" unicode="U" horiz-adv-x="671" 
d="M597 683v-437q0 -124 -69 -192t-193 -68q-123 0 -192 68t-69 192v436l6 7h50q40 0 59 -20.5t19 -65.5v-358q0 -152 128 -152q127 0 127 152v438q26 5 66 5q42 0 68 -5z" />
    <glyph glyph-name="V" unicode="V" horiz-adv-x="591" 
d="M308 115l145 568q19 5 59 5q34 0 61 -9l6 -8l-193 -671q-40 -5 -106 -5q-37 0 -59 12.5t-32 49.5l-175 614q45 20 82 20q29 0 46 -15.5t26 -50.5l90 -322q21 -77 41 -177q2 -11 9 -11z" />
    <glyph glyph-name="W" unicode="W" horiz-adv-x="878" 
d="M144 57l-122 618q35 16 72 16q35 0 51 -15.5t23 -57.5l52 -298q22 -126 29 -196q1 -9 2.5 -10.5t7.5 -1.5l95 557q38 7 87 7q51 0 86 -7l87 -545q1 -8 3.5 -10t6.5 -2q10 85 33 210l66 361q25 5 61 5t63 -9l7 -8l-138 -670q-46 -6 -116 -6q-36 0 -56.5 12t-25.5 50
l-41 241q-23 139 -34 239h-8q-13 -98 -38 -239l-53 -297q-48 -6 -113 -6q-37 0 -58 12t-29 50z" />
    <glyph glyph-name="X" unicode="X" horiz-adv-x="602" 
d="M439 683q22 5 56 5q39 0 70 -11l3 -8l-190 -310l211 -338q-43 -30 -88 -30q-51 0 -86 54l-124 199l-146 -244q-23 -5 -57 -5q-38 0 -71 11l-4 8l210 341l-190 307q43 30 88 30q50 0 84 -53l105 -170z" />
    <glyph glyph-name="Y" unicode="Y" horiz-adv-x="523" 
d="M316 485l79 198q23 5 55 5q38 0 66 -9l5 -8l-192 -458v-213q-26 -5 -67 -5t-67 5v217l-192 450q42 24 83 24q27 0 43 -13t28 -43l63 -154q26 -68 43 -134h6q16 58 47 138z" />
    <glyph glyph-name="Z" unicode="Z" horiz-adv-x="571" 
d="M59 135l237 341q36 51 80 101l-3 3q-64 -8 -155 -8h-152q-5 20 -5 45q0 31 9 66h428q19 -65 19 -84q0 -26 -16 -49l-236 -340q-39 -54 -79 -100l3 -3q86 6 136 6h79q70 0 115 21q10 -28 10 -62q0 -35 -24 -53.5t-66 -18.5h-381q-16 67 -16 82q0 27 17 53z" />
    <glyph glyph-name="bracketleft" unicode="[" horiz-adv-x="370" 
d="M334 -149l-227 -8l-8 7v965l8 7l227 -8q4 -13 4 -37q0 -32 -10 -54l-101 -3v-775l101 -3q10 -22 10 -54q0 -24 -4 -37z" />
    <glyph glyph-name="backslash" unicode="\" horiz-adv-x="437" 
d="M321 -115l-315 837q46 36 112 43l315 -838q-45 -35 -112 -42z" />
    <glyph glyph-name="bracketright" unicode="]" horiz-adv-x="370" 
d="M263 -157l-226 8q-5 13 -5 37q0 26 10 54l101 3v775l-101 3q-10 27 -10 54q0 25 5 37l226 8l8 -7v-965z" />
    <glyph glyph-name="asciicircum" unicode="^" horiz-adv-x="530" 
d="M335 648l159 -342q-23 -6 -62 -6.5t-64 6.5l-64 146q-1 1 -35 96h-8q-34 -93 -35 -96l-64 -146q-25 -7 -64 -6.5t-62 6.5l159 342q23 6 70 6t70 -6z" />
    <glyph glyph-name="underscore" unicode="_" horiz-adv-x="548" 
d="M549 -166h-550q-5 20 -5 49t5 50h550q5 -21 5 -50t-5 -49z" />
    <glyph glyph-name="grave" unicode="`" 
d="M142 755l149 -164q-7 -18 -22.5 -32.5t-32.5 -19.5l-178 136q8 25 33 48t51 32z" />
    <glyph glyph-name="a" unicode="a" horiz-adv-x="510" 
d="M473 60q-5 -18 -18 -38t-26 -30q-65 7 -95 57q-65 -63 -148 -63q-71 0 -110.5 45.5t-39.5 104.5q0 83 55.5 126t139.5 43q54 0 84 -3v27q0 76 -74 76q-51 0 -152 -35q-28 31 -34 93q107 45 219 45q75 0 123 -42t48 -127v-205q0 -53 28 -74zM221 85q50 0 94 44v87
q-38 3 -72 3q-38 0 -58 -20t-20 -55q0 -26 15 -42.5t41 -16.5z" />
    <glyph glyph-name="b" unicode="b" horiz-adv-x="531" 
d="M495 255q1 -124 -65 -193.5t-172 -69.5q-104 0 -189 33v704l6 7h49q39 0 55.5 -18.5t16.5 -62.5v-191q56 42 124 42q84 0 129.5 -69t45.5 -182zM284 399q-49 2 -88 -44v-260q32 -8 63 -8q49 0 75.5 43t26.5 123q0 146 -77 146z" />
    <glyph glyph-name="c" unicode="c" horiz-adv-x="473" 
d="M324 290q1 60 -14.5 91t-58.5 31q-80 0 -80 -166q0 -83 24.5 -119.5t74.5 -36.5q53 0 116 46q16 -10 31.5 -32.5t19.5 -42.5q-34 -34 -84 -54.5t-103 -20.5q-104 0 -158.5 71.5t-54.5 188.5q0 133 63.5 198.5t153.5 65.5q85 0 136.5 -46t51.5 -112q0 -32 -17 -49.5
t-48 -17.5q-33 0 -53 5z" />
    <glyph glyph-name="d" unicode="d" horiz-adv-x="534" 
d="M38 242q0 125 57 194.5t139 69.5q48 0 102 -27v250l7 7h50q39 0 55 -18.5t16 -62.5v-512q0 -61 28 -83q-4 -18 -16.5 -38t-26.5 -30q-65 6 -94 59q-58 -65 -141 -65q-86 0 -131 69.5t-45 186.5zM246 93q52 0 90 50v234q-46 29 -81 29q-39 0 -61.5 -42.5t-22.5 -121.5
q0 -75 21 -112t54 -37z" />
    <glyph glyph-name="e" unicode="e" horiz-adv-x="498" 
d="M446 206h-276q3 -56 26 -87t76 -31q60 0 135 34q29 -29 37 -79q-79 -57 -192 -57q-49 0 -87 14.5t-61.5 38.5t-39 58t-21.5 70.5t-6 78.5q0 119 54.5 191.5t161.5 72.5q96 0 150 -59.5t54 -152.5q0 -49 -11 -92zM253 416q-78 0 -84 -118h166v12q0 47 -20 76.5t-62 29.5z
" />
    <glyph glyph-name="f" unicode="f" horiz-adv-x="346" 
d="M94 0v404l-86 -1q-5 25 -5 48q0 21 5 46l80 -1q-6 52 -6 78q0 72 45.5 119t119.5 47q69 0 141 -26q0 -56 -29 -87q-54 14 -82 14q-70 0 -70 -76q0 -34 6 -70l136 2q5 -25 5 -46q0 -23 -5 -48l-127 2v-405q-33 -5 -65 -5q-30 0 -63 5z" />
    <glyph glyph-name="g" unicode="g" horiz-adv-x="532" 
d="M38 247q0 125 57 194t139 69q79 0 133 -49q29 37 83 43q14 -10 27 -30t16 -37q-28 -24 -28 -83v-279q0 -163 -49 -226q-56 -70 -177 -70q-98 0 -181 34q0 24 9.5 52t23.5 44q65 -31 135 -31q112 0 112 119v39q-57 -45 -123 -45q-87 0 -132 69t-45 187zM338 363v7
q-43 40 -82 40q-41 0 -63 -42t-22 -121q0 -76 20.5 -113t53.5 -37q52 0 93 46v220z" />
    <glyph glyph-name="h" unicode="h" horiz-adv-x="543" 
d="M478 334v-218q0 -64 21 -95q-33 -28 -82 -28q-38 0 -54 20t-16 61v233q0 44 -11 62.5t-41 18.5q-53 0 -99 -48v-340q-30 -5 -64 -5q-31 0 -63 5v729l6 7h51q39 0 54.5 -18.5t15.5 -62.5v-211q70 61 146 61q67 0 101.5 -47t34.5 -124z" />
    <glyph glyph-name="i" unicode="i" horiz-adv-x="285" 
d="M218 395v-395q-30 -5 -65 -5q-34 0 -66 5v348q0 55 -45 55h-13q-6 23 -6 45q0 24 6 47q47 5 76 5h17q44 0 70 -28t26 -77zM57 637q0 29 10 52q24 13 65 13q44 0 65 -13q10 -23 10 -52t-10 -52q-23 -14 -65 -14t-65 14q-10 23 -10 52z" />
    <glyph glyph-name="j" unicode="j" horiz-adv-x="292" 
d="M224 395v-371q0 -58 -5.5 -93.5t-23 -67.5t-51.5 -51.5t-89 -31.5q-33 29 -36 80q44 20 60.5 45.5t16.5 77.5v365q0 55 -46 55h-22q-6 23 -6 45q0 24 6 47q52 5 85 5h18q43 0 68 -28t25 -77zM62 637q0 29 10 52q24 13 65 13q44 0 65 -13q10 -23 10 -52t-10 -52
q-23 -14 -65 -14t-65 14q-10 23 -10 52z" />
    <glyph glyph-name="k" unicode="k" horiz-adv-x="513" 
d="M424 193l29 -78q22 -63 48 -82q-35 -40 -88 -40q-30 0 -45 14.5t-28 49.5l-34 92q-13 34 -28.5 46t-43.5 12q-14 0 -38 -2v-205q-30 -5 -64 -5q-33 0 -63 5v729l6 7h51q39 0 54.5 -18.5t15.5 -62.5v-341l25 1q17 0 26 16l69 119q27 50 78 50q24 0 72 -2l6 -8l-93 -160
q-16 -31 -42 -49q61 -20 87 -88z" />
    <glyph glyph-name="l" unicode="l" horiz-adv-x="304" 
d="M237 96h31q11 -28 11 -63q0 -17 -3 -29q-61 -9 -97 -9q-58 0 -85 29.5t-27 92.5v612l7 7h50q39 0 55 -18.5t16 -62.5v-513q0 -46 42 -46z" />
    <glyph glyph-name="m" unicode="m" horiz-adv-x="803" 
d="M338 307q0 81 -52 81q-43 -2 -87 -47v-341q-30 -5 -65 -5t-65 5v495l6 7h49q59 0 72 -62q70 65 139 65q82 0 116 -72q77 72 156 72q64 0 97.5 -43.5t33.5 -113.5v-232q0 -64 21 -95q-35 -28 -82 -28q-38 0 -54 20t-16 61v234q0 80 -53 80q-40 0 -86 -48v-340
q-30 -5 -65 -5t-65 5v307z" />
    <glyph glyph-name="n" unicode="n" horiz-adv-x="546" 
d="M481 334v-218q0 -64 21 -95q-33 -28 -82 -28q-38 0 -54 20t-16 61v233q0 44 -11 62.5t-41 18.5q-52 0 -99 -48v-340q-30 -5 -65 -5t-65 5v495l6 7h50q57 0 70 -60q73 63 150 63q67 0 101.5 -47t34.5 -124z" />
    <glyph glyph-name="o" unicode="o" horiz-adv-x="521" 
d="M484 248q0 -134 -71 -205q-58 -57 -153 -57q-94 0 -152 57q-71 71 -71 205q0 135 71 206q59 56 152 56q94 0 153 -56q71 -71 71 -206zM171 248q0 -163 90 -163q89 0 89 163q0 164 -89 164q-90 0 -90 -164z" />
    <glyph glyph-name="p" unicode="p" horiz-adv-x="534" 
d="M496 254q0 -125 -57 -194t-139 -69q-52 0 -103 27v-153q0 -44 -16 -62.5t-55 -18.5h-51l-6 7v704l6 7h37q53 0 74 -49q57 57 134 57q86 0 131 -69.5t45 -186.5zM288 404q-53 0 -91 -52v-232q46 -29 82 -29q40 0 62 42.5t22 121.5q0 75 -21 112t-54 37z" />
    <glyph glyph-name="q" unicode="q" horiz-adv-x="534" 
d="M337 -135v170q-56 -44 -122 -44q-87 0 -132 69t-45 187q0 125 57 194t139 69q78 0 133 -48q28 36 82 42q13 -10 26 -30t18 -37q-28 -22 -28 -83v-563l-7 -7h-50q-39 0 -55 18.5t-16 62.5zM245 97q52 0 92 45v221v8q-42 39 -81 39q-40 0 -62.5 -42t-22.5 -121
q0 -75 21 -112.5t53 -37.5z" />
    <glyph glyph-name="r" unicode="r" horiz-adv-x="383" 
d="M40 436q4 18 16.5 38t25.5 30q81 -10 111 -90q38 89 127 89q33 0 60 -7q0 -70 -32 -122q-15 5 -46 7q-58 0 -94 -62v-319q-30 -5 -66 -5q-33 0 -65 5v333q0 71 -37 103z" />
    <glyph glyph-name="s" unicode="s" horiz-adv-x="440" 
d="M25 35q1 22 12.5 48.5t26.5 41.5q80 -43 139 -43q34 0 53.5 13t20.5 35q0 36 -54 56l-56 21q-126 47 -126 147q0 71 51.5 113.5t134.5 42.5q41 0 91 -11.5t83 -27.5q1 -24 -10 -51.5t-27 -40.5q-78 35 -137 35q-26 0 -41 -12.5t-15 -32.5q0 -30 50 -49l61 -22
q130 -49 130 -156q0 -71 -54 -113.5t-143 -42.5q-105 0 -190 49z" />
    <glyph glyph-name="t" unicode="t" horiz-adv-x="363" 
d="M337 497q6 -24 6 -46q0 -24 -6 -48l-121 2v-263q0 -46 43 -46h62q10 -30 10 -63q0 -21 -3 -29q-61 -9 -120 -9q-120 0 -120 122v287l-76 -1q-5 20 -5 48q0 26 5 46l76 -1v72q0 44 16 62t55 18h50l7 -6v-147z" />
    <glyph glyph-name="u" unicode="u" horiz-adv-x="548" 
d="M65 162v219q0 62 -21 95q33 28 82 28q38 0 54 -20.5t16 -61.5v-233q0 -43 11 -61.5t41 -18.5q53 0 99 46v341q22 5 65 5q42 0 66 -5v-355q0 -59 28 -83q-5 -18 -17.5 -37t-26.5 -29q-73 7 -101 71q-77 -72 -159 -72q-67 0 -102 47t-35 124z" />
    <glyph glyph-name="v" unicode="v" horiz-adv-x="468" 
d="M243 102l102 394q20 5 48 5q38 0 67 -10l4 -6q-98 -341 -146 -485q-44 -6 -97 -6q-40 0 -60 13.5t-32 53.5l-129 425q40 19 74 19q59 0 73 -59l56 -203q11 -36 30 -133q2 -8 10 -8z" />
    <glyph glyph-name="w" unicode="w" horiz-adv-x="740" 
d="M113 60l-100 429q39 16 74 16q28 0 42.5 -13.5t19.5 -41.5l38 -184q20 -98 29 -161q2 -8 8 -8l69 396q31 6 77 6q48 0 77 -6l69 -388q1 -8 8 -8q18 104 31 169l50 230q21 6 52 6q46 0 68 -11l4 -8l-120 -483q-33 -5 -97 -5q-41 0 -60 12t-25 51l-22 123q-20 115 -32 198
h-6q-7 -52 -33 -197l-34 -182q-35 -5 -101 -5q-38 0 -57.5 13t-28.5 52z" />
    <glyph glyph-name="x" unicode="x" horiz-adv-x="471" 
d="M327 496q21 6 52 6t65 -9l3 -10l-141 -219l160 -243q-44 -29 -90 -29q-42 0 -68 39l-82 125l-93 -156q-19 -6 -53 -6q-42 0 -68 11l-4 8l155 241l-143 222q42 30 89 30q24 0 38 -9.5t28 -31.5l69 -105z" />
    <glyph glyph-name="y" unicode="y" horiz-adv-x="483" 
d="M475 484l-128 -470q-33 -119 -83.5 -176t-151.5 -57q-56 0 -109 19q-2 22 6 50t21 43q44 -14 83 -14q77 0 108 102l4 13q-38 1 -60 14t-31 44l-124 434q41 19 80 19q25 0 40.5 -12.5t24.5 -44.5l57 -211q6 -23 29 -139q1 -7 9 -7l98 405q23 6 53 6q40 0 69 -10z" />
    <glyph glyph-name="z" unicode="z" horiz-adv-x="448" 
d="M49 116l140 189q15 20 80 96l-3 4q-58 -7 -129 -7h-90q-5 22 -5 41q0 28 8 57h342q17 -51 17 -73q0 -23 -14 -41l-141 -191q-44 -57 -77 -93l3 -5q39 5 86 5h41q67 0 100 16q13 -32 13 -55q0 -59 -75 -59h-299q-16 44 -16 67t19 49z" />
    <glyph glyph-name="braceleft" unicode="{" horiz-adv-x="373" 
d="M44 369q36 8 59.5 40t23.5 73v165q0 72 41.5 116t110.5 55l59 9q13 -14 21 -41.5t3 -44.5l-55 -18q-48 -15 -48 -77v-162q0 -50 -23.5 -93t-62.5 -60v-8q39 -18 62.5 -61t23.5 -93v-162q0 -62 48 -77l55 -18q5 -17 -3 -44.5t-21 -42.5l-59 10q-69 11 -110.5 54.5
t-41.5 116.5v165q0 41 -23.5 73t-59.5 40q-7 16 -7 42.5t7 42.5z" />
    <glyph glyph-name="bar" unicode="|" horiz-adv-x="263" 
d="M70 -141v915q24 5 62 5q36 0 60 -5v-915q-23 -6 -60 -6q-39 0 -62 6z" />
    <glyph glyph-name="braceright" unicode="}" horiz-adv-x="373" 
d="M330 369q6 -16 6 -42.5t-6 -42.5q-36 -8 -59.5 -40t-23.5 -73v-165q0 -73 -42 -116.5t-111 -54.5l-59 -10q-13 15 -20.5 42.5t-3.5 44.5l55 18q49 16 49 77v162q0 50 23.5 93t62.5 61v8q-39 17 -62.5 60t-23.5 93v162q0 61 -49 77l-55 18q-4 17 3.5 44.5t20.5 41.5l59 -9
q69 -11 111 -55t42 -116v-165q0 -42 23.5 -73.5t59.5 -39.5z" />
    <glyph glyph-name="asciitilde" unicode="~" horiz-adv-x="610" 
d="M289 371l81 -37q29 -12 48 -12q32 0 57 30l22 24q22 -2 45.5 -15.5t32.5 -34.5l-17 -29q-55 -95 -150 -95q-41 0 -87 20l-81 37q-27 11 -48 11q-33 0 -57 -29l-22 -24q-22 2 -45.5 15.5t-32.5 34.5l17 29q55 95 150 95q41 0 87 -20z" />
    <glyph glyph-name="exclamdown" unicode="&#xa1;" horiz-adv-x="298" 
d="M202 294l17 -453q-50 -36 -139 -36l-8 9l30 480q20 6 49 6q32 0 51 -6zM152 371q-41 0 -65 15q-10 14 -10 53q0 37 10 53q25 14 65 14q41 0 66 -14q10 -18 10 -53q0 -36 -10 -53q-24 -15 -66 -15z" />
    <glyph glyph-name="cent" unicode="&#xa2;" horiz-adv-x="465" 
d="M195 -32v99q-86 17 -124 88.5t-38 168.5q0 112 46 176.5t119 81.5v99q15 5 48 5t49 -5v-97q64 -12 102 -54.5t38 -94.5q0 -73 -70 -73q-25 0 -48 6q2 121 -73 121q-76 0 -76 -165q0 -156 99 -156q52 0 113 46q16 -11 31.5 -32t19.5 -40q-50 -58 -139 -76v-98
q-13 -3 -49 -3t-48 3z" />
    <glyph glyph-name="sterling" unicode="&#xa3;" horiz-adv-x="534" 
d="M407 356q7 -19 7 -47.5t-7 -47.5q-108 0 -162 1q-4 -85 -58 -157l3 -3q90 6 160 6h152q0 -28 -2 -44q-12 -65 -88 -65h-346q-15 68 -15 82q0 29 16 50l15 22q41 60 45 108h-75q-7 19 -7 47t7 48q9 0 27.5 -0.5t28.5 -0.5q-2 5 -12 28t-13.5 33t-7.5 28.5t-4 35.5
q0 71 55 126.5t155 55.5q63 0 117.5 -23t88.5 -55q-4 -25 -23.5 -49t-44.5 -32q-65 51 -129 51q-40 0 -65 -22.5t-25 -61.5q0 -14 3.5 -31t6 -25.5t11.5 -31.5t10 -27q25 0 84 0.5t92 0.5z" />
    <glyph glyph-name="currency" unicode="&#xa4;" horiz-adv-x="583" 
d="M65 334q0 68 32 118l-70 77q21 39 68 68l79 -72q52 27 116 27t116 -27l82 74q42 -26 68 -68l-71 -80q31 -51 31 -117q0 -67 -33 -119l71 -78q-24 -41 -68 -68l-81 73q-50 -26 -115 -26q-64 0 -114 26l-81 -72q-42 24 -68 68l70 77q-32 50 -32 119zM195 334
q0 -52 24.5 -86.5t70.5 -34.5q48 0 72.5 34t24.5 87t-24.5 87t-72.5 34q-46 0 -70.5 -34t-24.5 -87z" />
    <glyph glyph-name="yen" unicode="&#xa5;" horiz-adv-x="533" 
d="M477 160h-148v-160q-27 -5 -64 -5q-39 0 -65 5v160h-147q-6 19 -6 41q0 21 6 43h141l-32 72h-109q-6 19 -6 41q0 21 6 43h72l-105 235q46 23 83 23q25 0 38.5 -10.5t23.5 -35.5l59 -143q16 -40 43 -126h5q23 77 47 128l76 178q22 6 52 6q35 0 64 -8l5 -7l-110 -240h71
q6 -27 6 -43q0 -17 -6 -41h-110l-33 -72h143q6 -27 6 -43q0 -17 -6 -41z" />
    <glyph glyph-name="brokenbar" unicode="&#xa6;" horiz-adv-x="257" 
d="M68 -141v387q24 5 61 5q35 0 60 -5v-387q-24 -6 -60 -6q-38 0 -61 6zM68 387v387q24 5 61 5q35 0 60 -5v-387q-24 -6 -60 -6q-38 0 -61 6z" />
    <glyph glyph-name="section" unicode="&#xa7;" horiz-adv-x="493" 
d="M465 308q0 -87 -102 -148q68 -46 68 -120q0 -66 -54 -109.5t-141 -43.5q-101 0 -172 42q-2 23 10 50.5t28 39.5q77 -35 134 -35q29 0 47 12.5t18 33.5q0 33 -51 53l-58 24q-78 32 -120.5 70.5t-42.5 99.5q0 87 101 148q-66 46 -66 118q0 66 53 110t135 44q86 0 162 -36
q2 -23 -9.5 -50.5t-27.5 -40.5q-71 30 -121 30q-27 0 -44.5 -12.5t-17.5 -33.5q0 -32 51 -52l57 -23q78 -32 120.5 -70.5t42.5 -100.5zM240 374l-23 9q-62 -32 -62 -83q0 -29 25 -49.5t75 -39.5l23 -9q61 32 61 83q0 29 -25.5 49.5t-73.5 39.5z" />
    <glyph glyph-name="dieresis" unicode="&#xa8;" 
d="M231 618q0 25 8 45q23 14 57 14t57 -14q8 -20 8 -45q0 -26 -8 -45q-22 -14 -57 -14t-57 14q-8 20 -8 45zM37 618q0 25 8 45q23 14 57 14t57 -14q8 -20 8 -45q0 -26 -8 -45q-22 -14 -57 -14t-57 14q-8 20 -8 45z" />
    <glyph glyph-name="copyright" unicode="&#xa9;" horiz-adv-x="795" 
d="M36 341q0 153 104 258t257 105t258 -105t105 -258t-105 -257.5t-258 -104.5t-257 104.5t-104 257.5zM138 341q0 -115 73.5 -194t185.5 -79q113 0 187 79t74 194t-74 194.5t-187 79.5q-112 0 -185.5 -79.5t-73.5 -194.5zM454 372q2 37 -12 63t-46 26q-66 0 -66 -119
q0 -115 85 -115q38 0 89 36q13 -8 24.5 -25.5t14.5 -33.5q-24 -25 -65 -41.5t-80 -16.5q-89 0 -131 55.5t-42 140.5q0 98 52 147t123 49q66 0 107.5 -35t41.5 -83q0 -54 -56 -54q-24 0 -39 6z" />
    <glyph glyph-name="ordfeminine" unicode="&#xaa;" horiz-adv-x="441" 
d="M400 343q-2 -16 -14.5 -33t-27.5 -24q-51 3 -78 44q-57 -49 -118 -49q-56 0 -89.5 35.5t-33.5 84.5q0 67 43.5 100.5t113.5 33.5q10 0 34 -1.5t31 -1.5v26q0 27 -15.5 40.5t-38.5 13.5q-48 0 -121 -25q-26 28 -28 73q88 37 176 37q61 0 100.5 -34t39.5 -102v-156
q0 -46 26 -62zM192 363q35 0 69 31v11v56q-40 2 -57 2q-28 0 -43 -14.5t-15 -40.5q0 -19 13 -32t33 -13z" />
    <glyph glyph-name="guillemotleft" unicode="&#xab;" horiz-adv-x="589" 
d="M551 413l-131 -156l135 -159q-7 -21 -29 -41t-44 -26l-200 185q-7 16 -7 39t7 39l198 187q21 -6 42.5 -26.5t28.5 -41.5zM303 413l-131 -156l135 -159q-7 -21 -29 -41t-44 -26l-200 185q-7 16 -7 39t7 39l198 187q21 -6 42.5 -26.5t28.5 -41.5z" />
    <glyph glyph-name="logicalnot" unicode="&#xac;" horiz-adv-x="530" 
d="M49 356h420l7 -7v-229q-21 -5 -56 -5q-32 0 -59 5v74q0 9 0.5 27.5t0.5 27.5q-10 0 -29.5 -0.5t-28.5 -0.5h-255q-5 21 -5 54q0 31 5 54z" />
    <glyph glyph-name="uni00AD" unicode="&#xad;" horiz-adv-x="364" 
d="M314 214h-265q-6 22 -6 54t6 54h265q6 -22 6 -54t-6 -54z" />
    <glyph glyph-name="registered" unicode="&#xae;" horiz-adv-x="597" 
d="M31 475q0 113 77.5 191t189.5 78q113 0 191 -78t78 -191t-78 -190.5t-191 -77.5q-112 0 -189.5 77.5t-77.5 190.5zM110 475q0 -82 54 -138.5t134 -56.5t134.5 56.5t54.5 138.5t-54.5 139t-134.5 57t-134 -57t-54 -139zM404 533q0 -28 -14.5 -45t-35.5 -22q18 -9 33 -38
l12 -24q11 -22 23 -29q-18 -25 -49 -25q-25 0 -41 30l-23 45q-9 18 -28 18h-14v-88q-13 -5 -34.5 -5t-35.5 5v247l3 2q12 0 34 1t39.5 1.5t31.5 0.5q50 0 74.5 -20.5t24.5 -53.5zM267 554v-58q11 1 28 1q36 0 36 29q0 28 -32 28h-32z" />
    <glyph glyph-name="macron" unicode="&#xaf;" 
d="M347 573h-295q-6 20 -6 49q0 27 6 49h295q5 -23 5 -48q0 -29 -5 -50z" />
    <glyph glyph-name="degree" unicode="&#xb0;" horiz-adv-x="339" 
d="M16 519q0 67 43.5 110.5t110.5 43.5q66 0 109.5 -43.5t43.5 -110.5t-43.5 -110.5t-109.5 -43.5q-67 0 -110.5 43.5t-43.5 110.5zM110 519q0 -32 16 -51t44 -19q26 0 42 19t16 51t-16 51t-42 19q-28 0 -44 -19t-16 -51z" />
    <glyph glyph-name="plusminus" unicode="&#xb1;" horiz-adv-x="530" 
d="M209 465v80q24 5 57 5q32 0 55 -5v-80q0 -11 -0.5 -31t-0.5 -30q9 0 28 0.5t29 0.5h88q5 -24 5 -49q0 -26 -5 -50h-88q-10 0 -29 0.5t-28 0.5q0 -9 0.5 -30t0.5 -30v-81q-23 -5 -55 -5q-33 0 -57 5v81q0 9 0.5 30t0.5 30q-10 0 -29 -0.5t-28 -0.5h-88q-5 24 -5 50
q0 25 5 49h88q9 0 28 -0.5t29 -0.5q0 10 -0.5 30t-0.5 31zM465 0h-400q-5 24 -5 51t5 51h400q5 -24 5 -51t-5 -51z" />
    <glyph glyph-name="twosuperior" unicode="&#xb2;" horiz-adv-x="420" 
d="M362 425q0 -21 -2 -47q-9 -51 -64 -51h-214q-36 46 -36 67q0 53 71 110l82 68q35 29 35 61q0 19 -12.5 31.5t-31.5 12.5q-39 0 -56 -51q-21 1 -47 12t-35 25q12 48 52 80t96 32q67 0 108.5 -38.5t41.5 -96.5q0 -45 -20.5 -78t-61.5 -64l-56 -43q-48 -36 -51 -40
q51 10 98 10h103z" />
    <glyph glyph-name="threesuperior" unicode="&#xb3;" horiz-adv-x="420" 
d="M318 659l-52 -46q-7 -7 -27 -19q51 -3 84.5 -38.5t33.5 -88.5q0 -66 -49 -104.5t-116 -38.5q-90 0 -148 46q8 42 44 73q47 -31 87 -31q31 0 49.5 15.5t18.5 43.5q0 25 -15.5 41.5t-43.5 16.5q-15 0 -34 -7q-13 5 -26.5 23t-17.5 35l72 67q18 17 43 32l-3 4q-27 -6 -79 -6
h-73q-6 19 -6 43q0 30 9 48h250q22 -39 22 -61q0 -29 -23 -48z" />
    <glyph glyph-name="acute" unicode="&#xb4;" 
d="M113 591l150 164q26 -8 50.5 -31t33.5 -49l-179 -136q-40 13 -55 52z" />
    <glyph glyph-name="paragraph" unicode="&#xb6;" horiz-adv-x="712" 
d="M281 62v181h-15q-103 0 -167.5 58t-64.5 166q0 112 64.5 166.5t173.5 54.5q34 0 134 -4l7 -7v-590q0 -66 -9.5 -109.5t-38.5 -75.5q-54 -60 -164 -60q-77 0 -139 25q-1 20 7.5 49t21.5 47q59 -21 97 -21q48 0 72 28q21 24 21 92zM476 -131v807l6 7h207q7 -19 7 -56.5
t-7 -56.5h-33q-8 0 -24 0.5t-23 0.5v-702q-26 -6 -66 -6q-43 0 -67 6z" />
    <glyph glyph-name="periodcentered" unicode="&#xb7;" horiz-adv-x="318" 
d="M83 286q0 36 9 55q28 16 67 16q38 0 66 -16q9 -23 9 -55q0 -34 -9 -56q-26 -16 -66 -16q-41 0 -67 16q-9 19 -9 56z" />
    <glyph glyph-name="cedilla" unicode="&#xb8;" 
d="M140 -76q9 39 26 76h73q-11 -19 -16 -34q44 -3 70.5 -27.5t26.5 -60.5q0 -47 -36.5 -76.5t-93.5 -29.5q-50 0 -83 22q2 36 24 60q20 -13 48 -13q40 0 40 33q0 15 -10 24.5t-27 9.5q-10 0 -22 -4q-15 8 -20 20z" />
    <glyph glyph-name="onesuperior" unicode="&#xb9;" horiz-adv-x="420" 
d="M46 624q54 33 84.5 65t51.5 78q24 5 52 5q25 0 51 -5v-343h82q5 -19 5 -48q0 -28 -5 -47h-290q-4 21 -4 47q0 28 4 48h101v120q0 17 4 75q-26 -34 -87 -62q-39 19 -49 67z" />
    <glyph glyph-name="ordmasculine" unicode="&#xba;" horiz-adv-x="435" 
d="M397 489q0 -106 -59 -165q-44 -43 -121 -43q-76 0 -120 43q-59 59 -59 165q0 105 59 164q46 44 120 44q75 0 121 -44q59 -59 59 -164zM148 489q0 -124 70 -124q69 0 69 124t-69 124q-70 0 -70 -124z" />
    <glyph glyph-name="guillemotright" unicode="&#xbb;" horiz-adv-x="589" 
d="M38 99l130 156l-135 159q7 21 29 41t44 26l201 -186q6 -15 6 -38t-6 -39l-198 -187q-22 6 -43 26.5t-28 41.5zM286 99l130 156l-135 159q7 21 29 41t44 26l201 -186q6 -15 6 -38t-6 -39l-198 -187q-22 6 -43 26.5t-28 41.5z" />
    <glyph glyph-name="onequarter" unicode="&#xbc;" horiz-adv-x="1002" 
d="M30 540q54 33 84.5 65t51.5 78q24 5 52 5q25 0 51 -5v-343h82q5 -19 5 -48q0 -28 -5 -47h-290q-4 21 -4 47q0 28 4 48h101v120q0 17 4 75q-26 -34 -87 -62q-39 19 -49 67zM283 0l378 683q26 6 67.5 6t58.5 -6l-377 -683q-27 -6 -68 -6t-59 6zM801 6v29q0 9 0.5 23t0.5 22
q-9 0 -24 -1t-25 -1h-111q-24 39 -24 66q0 15 15 48l115 255q25 3 56.5 -3.5t47.5 -19.5l-63 -138q-35 -82 -64 -118l2 -2q10 1 24 1.5t29 1.5t21 1v15v27q0 37 20 58t55 21h27l4 -4v-54q0 -9 -0.5 -32t-0.5 -31h56q4 -16 4 -35q0 -29 -8 -56h-21q-4 0 -15 0.5t-16 0.5v-74
q-20 -5 -50 -5q-32 0 -55 5z" />
    <glyph glyph-name="onehalf" unicode="&#xbd;" horiz-adv-x="1002" 
d="M270 0l378 683q26 6 67.5 6t58.5 -6l-377 -683q-27 -6 -68 -6t-59 6zM30 540q54 33 84.5 65t51.5 78q24 5 52 5q25 0 51 -5v-343h82q5 -19 5 -48q0 -28 -5 -47h-290q-4 21 -4 47q0 28 4 48h101v120q0 17 4 75q-26 -34 -87 -62q-39 19 -49 67zM957 101q0 -21 -2 -47
q-9 -51 -64 -51h-214q-36 46 -36 67q0 53 71 110l82 68q35 29 35 61q0 19 -12.5 31.5t-31.5 12.5q-39 0 -56 -51q-21 1 -47 12t-35 25q12 48 52 80t96 32q67 0 108.5 -38.5t41.5 -96.5q0 -45 -20.5 -78t-61.5 -64l-56 -43q-48 -36 -51 -40q51 10 98 10h103z" />
    <glyph glyph-name="threequarters" unicode="&#xbe;" horiz-adv-x="1002" 
d="M261 0l378 683q26 6 67.5 6t58.5 -6l-377 -683q-27 -6 -68 -6t-59 6zM320 576l-52 -46q-7 -7 -27 -19q51 -3 84.5 -38.5t33.5 -88.5q0 -66 -49 -104.5t-116 -38.5q-90 0 -148 46q8 42 44 73q47 -31 87 -31q31 0 49.5 15.5t18.5 43.5q0 25 -15.5 41.5t-43.5 16.5
q-15 0 -34 -7q-13 5 -26.5 23t-17.5 35l72 67q18 17 43 32l-3 4q-27 -6 -79 -6h-73q-6 19 -6 43q0 30 9 48h250q22 -39 22 -61q0 -29 -23 -48zM788 6v29q0 9 0.5 23t0.5 22q-9 0 -24 -1t-25 -1h-111q-24 39 -24 66q0 15 15 48l115 255q25 3 56.5 -3.5t47.5 -19.5l-63 -138
q-35 -82 -64 -118l2 -2q10 1 24 1.5t29 1.5t21 1v15v27q0 37 20 58t55 21h27l4 -4v-54q0 -9 -0.5 -32t-0.5 -31h56q4 -16 4 -35q0 -29 -8 -56h-21q-4 0 -15 0.5t-16 0.5v-74q-20 -5 -50 -5q-32 0 -55 5z" />
    <glyph glyph-name="questiondown" unicode="&#xbf;" horiz-adv-x="409" 
d="M408 -149q-96 -54 -199 -54q-92 0 -144 48t-52 128q0 126 130 196l62 34l9 88q21 7 48 7q29 0 51 -7l7 -149l-11 -13l-52 -25q-51 -26 -79 -53.5t-28 -63.5q0 -35 23.5 -56t65.5 -21q54 0 121 36q18 -14 32.5 -42t15.5 -53zM262 371q-43 0 -65 15q-11 16 -11 53
q0 36 11 53q23 14 65 14q40 0 66 -14q9 -17 9 -53q0 -38 -9 -53q-26 -15 -66 -15z" />
    <glyph glyph-name="Agrave" unicode="&#xc0;" horiz-adv-x="625" 
d="M237 154q-33 0 -49 1l-47 -156q-21 -5 -58 -5q-40 0 -64 9l-5 7l223 673q37 5 78 5q45 0 77 -6l219 -673q-29 -17 -77 -17q-33 0 -50.5 15t-29.5 57l-28 91q-8 0 -26.5 -0.5t-22.5 -0.5h-140zM260 388l-39 -127q7 0 24 0.5t21 0.5h86q4 0 19 -0.5t23 -0.5l-30 102
q-34 114 -54 194h-6q-9 -43 -44 -169zM226 921l213 -129q-8 -46 -38 -64l-229 92q2 28 19 57.5t35 43.5z" />
    <glyph glyph-name="Aacute" unicode="&#xc1;" horiz-adv-x="625" 
d="M237 154q-33 0 -49 1l-47 -156q-21 -5 -58 -5q-40 0 -64 9l-5 7l223 673q37 5 78 5q45 0 77 -6l219 -673q-29 -17 -77 -17q-33 0 -50.5 15t-29.5 57l-28 91q-8 0 -26.5 -0.5t-22.5 -0.5h-140zM260 388l-39 -127q7 0 24 0.5t21 0.5h86q4 0 19 -0.5t23 -0.5l-30 102
q-34 114 -54 194h-6q-9 -43 -44 -169zM202 792l213 129q18 -14 35 -43.5t19 -57.5l-229 -92q-14 8 -25 27t-13 37z" />
    <glyph glyph-name="Acircumflex" unicode="&#xc2;" horiz-adv-x="625" 
d="M237 154q-33 0 -49 1l-47 -156q-21 -5 -58 -5q-40 0 -64 9l-5 7l223 673q37 5 78 5q45 0 77 -6l219 -673q-29 -17 -77 -17q-33 0 -50.5 15t-29.5 57l-28 91q-8 0 -26.5 -0.5t-22.5 -0.5h-140zM260 388l-39 -127q7 0 24 0.5t21 0.5h86q4 0 19 -0.5t23 -0.5l-30 102
q-34 114 -54 194h-6q-9 -43 -44 -169zM429 736l-115 74l-118 -84q-16 6 -33 22t-22 34l117 117q57 12 111 0l113 -108q-6 -19 -21.5 -34t-31.5 -21z" />
    <glyph glyph-name="Atilde" unicode="&#xc3;" horiz-adv-x="625" 
d="M237 154q-33 0 -49 1l-47 -156q-21 -5 -58 -5q-40 0 -64 9l-5 7l223 673q37 5 78 5q45 0 77 -6l219 -673q-29 -17 -77 -17q-33 0 -50.5 15t-29.5 57l-28 91q-8 0 -26.5 -0.5t-22.5 -0.5h-140zM260 388l-39 -127q7 0 24 0.5t21 0.5h86q4 0 19 -0.5t23 -0.5l-30 102
q-34 114 -54 194h-6q-9 -43 -44 -169zM321 758l-51 24q-16 9 -32 9q-22 0 -38 -24l-10 -14q-20 1 -39.5 12t-26.5 28l9 19q37 81 114 81q30 0 62 -17l51 -24q18 -9 32 -9q21 0 38 24l10 13q20 0 39.5 -11t26.5 -28l-9 -19q-37 -81 -114 -81q-32 0 -62 17z" />
    <glyph glyph-name="Adieresis" unicode="&#xc4;" horiz-adv-x="625" 
d="M237 154q-33 0 -49 1l-47 -156q-21 -5 -58 -5q-40 0 -64 9l-5 7l223 673q37 5 78 5q45 0 77 -6l219 -673q-29 -17 -77 -17q-33 0 -50.5 15t-29.5 57l-28 91q-8 0 -26.5 -0.5t-22.5 -0.5h-140zM260 388l-39 -127q7 0 24 0.5t21 0.5h86q4 0 19 -0.5t23 -0.5l-30 102
q-34 114 -54 194h-6q-9 -43 -44 -169zM427 856q31 0 54 -14q11 -17 11 -45q0 -31 -11 -47q-23 -14 -54 -14t-57 14q-12 16 -12 47q0 29 12 45q26 14 57 14zM203 856q31 0 57 -14q10 -15 10 -45q0 -32 -10 -47q-26 -14 -57 -14q-33 0 -54 14q-11 16 -11 47q0 28 11 45
q21 14 54 14z" />
    <glyph glyph-name="Aring" unicode="&#xc5;" horiz-adv-x="625" 
d="M237 154q-33 0 -49 1l-47 -156q-21 -5 -58 -5q-40 0 -64 9l-5 7l223 673h3q-57 35 -57 101q0 51 37 86t95 35t94.5 -35t36.5 -86q0 -67 -58 -101l2 -1h2l219 -673q-29 -17 -77 -17q-33 0 -50.5 15t-29.5 57l-28 91q-8 0 -26.5 -0.5t-22.5 -0.5h-140zM260 388l-39 -127
q7 0 24 0.5t21 0.5h86q4 0 19 -0.5t23 -0.5l-30 102q-34 114 -54 194h-6q-9 -43 -44 -169zM265 784q0 -22 14 -37t36 -15q21 0 35 15t14 37q0 23 -13.5 38t-35.5 15t-36 -15t-14 -38z" />
    <glyph glyph-name="AE" unicode="&#xc6;" horiz-adv-x="882" 
d="M262 154q-31 0 -47 1l-70 -155q-19 -5 -63 -5q-46 0 -68 9l-4 6l311 661q27 12 81 12h416q5 -25 5 -53q0 -29 -11 -60h-222h-66q0 -13 0.5 -34.5t0.5 -34.5v-103q25 1 65 1h171q8 -23 8 -55t-8 -55h-171h-65v-117q0 -11 -0.5 -31t-0.5 -32q42 2 70 2h247q0 -32 -3 -49
q-11 -64 -86 -64h-281q-36 0 -56 21t-20 59v77q-15 -1 -44 -1h-89zM321 388l-58 -128q7 0 20 0.5t16 0.5h51q4 0 20.5 -0.5t24.5 -0.5v297h-5q-40 -106 -69 -169z" />
    <glyph glyph-name="Ccedilla" unicode="&#xc7;" horiz-adv-x="606" 
d="M258 -76q8 34 20 64q-64 6 -111 38t-73.5 82.5t-39 107.5t-12.5 123q0 178 80 268.5t204 90.5q111 0 180 -59t69 -143q0 -75 -76 -75q-21 0 -53 7q2 69 -27 115.5t-97 46.5q-139 0 -139 -252q0 -114 39.5 -174.5t111.5 -60.5q79 0 174 73q21 -14 40 -39t24 -48
q-38 -38 -97 -66t-124 -35q-7 -13 -10 -22q44 -3 70.5 -27.5t26.5 -60.5q0 -47 -36.5 -76.5t-93.5 -29.5q-51 0 -82 22q2 37 23 60q20 -13 48 -13q40 0 40 33q0 15 -10 24.5t-27 9.5q-10 0 -22 -4q-15 8 -20 20z" />
    <glyph glyph-name="Egrave" unicode="&#xc8;" horiz-adv-x="570" 
d="M529 111q0 -32 -3 -49q-11 -64 -86 -64h-281q-36 0 -56.5 21.5t-20.5 58.5v598l7 7h417q5 -25 5 -53q0 -29 -11 -60h-220h-66q0 -13 0.5 -34.5t0.5 -34.5v-103q25 1 65 1h169q8 -23 8 -55t-8 -55h-169h-65v-118q0 -11 -0.5 -30.5t-0.5 -31.5q42 2 70 2h245zM210 921
l213 -129q-8 -46 -38 -64l-229 92q2 28 19 57.5t35 43.5z" />
    <glyph glyph-name="Eacute" unicode="&#xc9;" horiz-adv-x="570" 
d="M529 111q0 -32 -3 -49q-11 -64 -86 -64h-281q-36 0 -56.5 21.5t-20.5 58.5v598l7 7h417q5 -25 5 -53q0 -29 -11 -60h-220h-66q0 -13 0.5 -34.5t0.5 -34.5v-103q25 1 65 1h169q8 -23 8 -55t-8 -55h-169h-65v-118q0 -11 -0.5 -30.5t-0.5 -31.5q42 2 70 2h245zM186 792
l213 129q18 -14 35 -43.5t19 -57.5l-229 -92q-14 8 -25 27t-13 37z" />
    <glyph glyph-name="Ecircumflex" unicode="&#xca;" horiz-adv-x="570" 
d="M529 111q0 -32 -3 -49q-11 -64 -86 -64h-281q-36 0 -56.5 21.5t-20.5 58.5v598l7 7h417q5 -25 5 -53q0 -29 -11 -60h-220h-66q0 -13 0.5 -34.5t0.5 -34.5v-103q25 1 65 1h169q8 -23 8 -55t-8 -55h-169h-65v-118q0 -11 -0.5 -30.5t-0.5 -31.5q42 2 70 2h245zM413 736
l-115 74l-118 -84q-16 6 -33 22t-22 34l117 117q57 12 111 0l113 -108q-6 -19 -21.5 -34t-31.5 -21z" />
    <glyph glyph-name="Edieresis" unicode="&#xcb;" horiz-adv-x="570" 
d="M529 111q0 -32 -3 -49q-11 -64 -86 -64h-281q-36 0 -56.5 21.5t-20.5 58.5v598l7 7h417q5 -25 5 -53q0 -29 -11 -60h-220h-66q0 -13 0.5 -34.5t0.5 -34.5v-103q25 1 65 1h169q8 -23 8 -55t-8 -55h-169h-65v-118q0 -11 -0.5 -30.5t-0.5 -31.5q42 2 70 2h245zM411 856
q31 0 54 -14q11 -17 11 -45q0 -31 -11 -47q-23 -14 -54 -14t-57 14q-12 16 -12 47q0 29 12 45q26 14 57 14zM187 856q31 0 57 -14q10 -15 10 -45q0 -32 -10 -47q-26 -14 -57 -14q-33 0 -54 14q-11 16 -11 47q0 28 11 45q21 14 54 14z" />
    <glyph glyph-name="Igrave" unicode="&#xcc;" horiz-adv-x="306" 
d="M86 0v683q25 5 67 5q39 0 67 -5v-683q-28 -5 -67 -5q-42 0 -67 5zM64 922l213 -129q-8 -46 -38 -64l-229 92q2 28 19 57.5t35 43.5z" />
    <glyph glyph-name="Iacute" unicode="&#xcd;" horiz-adv-x="306" 
d="M86 0v683q25 5 67 5q39 0 67 -5v-683q-28 -5 -67 -5q-42 0 -67 5zM40 793l213 129q18 -14 35 -43.5t19 -57.5l-229 -92q-14 8 -25 27t-13 37z" />
    <glyph glyph-name="Icircumflex" unicode="&#xce;" horiz-adv-x="306" 
d="M86 0v683q25 5 67 5q39 0 67 -5v-683q-28 -5 -67 -5q-42 0 -67 5zM267 737l-115 74l-118 -84q-16 6 -33 22t-22 34l117 117q57 12 111 0l113 -108q-6 -19 -21.5 -34t-31.5 -21z" />
    <glyph glyph-name="Idieresis" unicode="&#xcf;" horiz-adv-x="306" 
d="M86 0v683q25 5 67 5q39 0 67 -5v-683q-28 -5 -67 -5q-42 0 -67 5zM265 857q31 0 54 -14q11 -17 11 -45q0 -30 -11 -47q-23 -14 -54 -14t-57 14q-12 16 -12 47q0 29 12 45q26 14 57 14zM41 857q31 0 57 -14q10 -15 10 -45q0 -32 -10 -47q-26 -14 -57 -14q-33 0 -54 14
q-11 17 -11 47q0 28 11 45q21 14 54 14z" />
    <glyph glyph-name="Eth" unicode="&#xd0;" horiz-adv-x="673" 
d="M630 342q0 -101 -22.5 -173.5t-86.5 -123.5q-31 -25 -82 -37.5t-97 -12.5q-63 0 -237 4l-7 6v287h-72q-5 20 -5 53t5 56h72v277l7 6q116 4 237 4q46 0 97 -12.5t82 -37.5q63 -51 86 -124t23 -172zM370 292h-140v-192q40 1 112 1q46 0 77.5 21t46 59t20 75.5t5.5 85.5
t-5.5 85t-20 75t-46 59t-77.5 21q-72 0 -112 1v-182h140q5 -23 5 -55q0 -34 -5 -54z" />
    <glyph glyph-name="Ntilde" unicode="&#xd1;" horiz-adv-x="688" 
d="M598 689l7 -7v-680q-31 -7 -81 -7q-44 0 -79 5l-184 387q-40 88 -60 140l-4 -1q11 -141 11 -272v-254q-28 -5 -61 -5q-38 0 -64 5v681q29 7 79 7q44 0 79 -5l182 -387l65 -148l3 1q-10 145 -10 274v183q0 45 17 64t57 19h43zM353 758l-51 24q-16 9 -32 9q-22 0 -38 -24
l-10 -14q-20 1 -39.5 12t-26.5 28l9 19q37 81 114 81q30 0 62 -17l51 -24q18 -9 32 -9q21 0 38 24l10 13q20 0 39.5 -11t26.5 -28l-9 -19q-37 -81 -114 -81q-32 0 -62 17z" />
    <glyph glyph-name="Ograve" unicode="&#xd2;" horiz-adv-x="662" 
d="M183 342q0 -251 148 -251t148 251q0 250 -148 250t-148 -250zM42 342q0 202 107 294q75 61 182 61q109 0 182 -61q107 -91 107 -294q0 -204 -107 -295q-73 -61 -182 -61q-107 0 -182 61q-107 92 -107 295zM242 921l213 -129q-8 -46 -38 -64l-229 92q2 28 19 57.5t35 43.5
z" />
    <glyph glyph-name="Oacute" unicode="&#xd3;" horiz-adv-x="662" 
d="M183 342q0 -251 148 -251t148 251q0 250 -148 250t-148 -250zM42 342q0 202 107 294q75 61 182 61q109 0 182 -61q107 -91 107 -294q0 -204 -107 -295q-73 -61 -182 -61q-107 0 -182 61q-107 92 -107 295zM218 792l213 129q18 -14 35 -43.5t19 -57.5l-229 -92
q-14 8 -25 27t-13 37z" />
    <glyph glyph-name="Ocircumflex" unicode="&#xd4;" horiz-adv-x="662" 
d="M183 342q0 -251 148 -251t148 251q0 250 -148 250t-148 -250zM42 342q0 202 107 294q75 61 182 61q109 0 182 -61q107 -91 107 -294q0 -204 -107 -295q-73 -61 -182 -61q-107 0 -182 61q-107 92 -107 295zM445 736l-115 74l-118 -84q-16 6 -33 22t-22 34l117 117
q57 12 111 0l113 -108q-6 -19 -21.5 -34t-31.5 -21z" />
    <glyph glyph-name="Otilde" unicode="&#xd5;" horiz-adv-x="662" 
d="M183 342q0 -251 148 -251t148 251q0 250 -148 250t-148 -250zM42 342q0 202 107 294q75 61 182 61q109 0 182 -61q107 -91 107 -294q0 -204 -107 -295q-73 -61 -182 -61q-107 0 -182 61q-107 92 -107 295zM332 765l-51 24q-18 9 -33 9q-20 0 -39 -24l-10 -14
q-20 1 -39.5 12t-25.5 28l9 20q16 36 46 57.5t68 21.5q33 0 63 -16l51 -25q20 -9 33 -9q20 0 39 25l10 13q20 0 39 -11.5t26 -28.5l-9 -18q-17 -38 -46.5 -59.5t-66.5 -21.5q-32 0 -64 17z" />
    <glyph glyph-name="Odieresis" unicode="&#xd6;" horiz-adv-x="662" 
d="M183 342q0 -251 148 -251t148 251q0 250 -148 250t-148 -250zM42 342q0 202 107 294q75 61 182 61q109 0 182 -61q107 -91 107 -294q0 -204 -107 -295q-73 -61 -182 -61q-107 0 -182 61q-107 92 -107 295zM443 856q31 0 54 -14q11 -17 11 -45q0 -31 -11 -47
q-23 -14 -54 -14t-57 14q-12 16 -12 47q0 29 12 45q26 14 57 14zM219 856q31 0 57 -14q10 -15 10 -45q0 -32 -10 -47q-26 -14 -57 -14q-33 0 -54 14q-11 16 -11 47q0 28 11 45q21 14 54 14z" />
    <glyph glyph-name="multiply" unicode="&#xd7;" horiz-adv-x="530" 
d="M228 183l-86 -87q-26 12 -46 32q-21 23 -32 46l86 86l38 36q-7 7 -20.5 20t-17.5 17l-86 86q12 26 32 46q20 21 46 32l86 -86q24 -26 37 -38q4 4 16.5 17t19.5 20l86 87q26 -13 45 -32q21 -21 33 -46l-86 -86l-38 -37l38 -36l86 -86q-12 -26 -32 -46q-19 -21 -46 -32
l-86 87q-8 7 -36 37l-12 -12l-14 -14z" />
    <glyph glyph-name="Oslash" unicode="&#xd8;" horiz-adv-x="665" 
d="M42 342q0 201 108 294q73 61 182 61q69 0 121 -22l42 73q53 -7 85 -46l-47 -84q90 -97 90 -276q0 -200 -108 -295q-73 -61 -183 -61q-65 0 -121 22l-41 -71q-23 3 -47 16t-37 30l46 81q-90 97 -90 278zM178 342q0 -92 21 -152l202 388q-31 18 -69 18q-46 0 -78 -23
t-47.5 -62.5t-22 -80t-6.5 -88.5zM487 342q0 90 -22 150l-202 -388q29 -17 69 -17q46 0 78.5 23t48 62.5t22 80.5t6.5 89z" />
    <glyph glyph-name="Ugrave" unicode="&#xd9;" horiz-adv-x="671" 
d="M597 683v-437q0 -124 -69 -192t-193 -68q-123 0 -192 68t-69 192v436l6 7h50q40 0 59 -20.5t19 -65.5v-358q0 -152 128 -152q127 0 127 152v438q26 5 66 5q42 0 68 -5zM245 921l213 -129q-8 -46 -38 -64l-229 92q2 28 19 57.5t35 43.5z" />
    <glyph glyph-name="Uacute" unicode="&#xda;" horiz-adv-x="671" 
d="M597 683v-437q0 -124 -69 -192t-193 -68q-123 0 -192 68t-69 192v436l6 7h50q40 0 59 -20.5t19 -65.5v-358q0 -152 128 -152q127 0 127 152v438q26 5 66 5q42 0 68 -5zM221 792l213 129q18 -14 35 -43.5t19 -57.5l-229 -92q-14 8 -25 27t-13 37z" />
    <glyph glyph-name="Ucircumflex" unicode="&#xdb;" horiz-adv-x="671" 
d="M597 683v-437q0 -124 -69 -192t-193 -68q-123 0 -192 68t-69 192v436l6 7h50q40 0 59 -20.5t19 -65.5v-358q0 -152 128 -152q127 0 127 152v438q26 5 66 5q42 0 68 -5zM448 736l-115 74l-118 -84q-16 6 -33 22t-22 34l117 117q57 12 111 0l113 -108q-6 -19 -21.5 -34
t-31.5 -21z" />
    <glyph glyph-name="Udieresis" unicode="&#xdc;" horiz-adv-x="671" 
d="M597 683v-437q0 -124 -69 -192t-193 -68q-123 0 -192 68t-69 192v436l6 7h50q40 0 59 -20.5t19 -65.5v-358q0 -152 128 -152q127 0 127 152v438q26 5 66 5q42 0 68 -5zM446 856q31 0 54 -14q11 -17 11 -45q0 -31 -11 -47q-23 -14 -54 -14t-57 14q-12 16 -12 47
q0 29 12 45q26 14 57 14zM222 856q31 0 57 -14q10 -15 10 -45q0 -32 -10 -47q-26 -14 -57 -14q-33 0 -54 14q-11 16 -11 47q0 28 11 45q21 14 54 14z" />
    <glyph glyph-name="Yacute" unicode="&#xdd;" horiz-adv-x="515" 
d="M311 485l79 198q22 5 55 5q37 0 66 -9l5 -8l-192 -458v-213q-26 -5 -67 -5t-67 5v217l-192 450q42 24 83 24q27 0 43 -13t28 -43l63 -154q26 -68 43 -134h6q16 58 47 138zM148 792l213 129q18 -14 35 -43.5t19 -57.5l-229 -92q-14 8 -25 27t-13 37z" />
    <glyph glyph-name="Thorn" unicode="&#xde;" horiz-adv-x="581" 
d="M83 0v683q26 5 67 5t67 -5v-98q15 0 44.5 0.5t45.5 0.5q109 0 174 -55t65 -167q0 -110 -65.5 -167t-173.5 -57h-90v-140q-26 -5 -67 -5t-67 5zM299 482q-5 0 -34 0.5t-48 0.5v-239q33 1 82 1q60 0 84.5 34.5t24.5 84.5q0 49 -24.5 83.5t-84.5 34.5z" />
    <glyph glyph-name="germandbls" unicode="&#xdf;" horiz-adv-x="642" 
d="M100 0v375l-86 -1q-5 25 -5 52q0 25 5 50l86 -1v28q0 95 62.5 145.5t167.5 50.5q106 0 170 -55.5t64 -148.5q0 -35 -16 -77q-36 -9 -54 -27.5t-18 -38.5q0 -22 28 -47l38 -36q72 -69 72 -132q0 -70 -53.5 -110.5t-140.5 -40.5q-72 0 -129 29q1 22 12 49.5t26 41.5
q42 -21 78 -21q31 0 50 14t19 37q0 27 -35 59l-41 37q-63 57 -63 111q0 35 24.5 68t66.5 50q3 15 3 31q0 46 -26 76.5t-75 30.5q-97 0 -97 -110v-489q-33 -5 -67 -5q-33 0 -66 5z" />
    <glyph glyph-name="agrave" unicode="&#xe0;" horiz-adv-x="510" 
d="M473 60q-5 -18 -18 -38t-26 -30q-65 7 -95 57q-65 -63 -148 -63q-71 0 -110.5 45.5t-39.5 104.5q0 83 55.5 126t139.5 43q54 0 84 -3v27q0 76 -74 76q-51 0 -152 -35q-28 31 -34 93q107 45 219 45q75 0 123 -42t48 -127v-205q0 -53 28 -74zM221 85q50 0 94 44v87
q-38 3 -72 3q-38 0 -58 -20t-20 -55q0 -26 15 -42.5t41 -16.5zM192 755l149 -164q-7 -18 -22.5 -32.5t-32.5 -19.5l-178 136q8 25 33 48t51 32z" />
    <glyph glyph-name="aacute" unicode="&#xe1;" horiz-adv-x="510" 
d="M473 60q-5 -18 -18 -38t-26 -30q-65 7 -95 57q-65 -63 -148 -63q-71 0 -110.5 45.5t-39.5 104.5q0 83 55.5 126t139.5 43q54 0 84 -3v27q0 76 -74 76q-51 0 -152 -35q-28 31 -34 93q107 45 219 45q75 0 123 -42t48 -127v-205q0 -53 28 -74zM221 85q50 0 94 44v87
q-38 3 -72 3q-38 0 -58 -20t-20 -55q0 -26 15 -42.5t41 -16.5zM163 591l150 164q26 -8 50.5 -31t33.5 -49l-179 -136q-40 13 -55 52z" />
    <glyph glyph-name="acircumflex" unicode="&#xe2;" horiz-adv-x="510" 
d="M473 60q-5 -18 -18 -38t-26 -30q-65 7 -95 57q-65 -63 -148 -63q-71 0 -110.5 45.5t-39.5 104.5q0 83 55.5 126t139.5 43q54 0 84 -3v27q0 76 -74 76q-51 0 -152 -35q-28 31 -34 93q107 45 219 45q75 0 123 -42t48 -127v-205q0 -53 28 -74zM221 85q50 0 94 44v87
q-38 3 -72 3q-38 0 -58 -20t-20 -55q0 -26 15 -42.5t41 -16.5zM343 549l-93 89l-98 -95q-38 14 -59 51l105 135q48 16 109 0l94 -125q-8 -19 -25 -34.5t-33 -20.5z" />
    <glyph glyph-name="atilde" unicode="&#xe3;" horiz-adv-x="510" 
d="M473 60q-5 -18 -18 -38t-26 -30q-65 7 -95 57q-65 -63 -148 -63q-71 0 -110.5 45.5t-39.5 104.5q0 83 55.5 126t139.5 43q54 0 84 -3v27q0 76 -74 76q-51 0 -152 -35q-28 31 -34 93q107 45 219 45q75 0 123 -42t48 -127v-205q0 -53 28 -74zM221 85q50 0 94 44v87
q-38 3 -72 3q-38 0 -58 -20t-20 -55q0 -26 15 -42.5t41 -16.5zM253 572l-49 24q-16 9 -31 9q-19 0 -37 -24l-10 -14q-19 1 -37 12t-25 28l9 20q15 37 43.5 58.5t64.5 21.5q32 0 60 -16l49 -25q18 -9 31 -9q19 0 37 25l10 13q18 0 36.5 -11.5t25.5 -28.5l-9 -19
q-16 -38 -44.5 -59.5t-63.5 -21.5q-30 0 -60 17z" />
    <glyph glyph-name="adieresis" unicode="&#xe4;" horiz-adv-x="510" 
d="M473 60q-5 -18 -18 -38t-26 -30q-65 7 -95 57q-65 -63 -148 -63q-71 0 -110.5 45.5t-39.5 104.5q0 83 55.5 126t139.5 43q54 0 84 -3v27q0 76 -74 76q-51 0 -152 -35q-28 31 -34 93q107 45 219 45q75 0 123 -42t48 -127v-205q0 -53 28 -74zM221 85q50 0 94 44v87
q-38 3 -72 3q-38 0 -58 -20t-20 -55q0 -26 15 -42.5t41 -16.5zM279 618q0 25 8 45q23 14 57 14t57 -14q8 -20 8 -45q0 -26 -8 -45q-22 -14 -57 -14t-57 14q-8 20 -8 45zM85 618q0 25 8 45q23 14 57 14t57 -14q8 -20 8 -45q0 -26 -8 -45q-22 -14 -57 -14t-57 14q-8 20 -8 45z
" />
    <glyph glyph-name="aring" unicode="&#xe5;" horiz-adv-x="510" 
d="M473 60q-5 -18 -18 -38t-26 -30q-65 7 -95 57q-65 -63 -148 -63q-71 0 -110.5 45.5t-39.5 104.5q0 83 55.5 126t139.5 43q54 0 84 -3v27q0 76 -74 76q-51 0 -152 -35q-28 31 -34 93q107 45 219 45q75 0 123 -42t48 -127v-205q0 -53 28 -74zM221 85q50 0 94 44v87
q-38 3 -72 3q-38 0 -58 -20t-20 -55q0 -26 15 -42.5t41 -16.5zM116 662q0 51 36.5 86t94.5 35t94.5 -35t36.5 -86t-36.5 -86t-94.5 -35t-94.5 35t-36.5 86zM197 662q0 -23 14 -37.5t36 -14.5t36 14.5t14 37.5t-14 38t-36 15t-36 -15t-14 -38z" />
    <glyph glyph-name="ae" unicode="&#xe6;" horiz-adv-x="768" 
d="M719 206h-274q3 -57 25.5 -87.5t75.5 -30.5q61 0 133 35q30 -29 38 -80q-79 -57 -191 -57q-109 0 -165 76q-74 -76 -175 -76q-71 0 -110.5 45.5t-39.5 104.5q0 83 55.5 126t139.5 43q45 0 84 -4v29q0 75 -73 75q-57 0 -153 -35q-28 31 -34 93q107 45 210 45q83 0 127 -53
q57 55 135 55q95 0 149 -59.5t54 -152.5q0 -49 -11 -92zM221 85q58 0 106 54q-11 41 -12 77q-38 3 -72 3q-38 0 -58 -20t-20 -55q0 -26 15 -42.5t41 -16.5zM527 416q-76 0 -82 -118h162v11q0 48 -19 77.5t-61 29.5z" />
    <glyph glyph-name="ccedilla" unicode="&#xe7;" horiz-adv-x="473" 
d="M190 -76q11 41 21 65q-86 13 -130 82.5t-44 174.5q0 133 63.5 198.5t153.5 65.5q85 0 136.5 -46t51.5 -112q0 -32 -17 -49.5t-48 -17.5q-33 0 -53 5q1 60 -14.5 91t-58.5 31q-80 0 -80 -166q0 -83 24.5 -119.5t74.5 -36.5q53 0 116 46q16 -10 31.5 -32.5t19.5 -42.5
q-61 -61 -154 -73q-7 -13 -10 -22q44 -3 70.5 -27.5t26.5 -60.5q0 -47 -36.5 -76.5t-93.5 -29.5q-51 0 -82 22q2 35 23 60q22 -13 48 -13q40 0 40 33q0 15 -10 24.5t-27 9.5q-8 0 -22 -4q-13 7 -20 20z" />
    <glyph glyph-name="egrave" unicode="&#xe8;" horiz-adv-x="498" 
d="M446 206h-276q3 -56 26 -87t76 -31q60 0 135 34q29 -29 37 -79q-79 -57 -192 -57q-49 0 -87 14.5t-61.5 38.5t-39 58t-21.5 70.5t-6 78.5q0 119 54.5 191.5t161.5 72.5q96 0 150 -59.5t54 -152.5q0 -49 -11 -92zM253 416q-78 0 -84 -118h166v12q0 47 -20 76.5t-62 29.5z
M199 755l149 -164q-7 -18 -22.5 -32.5t-32.5 -19.5l-178 136q8 25 33 48t51 32z" />
    <glyph glyph-name="eacute" unicode="&#xe9;" horiz-adv-x="498" 
d="M446 206h-276q3 -56 26 -87t76 -31q60 0 135 34q29 -29 37 -79q-79 -57 -192 -57q-49 0 -87 14.5t-61.5 38.5t-39 58t-21.5 70.5t-6 78.5q0 119 54.5 191.5t161.5 72.5q96 0 150 -59.5t54 -152.5q0 -49 -11 -92zM253 416q-78 0 -84 -118h166v12q0 47 -20 76.5t-62 29.5z
M170 591l150 164q26 -8 50.5 -31t33.5 -49l-179 -136q-40 13 -55 52z" />
    <glyph glyph-name="ecircumflex" unicode="&#xea;" horiz-adv-x="498" 
d="M446 206h-276q3 -56 26 -87t76 -31q60 0 135 34q29 -29 37 -79q-79 -57 -192 -57q-49 0 -87 14.5t-61.5 38.5t-39 58t-21.5 70.5t-6 78.5q0 119 54.5 191.5t161.5 72.5q96 0 150 -59.5t54 -152.5q0 -49 -11 -92zM253 416q-78 0 -84 -118h166v12q0 47 -20 76.5t-62 29.5z
M351 549l-93 89l-98 -95q-38 14 -59 51l105 135q48 16 109 0l94 -125q-8 -19 -25 -34.5t-33 -20.5z" />
    <glyph glyph-name="edieresis" unicode="&#xeb;" horiz-adv-x="498" 
d="M446 206h-276q3 -56 26 -87t76 -31q60 0 135 34q29 -29 37 -79q-79 -57 -192 -57q-49 0 -87 14.5t-61.5 38.5t-39 58t-21.5 70.5t-6 78.5q0 119 54.5 191.5t161.5 72.5q96 0 150 -59.5t54 -152.5q0 -49 -11 -92zM253 416q-78 0 -84 -118h166v12q0 47 -20 76.5t-62 29.5z
M287 618q0 25 8 45q23 14 57 14t57 -14q8 -20 8 -45q0 -26 -8 -45q-22 -14 -57 -14t-57 14q-8 20 -8 45zM93 618q0 25 8 45q23 14 57 14t57 -14q8 -20 8 -45q0 -26 -8 -45q-22 -14 -57 -14t-57 14q-8 20 -8 45z" />
    <glyph glyph-name="igrave" unicode="&#xec;" horiz-adv-x="279" 
d="M213 395v-395q-30 -5 -65 -5q-34 0 -66 5v348q0 55 -45 55h-13q-6 23 -6 45q0 24 6 47q47 5 76 5h17q44 0 70 -28t26 -77zM71 755l149 -164q-7 -18 -22.5 -32.5t-32.5 -19.5l-178 136q8 25 33 48t51 32z" />
    <glyph glyph-name="iacute" unicode="&#xed;" horiz-adv-x="279" 
d="M213 395v-395q-30 -5 -65 -5q-34 0 -66 5v348q0 55 -45 55h-13q-6 23 -6 45q0 24 6 47q47 5 76 5h17q44 0 70 -28t26 -77zM42 591l150 164q26 -8 50.5 -31t33.5 -49l-179 -136q-40 13 -55 52z" />
    <glyph glyph-name="icircumflex" unicode="&#xee;" horiz-adv-x="279" 
d="M213 395v-395q-30 -5 -65 -5q-34 0 -66 5v348q0 55 -45 55h-13q-6 23 -6 45q0 24 6 47q47 5 76 5h17q44 0 70 -28t26 -77zM223 549l-93 89l-98 -95q-38 14 -59 51l105 135q48 16 109 0l94 -125q-8 -19 -25 -34.5t-33 -20.5z" />
    <glyph glyph-name="idieresis" unicode="&#xef;" horiz-adv-x="279" 
d="M213 395v-395q-30 -5 -65 -5q-34 0 -66 5v348q0 55 -45 55h-13q-6 23 -6 45q0 24 6 47q47 5 76 5h17q44 0 70 -28t26 -77zM159 618q0 25 8 45q23 14 57 14t57 -14q8 -20 8 -45q0 -26 -8 -45q-22 -14 -57 -14t-57 14q-8 20 -8 45zM-35 618q0 25 8 45q23 14 57 14t57 -14
q8 -20 8 -45q0 -26 -8 -45q-22 -14 -57 -14t-57 14q-8 20 -8 45z" />
    <glyph glyph-name="eth" unicode="&#xf0;" horiz-adv-x="519" 
d="M97 571l79 54q-33 24 -71 45q3 23 18 47t33 33q59 -24 112 -62l85 59q36 -24 45 -63l-68 -47q152 -147 152 -390q0 -134 -71 -204q-58 -57 -153 -57q-94 0 -152 57q-71 70 -71 199q0 124 72 192q58 53 142 53q26 0 55 -12q-18 48 -68 98l-95 -65q-36 27 -44 63zM348 247
q0 73 -12 123q-38 23 -76 23q-91 0 -91 -153q0 -157 90 -157q89 0 89 164z" />
    <glyph glyph-name="ntilde" unicode="&#xf1;" horiz-adv-x="546" 
d="M481 334v-218q0 -64 21 -95q-33 -28 -82 -28q-38 0 -54 20t-16 61v233q0 44 -11 62.5t-41 18.5q-52 0 -99 -48v-340q-30 -5 -65 -5t-65 5v495l6 7h50q57 0 70 -60q73 63 150 63q67 0 101.5 -47t34.5 -124zM286 572l-49 24q-16 9 -31 9q-19 0 -37 -24l-10 -14
q-19 1 -37 12t-25 28l9 20q15 37 43.5 58.5t64.5 21.5q32 0 60 -16l49 -25q18 -9 31 -9q19 0 37 25l10 13q18 0 36.5 -11.5t25.5 -28.5l-9 -19q-16 -38 -44.5 -59.5t-63.5 -21.5q-30 0 -60 17z" />
    <glyph glyph-name="ograve" unicode="&#xf2;" horiz-adv-x="521" 
d="M484 248q0 -134 -71 -205q-58 -57 -153 -57q-94 0 -152 57q-71 71 -71 205q0 135 71 206q59 56 152 56q94 0 153 -56q71 -71 71 -206zM171 248q0 -163 90 -163q89 0 89 163q0 164 -89 164q-90 0 -90 -164zM205 755l149 -164q-7 -18 -22.5 -32.5t-32.5 -19.5l-178 136
q8 25 33 48t51 32z" />
    <glyph glyph-name="oacute" unicode="&#xf3;" horiz-adv-x="521" 
d="M484 248q0 -134 -71 -205q-58 -57 -153 -57q-94 0 -152 57q-71 71 -71 205q0 135 71 206q59 56 152 56q94 0 153 -56q71 -71 71 -206zM171 248q0 -163 90 -163q89 0 89 163q0 164 -89 164q-90 0 -90 -164zM176 591l150 164q26 -8 50.5 -31t33.5 -49l-179 -136
q-40 13 -55 52z" />
    <glyph glyph-name="ocircumflex" unicode="&#xf4;" horiz-adv-x="521" 
d="M484 248q0 -134 -71 -205q-58 -57 -153 -57q-94 0 -152 57q-71 71 -71 205q0 135 71 206q59 56 152 56q94 0 153 -56q71 -71 71 -206zM171 248q0 -163 90 -163q89 0 89 163q0 164 -89 164q-90 0 -90 -164zM356 549l-93 89l-98 -95q-38 14 -59 51l105 135q48 16 109 0
l94 -125q-8 -19 -25 -34.5t-33 -20.5z" />
    <glyph glyph-name="otilde" unicode="&#xf5;" horiz-adv-x="521" 
d="M484 248q0 -134 -71 -205q-58 -57 -153 -57q-94 0 -152 57q-71 71 -71 205q0 135 71 206q59 56 152 56q94 0 153 -56q71 -71 71 -206zM171 248q0 -163 90 -163q89 0 89 163q0 164 -89 164q-90 0 -90 -164zM266 572l-49 24q-16 9 -31 9q-19 0 -37 -24l-10 -14
q-19 1 -37 12t-25 28l9 20q15 37 43.5 58.5t64.5 21.5q32 0 60 -16l49 -25q18 -9 31 -9q19 0 37 25l10 13q18 0 36.5 -11.5t25.5 -28.5l-9 -19q-16 -38 -44.5 -59.5t-63.5 -21.5q-30 0 -60 17z" />
    <glyph glyph-name="odieresis" unicode="&#xf6;" horiz-adv-x="521" 
d="M484 248q0 -134 -71 -205q-58 -57 -153 -57q-94 0 -152 57q-71 71 -71 205q0 135 71 206q59 56 152 56q94 0 153 -56q71 -71 71 -206zM171 248q0 -163 90 -163q89 0 89 163q0 164 -89 164q-90 0 -90 -164zM292 618q0 25 8 45q23 14 57 14t57 -14q8 -20 8 -45
q0 -26 -8 -45q-22 -14 -57 -14t-57 14q-8 20 -8 45zM98 618q0 25 8 45q23 14 57 14t57 -14q8 -20 8 -45q0 -26 -8 -45q-22 -14 -57 -14t-57 14q-8 20 -8 45z" />
    <glyph glyph-name="divide" unicode="&#xf7;" horiz-adv-x="530" 
d="M195 475q0 27 10 47q24 14 60 14q38 0 59 -14q10 -17 10 -47q0 -29 -10 -48q-20 -13 -59 -13q-40 0 -60 13q-10 22 -10 48zM195 117q0 28 10 48q23 13 60 13q39 0 59 -13q10 -17 10 -48q0 -30 -10 -47q-20 -13 -59 -13q-40 0 -60 13q-10 20 -10 47zM476 243h-422
q-5 21 -5 53t5 55h422q5 -23 5 -55t-5 -53z" />
    <glyph glyph-name="oslash" unicode="&#xf8;" horiz-adv-x="524" 
d="M485 249q0 -136 -70 -206q-58 -57 -153 -57q-49 0 -88 15l-35 -59q-44 9 -69 38l37 65q-69 69 -69 204t71 205q57 56 153 56q47 0 86 -15l35 61q43 -10 69 -38l-37 -65q70 -70 70 -204zM363 249q0 50 -10 89l-131 -250q18 -8 40 -8q101 0 101 169zM160 249q0 -55 10 -89
l131 249q-18 8 -39 8q-102 0 -102 -168z" />
    <glyph glyph-name="ugrave" unicode="&#xf9;" horiz-adv-x="548" 
d="M65 162v219q0 62 -21 95q33 28 82 28q38 0 54 -20.5t16 -61.5v-233q0 -43 11 -61.5t41 -18.5q53 0 99 46v341q22 5 65 5q42 0 66 -5v-355q0 -59 28 -83q-5 -18 -17.5 -37t-26.5 -29q-73 7 -101 71q-77 -72 -159 -72q-67 0 -102 47t-35 124zM211 755l149 -164
q-7 -18 -22.5 -32.5t-32.5 -19.5l-178 136q8 25 33 48t51 32z" />
    <glyph glyph-name="uacute" unicode="&#xfa;" horiz-adv-x="548" 
d="M65 162v219q0 62 -21 95q33 28 82 28q38 0 54 -20.5t16 -61.5v-233q0 -43 11 -61.5t41 -18.5q53 0 99 46v341q22 5 65 5q42 0 66 -5v-355q0 -59 28 -83q-5 -18 -17.5 -37t-26.5 -29q-73 7 -101 71q-77 -72 -159 -72q-67 0 -102 47t-35 124zM182 591l150 164
q26 -8 50.5 -31t33.5 -49l-179 -136q-40 13 -55 52z" />
    <glyph glyph-name="ucircumflex" unicode="&#xfb;" horiz-adv-x="548" 
d="M65 162v219q0 62 -21 95q33 28 82 28q38 0 54 -20.5t16 -61.5v-233q0 -43 11 -61.5t41 -18.5q53 0 99 46v341q22 5 65 5q42 0 66 -5v-355q0 -59 28 -83q-5 -18 -17.5 -37t-26.5 -29q-73 7 -101 71q-77 -72 -159 -72q-67 0 -102 47t-35 124zM362 549l-93 89l-98 -95
q-38 14 -59 51l105 135q48 16 109 0l94 -125q-8 -19 -25 -34.5t-33 -20.5z" />
    <glyph glyph-name="udieresis" unicode="&#xfc;" horiz-adv-x="548" 
d="M65 162v219q0 62 -21 95q33 28 82 28q38 0 54 -20.5t16 -61.5v-233q0 -43 11 -61.5t41 -18.5q53 0 99 46v341q22 5 65 5q42 0 66 -5v-355q0 -59 28 -83q-5 -18 -17.5 -37t-26.5 -29q-73 7 -101 71q-77 -72 -159 -72q-67 0 -102 47t-35 124zM298 618q0 25 8 45
q23 14 57 14t57 -14q8 -20 8 -45q0 -26 -8 -45q-22 -14 -57 -14t-57 14q-8 20 -8 45zM104 618q0 25 8 45q23 14 57 14t57 -14q8 -20 8 -45q0 -26 -8 -45q-22 -14 -57 -14t-57 14q-8 20 -8 45z" />
    <glyph glyph-name="yacute" unicode="&#xfd;" horiz-adv-x="483" 
d="M475 484l-128 -470q-33 -119 -83.5 -176t-151.5 -57q-56 0 -109 19q-2 22 6 50t21 43q44 -14 83 -14q77 0 108 102l4 13q-38 1 -60 14t-31 44l-124 434q41 19 80 19q25 0 40.5 -12.5t24.5 -44.5l57 -211q6 -23 29 -139q1 -7 9 -7l98 405q23 6 53 6q40 0 69 -10zM156 591
l150 164q26 -8 50.5 -31t33.5 -49l-179 -136q-40 13 -55 52z" />
    <glyph glyph-name="thorn" unicode="&#xfe;" horiz-adv-x="531" 
d="M493 261q0 -132 -57 -201t-135 -69q-54 0 -106 26v-152q0 -44 -16 -62.5t-55 -18.5h-49l-6 7v938l6 7h49q39 0 55 -18.5t16 -62.5v-195q55 46 122 46q82 0 129 -68.5t47 -176.5zM285 400q-52 0 -90 -51v-230q46 -29 81 -29q39 0 61.5 42t22.5 121q0 75 -21 111t-54 36z
" />
    <glyph glyph-name="ydieresis" unicode="&#xff;" horiz-adv-x="483" 
d="M475 484l-128 -470q-33 -119 -83.5 -176t-151.5 -57q-56 0 -109 19q-2 22 6 50t21 43q44 -14 83 -14q77 0 108 102l4 13q-38 1 -60 14t-31 44l-124 434q41 19 80 19q25 0 40.5 -12.5t24.5 -44.5l57 -211q6 -23 29 -139q1 -7 9 -7l98 405q23 6 53 6q40 0 69 -10zM272 618
q0 25 8 45q23 14 57 14t57 -14q8 -20 8 -45q0 -26 -8 -45q-22 -14 -57 -14t-57 14q-8 20 -8 45zM78 618q0 25 8 45q23 14 57 14t57 -14q8 -20 8 -45q0 -26 -8 -45q-22 -14 -57 -14t-57 14q-8 20 -8 45z" />
    <glyph glyph-name="Aogonek" unicode="&#x104;" horiz-adv-x="625" 
d="M14 10l223 673q37 5 78 5q45 0 77 -6l219 -673l-4 -3q-83 -47 -83 -100q0 -19 12.5 -29.5t32.5 -10.5q28 0 54 15q26 -23 29 -61q-48 -38 -113 -38q-50 0 -81.5 26.5t-31.5 70.5q0 64 67 121q-25 14 -39 64l-28 91q-8 0 -26.5 -0.5t-22.5 -0.5h-140q-33 0 -49 1l-47 -156
q-21 -5 -58 -5q-40 0 -64 9zM260 388l-39 -127q7 0 24 0.5t21 0.5h86q4 0 19 -0.5t23 -0.5l-30 102q-34 114 -54 194h-6q-9 -43 -44 -169z" />
    <glyph glyph-name="aogonek" unicode="&#x105;" horiz-adv-x="539" 
d="M473 -119q27 -25 28 -61q-46 -38 -112 -38q-50 0 -82 26.5t-32 70.5q0 76 88 140q-19 16 -28 31q-68 -64 -149 -64q-71 0 -110.5 45.5t-39.5 104.5q0 83 55.5 126t139.5 43q54 0 84 -3v27q0 76 -74 76q-51 0 -152 -35q-28 31 -34 93q107 45 219 45q75 0 123 -42t48 -127
v-205q0 -49 31 -73q-11 -36 -51 -73q-51 -46 -51 -82q0 -19 12.5 -29.5t32.5 -10.5q28 0 54 15zM221 85q50 0 94 44v87q-38 3 -72 3q-38 0 -58 -20t-20 -55q0 -26 15 -42.5t41 -16.5z" />
    <glyph glyph-name="Cacute" unicode="&#x106;" horiz-adv-x="606" 
d="M446 428q2 69 -27 115.5t-97 46.5q-139 0 -139 -252q0 -114 39.5 -174.5t111.5 -60.5q79 0 174 73q21 -14 40 -39t24 -48q-44 -44 -114.5 -73.5t-146.5 -29.5q-73 0 -127 30t-84 81.5t-44 112t-14 129.5q0 178 80 268.5t204 90.5q111 0 180 -59t69 -143q0 -75 -76 -75
q-21 0 -53 7zM211 793l213 129q18 -14 35 -43.5t19 -57.5l-229 -92q-14 8 -25 27t-13 37z" />
    <glyph glyph-name="cacute" unicode="&#x107;" horiz-adv-x="473" 
d="M324 290q1 60 -14.5 91t-58.5 31q-80 0 -80 -166q0 -83 24.5 -119.5t74.5 -36.5q53 0 116 46q16 -10 31.5 -32.5t19.5 -42.5q-34 -34 -84 -54.5t-103 -20.5q-104 0 -158.5 71.5t-54.5 188.5q0 133 63.5 198.5t153.5 65.5q85 0 136.5 -46t51.5 -112q0 -32 -17 -49.5
t-48 -17.5q-33 0 -53 5zM167 591l150 164q26 -8 50.5 -31t33.5 -49l-179 -136q-40 13 -55 52z" />
    <glyph glyph-name="Ccaron" unicode="&#x10c;" horiz-adv-x="606" 
d="M446 428q2 69 -27 115.5t-97 46.5q-139 0 -139 -252q0 -114 39.5 -174.5t111.5 -60.5q79 0 174 73q21 -14 40 -39t24 -48q-44 -44 -114.5 -73.5t-146.5 -29.5q-73 0 -127 30t-84 81.5t-44 112t-14 129.5q0 178 80 268.5t204 90.5q111 0 180 -59t69 -143q0 -75 -76 -75
q-21 0 -53 7zM205 907l115 -74l118 84q16 -6 33.5 -21.5t22.5 -32.5l-118 -118q-50 -13 -112 -1l-113 108q6 19 22.5 34.5t31.5 20.5z" />
    <glyph glyph-name="ccaron" unicode="&#x10d;" horiz-adv-x="473" 
d="M324 290q1 60 -14.5 91t-58.5 31q-80 0 -80 -166q0 -83 24.5 -119.5t74.5 -36.5q53 0 116 46q16 -10 31.5 -32.5t19.5 -42.5q-34 -34 -84 -54.5t-103 -20.5q-104 0 -158.5 71.5t-54.5 188.5q0 133 63.5 198.5t153.5 65.5q85 0 136.5 -46t51.5 -112q0 -32 -17 -49.5
t-48 -17.5q-33 0 -53 5zM157 740l92 -89l100 96q40 -15 59 -52l-107 -136q-23 -7 -54 -6.5t-54 6.5l-95 126q8 19 25.5 34t33.5 21z" />
    <glyph glyph-name="Dcaron" unicode="&#x10e;" horiz-adv-x="658" 
d="M614 342q0 -101 -22.5 -173.5t-86.5 -123.5q-30 -25 -81 -37.5t-98 -12.5q-62 0 -236 4l-7 6v673l7 6q115 4 236 4q47 0 98 -12.5t81 -37.5q64 -51 86.5 -123.5t22.5 -172.5zM476 342q0 48 -5.5 85t-20 75t-46 59t-78.5 21q-69 0 -109 1v-483q40 1 109 1q38 0 66 15
t43.5 37.5t25 56.5t12.5 64.5t3 67.5zM196 906l115 -74l118 84q16 -6 33.5 -21.5t22.5 -32.5l-118 -118q-50 -13 -112 -1l-113 108q6 19 22.5 34.5t31.5 20.5z" />
    <glyph glyph-name="dcaron" unicode="&#x10f;" horiz-adv-x="632" 
d="M38 242q0 125 57 194.5t139 69.5q48 0 102 -27v250l7 7h50q39 0 55 -18.5t16 -62.5v-512q0 -61 28 -83q-4 -18 -16.5 -38t-26.5 -30q-65 6 -94 59q-58 -65 -141 -65q-86 0 -131 69.5t-45 186.5zM246 93q52 0 90 50v234q-46 29 -81 29q-39 0 -61.5 -42.5t-22.5 -121.5
q0 -75 21 -112t54 -37zM524 562l12 225q24 7 59 2t54 -19l-50 -213q-17 -6 -39.5 -4.5t-35.5 9.5z" />
    <glyph glyph-name="Eogonek" unicode="&#x118;" horiz-adv-x="572" 
d="M529 111q0 -32 -3 -49q-8 -43 -44 -57q-4 -2 -5 -2q-39 -16 -60.5 -43.5t-21.5 -53.5q0 -40 44 -40q28 0 54 15q26 -23 29 -61q-48 -38 -113 -38q-50 0 -81.5 26.5t-31.5 71.5q0 67 65 118h-202q-36 0 -56.5 21.5t-20.5 58.5v598l7 7h417q5 -25 5 -53q0 -29 -11 -60h-220
h-66q0 -13 0.5 -34.5t0.5 -34.5v-103q25 1 65 1h169q8 -23 8 -55t-8 -55h-169h-65v-118q0 -11 -0.5 -30.5t-0.5 -31.5q42 2 70 2h245z" />
    <glyph glyph-name="eogonek" unicode="&#x119;" horiz-adv-x="498" 
d="M446 206h-276q3 -56 26 -87t76 -31q60 0 135 34q29 -29 37 -79q-27 -20 -65 -34q-66 -50 -66 -103q0 -40 44 -40q29 0 55 15q27 -25 28 -61q-48 -38 -112 -38q-50 0 -82 26.5t-32 72.5q0 54 55 106q-6 -1 -17 -1q-49 0 -87 14.5t-61.5 38.5t-39 58t-21.5 70.5t-6 78.5
q0 119 54.5 191.5t161.5 72.5q96 0 150 -59.5t54 -152.5q0 -49 -11 -92zM253 416q-78 0 -84 -118h166v12q0 47 -20 76.5t-62 29.5z" />
    <glyph glyph-name="Ecaron" unicode="&#x11a;" horiz-adv-x="570" 
d="M529 111q0 -32 -3 -49q-11 -64 -86 -64h-281q-36 0 -56.5 21.5t-20.5 58.5v598l7 7h417q5 -25 5 -53q0 -29 -11 -60h-220h-66q0 -13 0.5 -34.5t0.5 -34.5v-103q25 1 65 1h169q8 -23 8 -55t-8 -55h-169h-65v-118q0 -11 -0.5 -30.5t-0.5 -31.5q42 2 70 2h245zM180 906
l115 -74l118 84q16 -6 33.5 -21.5t22.5 -32.5l-118 -118q-50 -13 -112 -1l-113 108q6 19 22.5 34.5t31.5 20.5z" />
    <glyph glyph-name="ecaron" unicode="&#x11b;" horiz-adv-x="498" 
d="M446 206h-276q3 -56 26 -87t76 -31q60 0 135 34q29 -29 37 -79q-79 -57 -192 -57q-49 0 -87 14.5t-61.5 38.5t-39 58t-21.5 70.5t-6 78.5q0 119 54.5 191.5t161.5 72.5q96 0 150 -59.5t54 -152.5q0 -49 -11 -92zM253 416q-78 0 -84 -118h166v12q0 47 -20 76.5t-62 29.5z
M160 740l92 -89l100 96q40 -15 59 -52l-107 -136q-23 -7 -54 -6.5t-54 6.5l-95 126q8 19 25.5 34t33.5 21z" />
    <glyph glyph-name="Hbar" unicode="&#x126;" horiz-adv-x="689" 
d="M222 0q-28 -5 -68 -5q-41 0 -67 5v491h-67q-7 24 -7 49q0 26 7 51h67v92q26 5 67 5q40 0 68 -5v-92h245v92q27 5 67 5q42 0 68 -5v-92h68q6 -27 6 -49q0 -26 -6 -51h-68v-491q-28 -5 -66 -5q-42 0 -69 5v221q0 14 0.5 37.5t0.5 36.5q-6 0 -26.5 -0.5t-26.5 -0.5h-141
q-6 0 -26.5 0.5t-26.5 0.5q0 -13 0.5 -36.5t0.5 -37.5v-221zM415 406q6 0 26.5 -0.5t26.5 -0.5q0 13 -0.5 37t-0.5 38v11h-245v-11q0 -14 -0.5 -38t-0.5 -37q6 0 26.5 0.5t26.5 0.5h141z" />
    <glyph glyph-name="hbar" unicode="&#x127;" horiz-adv-x="546" 
d="M199 655v-9l152 2q5 -21 5 -42q0 -24 -5 -43l-152 1v-120q70 61 146 61q67 0 101.5 -47t34.5 -124v-218q0 -64 21 -95q-33 -28 -82 -28q-38 0 -54 20t-16 61v233q0 44 -11 62.5t-41 18.5q-52 0 -99 -48v-340q-30 -5 -64 -5q-31 0 -63 5v564l-73 -1q-6 23 -6 43q0 16 6 42
l73 -2v83l6 7h51q39 0 54.5 -18.5t15.5 -62.5z" />
    <glyph glyph-name="Itilde" unicode="&#x128;" horiz-adv-x="306" 
d="M86 0v683q25 5 67 5q39 0 67 -5v-683q-28 -5 -67 -5q-42 0 -67 5zM159 759l-51 24q-16 9 -32 9q-21 0 -38 -24l-10 -14q-20 1 -39.5 12t-26.5 28l9 19q37 81 114 81q30 0 62 -17l51 -24q18 -9 32 -9q21 0 38 24l10 13q20 0 39.5 -11t26.5 -28l-9 -19q-37 -81 -114 -81
q-32 0 -62 17z" />
    <glyph glyph-name="itilde" unicode="&#x129;" horiz-adv-x="279" 
d="M213 395v-395q-30 -5 -65 -5q-34 0 -66 5v348q0 55 -45 55h-13q-6 23 -6 45q0 24 6 47q47 5 76 5h17q44 0 70 -28t26 -77zM133 572l-49 24q-16 9 -31 9q-19 0 -37 -24l-10 -14q-19 1 -37 12t-25 28l9 20q15 37 43.5 58.5t64.5 21.5q32 0 60 -16l49 -25q18 -9 31 -9
q19 0 37 25l10 13q18 0 36.5 -11.5t25.5 -28.5l-9 -19q-16 -38 -44.5 -59.5t-63.5 -21.5q-30 0 -60 17z" />
    <glyph glyph-name="dotlessi" unicode="&#x131;" horiz-adv-x="285" 
d="M218 395v-395q-30 -5 -65 -5q-34 0 -66 5v348q0 55 -45 55h-13q-6 23 -6 45q0 24 6 47q47 5 76 5h17q44 0 70 -28t26 -77z" />
    <glyph glyph-name="IJ" unicode="&#x132;" horiz-adv-x="761" 
d="M86 0v683q25 5 67 5q39 0 67 -5v-683q-28 -5 -67 -5q-42 0 -67 5zM359 133q52 -32 98 -32q56 0 77 33.5t21 106.5v442q26 5 67 5t67 -5v-427q0 -62 -9 -106.5t-32 -82.5t-67.5 -57.5t-110.5 -19.5q-88 0 -159 43q10 57 48 100z" />
    <glyph glyph-name="ij" unicode="&#x133;" horiz-adv-x="570" 
d="M218 395v-395q-30 -5 -65 -5q-34 0 -66 5v348q0 55 -45 55h-13q-6 23 -6 45q0 24 6 47q47 5 76 5h17q44 0 70 -28t26 -77zM57 637q0 29 10 52q24 13 65 13q44 0 65 -13q10 -23 10 -52t-10 -52q-23 -14 -65 -14t-65 14q-10 23 -10 52zM503 395v-371q0 -58 -5.5 -93.5
t-23 -67.5t-51.5 -51.5t-89 -31.5q-33 29 -36 80q44 20 60.5 45.5t16.5 77.5v365q0 55 -46 55h-22q-6 23 -6 45q0 24 6 47q52 5 85 5h18q43 0 68 -28t25 -77zM340 637q0 29 10 52q24 13 65 13q44 0 65 -13q10 -23 10 -52t-10 -52q-23 -14 -65 -14t-65 14q-10 23 -10 52z" />
    <glyph glyph-name="Jcircumflex" unicode="&#x134;" horiz-adv-x="460" 
d="M58 133q52 -32 98 -32q56 0 77 33.5t21 106.5v442q26 5 67 5t67 -5v-427q0 -62 -9 -106.5t-32 -82.5t-67.5 -57.5t-110.5 -19.5q-88 0 -159 43q10 57 48 100zM435 736l-115 74l-118 -84q-16 6 -33 22t-22 34l117 117q57 12 111 0l113 -108q-6 -19 -21.5 -34t-31.5 -21z
" />
    <glyph glyph-name="jcircumflex" unicode="&#x135;" horiz-adv-x="284" 
d="M217 395v-371q0 -58 -5.5 -93.5t-23 -67.5t-51.5 -51.5t-89 -31.5q-33 29 -36 80q44 20 60.5 45.5t16.5 77.5v365q0 55 -46 55h-22q-6 23 -6 45q0 24 6 47q52 5 85 5h18q43 0 68 -28t25 -77zM225 549l-93 89l-98 -95q-38 14 -59 51l105 135q48 16 109 0l94 -125
q-8 -19 -25 -34.5t-33 -20.5z" />
    <glyph glyph-name="Kcommaaccent" unicode="&#x136;" horiz-adv-x="609" 
d="M598 34q-28 -42 -90 -42q-35 0 -52.5 18t-31.5 61l-46 131q-18 52 -41.5 73.5t-63.5 21.5q-10 0 -56 -2v-295q-26 -5 -67 -5t-67 5v683q26 5 67 5t67 -5v-275l40 1q16 0 24 6.5t18 24.5l111 198q15 27 30 38.5t44 11.5q25 0 79 -4l8 -10l-136 -243q-23 -41 -49 -62
q47 -10 72 -38.5t44 -79.5l47 -134q0 -1 3.5 -9.5t4 -10t3.5 -8.5t4 -9l4 -8t4.5 -8.5t5 -7.5t6 -8t6.5 -6.5t8 -7.5zM385 -59q11 -24 11 -56q0 -55 -37 -98t-102 -65q-32 11 -41 54q63 39 63 98q0 30 -13 53q23 16 57 20t62 -6z" />
    <glyph glyph-name="kcommaaccent" unicode="&#x137;" horiz-adv-x="513" 
d="M424 193l29 -78q22 -63 48 -82q-35 -40 -88 -40q-30 0 -45 14.5t-28 49.5l-34 92q-13 34 -28.5 46t-43.5 12q-14 0 -38 -2v-205q-30 -5 -64 -5q-33 0 -63 5v729l6 7h51q39 0 54.5 -18.5t15.5 -62.5v-341l25 1q17 0 26 16l69 119q27 50 78 50q24 0 72 -2l6 -8l-93 -160
q-16 -31 -42 -49q61 -20 87 -88zM335 -59q11 -24 11 -56q0 -55 -37 -98t-102 -65q-32 11 -41 54q63 39 63 98q0 30 -13 53q23 16 57 20t62 -6z" />
    <glyph glyph-name="kgreenlandic" unicode="&#x138;" horiz-adv-x="513" 
d="M424 193l29 -78q22 -63 48 -82q-35 -40 -88 -40q-30 0 -45 14.5t-28 49.5l-34 92q-13 34 -28.5 46t-43.5 12q-14 0 -38 -2v-205q-30 -5 -64 -5q-33 0 -63 5v495l6 7h51q39 0 54.5 -18t15.5 -62v-108l25 1q17 0 26 16l69 119q27 50 78 50q24 0 72 -2l6 -8l-93 -160
q-16 -31 -42 -49q61 -20 87 -88z" />
    <glyph glyph-name="Ldot" unicode="&#x13f;" horiz-adv-x="517" 
d="M308 114h186q0 -30 -4 -51q-11 -65 -87 -65h-243q-36 0 -57 21.5t-21 58.5v604l7 7h50q40 0 59 -20.5t19 -65.5v-493q43 4 91 4zM337 358q0 34 8 53q28 15 61 15t59 -15q9 -21 9 -53t-9 -53q-21 -16 -59 -16q-37 0 -61 16q-8 19 -8 53z" />
    <glyph glyph-name="ldot" unicode="&#x140;" horiz-adv-x="377" 
d="M237 96h31q11 -28 11 -63q0 -17 -3 -29q-61 -9 -97 -9q-58 0 -85 29.5t-27 92.5v612l7 7h50q39 0 55 -18.5t16 -62.5v-513q0 -46 42 -46zM251 358q0 34 8 53q28 15 61 15t59 -15q9 -21 9 -53t-9 -53q-21 -16 -59 -16q-37 0 -61 16q-8 19 -8 53z" />
    <glyph glyph-name="Lslash" unicode="&#x141;" horiz-adv-x="526" 
d="M225 603v-182l165 58l10 -5q13 -39 2 -99l-177 -60v-205q43 4 92 4h185q0 -35 -3 -51q-11 -65 -88 -65h-242q-36 0 -57 21.5t-21 58.5v196l-69 -25l-10 5q-14 44 -2 100l81 27v301l7 7h49q40 0 59 -20.5t19 -65.5z" />
    <glyph glyph-name="lslash" unicode="&#x142;" horiz-adv-x="349" 
d="M269 96h32q10 -26 10 -63q0 -21 -2 -29q-61 -9 -97 -9q-58 0 -85 29.5t-27 92.5v166l-68 -34l-10 5q-13 42 -2 95l80 40v340l7 7h49q39 0 55 -18.5t16 -62.5v-202l77 39l9 -5q13 -40 2 -95l-88 -45v-205q0 -46 42 -46z" />
    <glyph glyph-name="Nacute" unicode="&#x143;" horiz-adv-x="688" 
d="M598 689l7 -7v-680q-31 -7 -81 -7q-44 0 -79 5l-184 387q-40 88 -60 140l-4 -1q11 -141 11 -272v-254q-28 -5 -61 -5q-38 0 -64 5v681q29 7 79 7q44 0 79 -5l182 -387l65 -148l3 1q-10 145 -10 274v183q0 45 17 64t57 19h43zM234 792l213 129q18 -14 35 -43.5t19 -57.5
l-229 -92q-14 8 -25 27t-13 37z" />
    <glyph glyph-name="nacute" unicode="&#x144;" horiz-adv-x="546" 
d="M481 334v-218q0 -64 21 -95q-33 -28 -82 -28q-38 0 -54 20t-16 61v233q0 44 -11 62.5t-41 18.5q-52 0 -99 -48v-340q-30 -5 -65 -5t-65 5v495l6 7h50q57 0 70 -60q73 63 150 63q67 0 101.5 -47t34.5 -124zM195 591l150 164q26 -8 50.5 -31t33.5 -49l-179 -136
q-40 13 -55 52z" />
    <glyph glyph-name="Ncaron" unicode="&#x147;" horiz-adv-x="688" 
d="M598 689l7 -7v-680q-31 -7 -81 -7q-44 0 -79 5l-184 387q-40 88 -60 140l-4 -1q11 -141 11 -272v-254q-28 -5 -61 -5q-38 0 -64 5v681q29 7 79 7q44 0 79 -5l182 -387l65 -148l3 1q-10 145 -10 274v183q0 45 17 64t57 19h43zM228 906l115 -74l118 84q16 -6 33.5 -21.5
t22.5 -32.5l-118 -118q-50 -13 -112 -1l-113 108q6 19 22.5 34.5t31.5 20.5z" />
    <glyph glyph-name="ncaron" unicode="&#x148;" horiz-adv-x="546" 
d="M481 334v-218q0 -64 21 -95q-33 -28 -82 -28q-38 0 -54 20t-16 61v233q0 44 -11 62.5t-41 18.5q-52 0 -99 -48v-340q-30 -5 -65 -5t-65 5v495l6 7h50q57 0 70 -60q73 63 150 63q67 0 101.5 -47t34.5 -124zM185 740l92 -89l100 96q40 -15 59 -52l-107 -136
q-23 -7 -54 -6.5t-54 6.5l-95 126q8 19 25.5 34t33.5 21z" />
    <glyph glyph-name="OE" unicode="&#x152;" horiz-adv-x="907" 
d="M873 112q0 -33 -3 -49q-10 -64 -85 -64h-315q-89 -13 -137 -13q-108 0 -183 61q-108 92 -108 295q0 202 108 294q75 61 183 61q40 0 138 -14h380q4 -20 4 -53q0 -32 -11 -60h-220h-66q0 -13 0.5 -34.5t0.5 -34.5v-103q25 1 65 1h170q7 -24 7 -55t-7 -55h-170h-65v-117
q0 -11 -0.5 -30.5t-0.5 -31.5q42 2 70 2h245zM332 91q43 0 97 14v472q-52 15 -96 15q-152 0 -152 -250q0 -251 151 -251z" />
    <glyph glyph-name="oe" unicode="&#x153;" horiz-adv-x="814" 
d="M765 206h-274q3 -57 25.5 -87.5t75.5 -30.5q60 0 133 34q29 -29 37 -79q-78 -57 -190 -57q-107 0 -156 68q-53 -68 -156 -68q-94 0 -152 57q-71 71 -71 205q0 135 71 206q59 56 152 56q104 0 159 -71q52 71 154 71q95 0 149 -59.5t54 -152.5q0 -49 -11 -92zM171 248
q0 -163 90 -163q89 0 89 163q0 164 -89 164q-90 0 -90 -164zM573 416q-77 0 -83 -118h163v11q0 107 -80 107z" />
    <glyph glyph-name="Racute" unicode="&#x154;" horiz-adv-x="608" 
d="M553 477q0 -67 -36 -115.5t-89 -67.5q50 -18 74 -88l37 -101q17 -49 47 -73q-13 -18 -37.5 -29t-51.5 -11q-35 0 -52 18t-33 61l-42 119q-13 35 -33 53.5t-60 18.5h-61v-262q-28 -5 -67 -5q-40 0 -66 5v678l7 6q160 4 228 4q108 0 171.5 -54t63.5 -157zM216 586v-220
q53 3 92 3q107 0 107 108t-107 108q-61 0 -92 1zM188 792l213 129q18 -14 35 -43.5t19 -57.5l-229 -92q-14 8 -25 27t-13 37z" />
    <glyph glyph-name="racute" unicode="&#x155;" horiz-adv-x="383" 
d="M40 436q4 18 16.5 38t25.5 30q81 -10 111 -90q38 89 127 89q33 0 60 -7q0 -70 -32 -122q-15 5 -46 7q-58 0 -94 -62v-319q-30 -5 -66 -5q-33 0 -65 5v333q0 71 -37 103zM121 591l150 164q26 -8 50.5 -31t33.5 -49l-179 -136q-40 13 -55 52z" />
    <glyph glyph-name="Rcommaaccent" unicode="&#x156;" horiz-adv-x="608" 
d="M553 477q0 -67 -36 -115.5t-89 -67.5q50 -18 74 -88l37 -101q17 -49 47 -73q-13 -18 -37.5 -29t-51.5 -11q-35 0 -52 18t-33 61l-42 119q-13 35 -33 53.5t-60 18.5h-61v-262q-28 -5 -67 -5q-40 0 -66 5v678l7 6q160 4 228 4q108 0 171.5 -54t63.5 -157zM216 586v-220
q53 3 92 3q107 0 107 108t-107 108q-61 0 -92 1zM383 -59q11 -24 11 -56q0 -55 -37 -98t-102 -65q-32 11 -41 54q63 39 63 98q0 30 -13 53q23 16 57 20t62 -6z" />
    <glyph glyph-name="rcommaaccent" unicode="&#x157;" horiz-adv-x="383" 
d="M40 436q4 18 16.5 38t25.5 30q81 -10 111 -90q38 89 127 89q33 0 60 -7q0 -70 -32 -122q-15 5 -46 7q-58 0 -94 -62v-319q-30 -5 -66 -5q-33 0 -65 5v333q0 71 -37 103zM206 -59q11 -24 11 -56q0 -55 -37 -98t-102 -65q-32 11 -41 54q63 39 63 98q0 30 -13 53
q23 16 57 20t62 -6z" />
    <glyph glyph-name="Rcaron" unicode="&#x158;" horiz-adv-x="608" 
d="M553 477q0 -67 -36 -115.5t-89 -67.5q50 -18 74 -88l37 -101q17 -49 47 -73q-13 -18 -37.5 -29t-51.5 -11q-35 0 -52 18t-33 61l-42 119q-13 35 -33 53.5t-60 18.5h-61v-262q-28 -5 -67 -5q-40 0 -66 5v678l7 6q160 4 228 4q108 0 171.5 -54t63.5 -157zM216 586v-220
q53 3 92 3q107 0 107 108t-107 108q-61 0 -92 1zM182 906l115 -74l118 84q16 -6 33.5 -21.5t22.5 -32.5l-118 -118q-50 -13 -112 -1l-113 108q6 19 22.5 34.5t31.5 20.5z" />
    <glyph glyph-name="rcaron" unicode="&#x159;" horiz-adv-x="383" 
d="M40 436q4 18 16.5 38t25.5 30q81 -10 111 -90q38 89 127 89q33 0 60 -7q0 -70 -32 -122q-15 5 -46 7q-58 0 -94 -62v-319q-30 -5 -66 -5q-33 0 -65 5v333q0 71 -37 103zM110 740l92 -89l100 96q40 -15 59 -52l-107 -136q-23 -7 -54 -6.5t-54 6.5l-95 126q8 19 25.5 34
t33.5 21z" />
    <glyph glyph-name="Sacute" unicode="&#x15a;" horiz-adv-x="556" 
d="M22 60q3 28 18.5 56.5t35.5 45.5q104 -66 202 -66q49 0 76 22.5t28 56.5q0 57 -77 91l-118 50q-140 61 -140 179q0 88 66.5 145t168.5 57q118 0 224 -55q-3 -61 -47 -102q-100 48 -176 48q-47 0 -73 -22t-26 -54q0 -46 71 -76l118 -50q71 -30 110.5 -79t39.5 -113
q0 -93 -65.5 -150.5t-188.5 -57.5q-135 0 -247 74zM173 792l213 129q18 -14 35 -43.5t19 -57.5l-229 -92q-14 8 -25 27t-13 37z" />
    <glyph glyph-name="sacute" unicode="&#x15b;" horiz-adv-x="440" 
d="M25 35q1 22 12.5 48.5t26.5 41.5q80 -43 139 -43q34 0 53.5 13t20.5 35q0 36 -54 56l-56 21q-126 47 -126 147q0 71 51.5 113.5t134.5 42.5q41 0 91 -11.5t83 -27.5q1 -24 -10 -51.5t-27 -40.5q-78 35 -137 35q-26 0 -41 -12.5t-15 -32.5q0 -30 50 -49l61 -22
q130 -49 130 -156q0 -71 -54 -113.5t-143 -42.5q-105 0 -190 49zM137 591l150 164q26 -8 50.5 -31t33.5 -49l-179 -136q-40 13 -55 52z" />
    <glyph glyph-name="Scaron" unicode="&#x160;" horiz-adv-x="556" 
d="M22 60q3 28 18.5 56.5t35.5 45.5q104 -66 202 -66q49 0 76 22.5t28 56.5q0 57 -77 91l-118 50q-140 61 -140 179q0 88 66.5 145t168.5 57q118 0 224 -55q-3 -61 -47 -102q-100 48 -176 48q-47 0 -73 -22t-26 -54q0 -46 71 -76l118 -50q71 -30 110.5 -79t39.5 -113
q0 -93 -65.5 -150.5t-188.5 -57.5q-135 0 -247 74zM167 906l115 -74l118 84q16 -6 33.5 -21.5t22.5 -32.5l-118 -118q-50 -13 -112 -1l-113 108q6 19 22.5 34.5t31.5 20.5z" />
    <glyph glyph-name="scaron" unicode="&#x161;" horiz-adv-x="440" 
d="M25 35q1 22 12.5 48.5t26.5 41.5q80 -43 139 -43q34 0 53.5 13t20.5 35q0 36 -54 56l-56 21q-126 47 -126 147q0 71 51.5 113.5t134.5 42.5q41 0 91 -11.5t83 -27.5q1 -24 -10 -51.5t-27 -40.5q-78 35 -137 35q-26 0 -41 -12.5t-15 -32.5q0 -30 50 -49l61 -22
q130 -49 130 -156q0 -71 -54 -113.5t-143 -42.5q-105 0 -190 49zM126 740l92 -89l100 96q40 -15 59 -52l-107 -136q-23 -7 -54 -6.5t-54 6.5l-95 126q8 19 25.5 34t33.5 21z" />
    <glyph glyph-name="Tcaron" unicode="&#x164;" horiz-adv-x="501" 
d="M184 0v498q0 13 0.5 36.5t0.5 37.5h-1q-7 0 -30 -0.5t-30 -0.5h-111q-5 25 -5 56t5 56h478q7 -25 7 -52q0 -32 -17 -46t-55 -14h-47q-7 0 -30 0.5t-30 0.5h-1q0 -14 0.5 -37.5t0.5 -36.5v-498q-29 -5 -68 -5q-38 0 -67 5zM132 906l115 -74l118 84q16 -6 33.5 -21.5
t22.5 -32.5l-118 -118q-50 -13 -112 -1l-113 108q6 19 22.5 34.5t31.5 20.5z" />
    <glyph glyph-name="tcaron" unicode="&#x165;" horiz-adv-x="389" 
d="M337 497q6 -24 6 -46q0 -24 -6 -48l-121 2v-263q0 -46 43 -46h62q10 -30 10 -63q0 -21 -3 -29q-61 -9 -120 -9q-120 0 -120 122v287l-76 -1q-5 20 -5 48q0 26 5 46l76 -1v72q0 44 16 62t55 18h50l7 -6v-147zM275 562l12 225q24 7 59 2t54 -19l-50 -213q-17 -6 -39.5 -4.5
t-35.5 9.5z" />
    <glyph glyph-name="Uring" unicode="&#x16e;" horiz-adv-x="671" 
d="M597 683v-437q0 -124 -69 -192t-193 -68q-123 0 -192 68t-69 192v436l6 7h50q40 0 59 -20.5t19 -65.5v-358q0 -152 128 -152q127 0 127 152v438q26 5 66 5q42 0 68 -5zM203 784q0 51 36.5 86t94.5 35t94.5 -35t36.5 -86t-36.5 -85.5t-94.5 -34.5t-94.5 34.5t-36.5 85.5z
M284 784q0 -22 14 -37t36 -15t36 15t14 37q0 23 -14 38t-36 15t-36 -15t-14 -38z" />
    <glyph glyph-name="uring" unicode="&#x16f;" horiz-adv-x="548" 
d="M65 162v219q0 62 -21 95q33 28 82 28q38 0 54 -20.5t16 -61.5v-233q0 -43 11 -61.5t41 -18.5q53 0 99 46v341q22 5 65 5q42 0 66 -5v-355q0 -59 28 -83q-5 -18 -17.5 -37t-26.5 -29q-73 7 -101 71q-77 -72 -159 -72q-67 0 -102 47t-35 124zM135 662q0 51 36.5 86t94.5 35
t94.5 -35t36.5 -86t-36.5 -86t-94.5 -35t-94.5 35t-36.5 86zM216 662q0 -23 14 -37.5t36 -14.5t36 14.5t14 37.5t-14 38t-36 15t-36 -15t-14 -38z" />
    <glyph glyph-name="Ydieresis" unicode="&#x178;" horiz-adv-x="515" 
d="M311 485l79 198q22 5 55 5q37 0 66 -9l5 -8l-192 -458v-213q-26 -5 -67 -5t-67 5v217l-192 450q42 24 83 24q27 0 43 -13t28 -43l63 -154q26 -68 43 -134h6q16 58 47 138zM373 856q31 0 54 -14q11 -17 11 -45q0 -31 -11 -47q-23 -14 -54 -14t-57 14q-12 16 -12 47
q0 29 12 45q26 14 57 14zM149 856q31 0 57 -14q10 -15 10 -45q0 -32 -10 -47q-26 -14 -57 -14q-33 0 -54 14q-11 16 -11 47q0 28 11 45q21 14 54 14z" />
    <glyph glyph-name="Zacute" unicode="&#x179;" horiz-adv-x="571" 
d="M59 135l237 341q36 51 80 101l-3 3q-64 -8 -155 -8h-152q-5 20 -5 45q0 31 9 66h428q19 -65 19 -84q0 -26 -16 -49l-236 -340q-39 -54 -79 -100l3 -3q86 6 136 6h79q70 0 115 21q10 -28 10 -62q0 -35 -24 -53.5t-66 -18.5h-381q-16 67 -16 82q0 27 17 53zM173 792
l213 129q18 -14 35 -43.5t19 -57.5l-229 -92q-14 8 -25 27t-13 37z" />
    <glyph glyph-name="zacute" unicode="&#x17a;" horiz-adv-x="448" 
d="M49 116l140 189q15 20 80 96l-3 4q-58 -7 -129 -7h-90q-5 22 -5 41q0 28 8 57h342q17 -51 17 -73q0 -23 -14 -41l-141 -191q-44 -57 -77 -93l3 -5q39 5 86 5h41q67 0 100 16q13 -32 13 -55q0 -59 -75 -59h-299q-16 44 -16 67t19 49zM140 591l150 164q26 -8 50.5 -31
t33.5 -49l-179 -136q-40 13 -55 52z" />
    <glyph glyph-name="Zdotaccent" unicode="&#x17b;" horiz-adv-x="571" 
d="M59 135l237 341q36 51 80 101l-3 3q-64 -8 -155 -8h-152q-5 20 -5 45q0 31 9 66h428q19 -65 19 -84q0 -26 -16 -49l-236 -340q-39 -54 -79 -100l3 -3q86 6 136 6h79q70 0 115 21q10 -28 10 -62q0 -35 -24 -53.5t-66 -18.5h-381q-16 67 -16 82q0 27 17 53zM211 808
q0 31 10 52q26 14 65 14q42 0 65 -14q10 -21 10 -52q0 -30 -10 -51q-23 -14 -65 -14q-45 0 -65 14q-10 21 -10 51z" />
    <glyph glyph-name="zdotaccent" unicode="&#x17c;" horiz-adv-x="448" 
d="M49 116l140 189q15 20 80 96l-3 4q-58 -7 -129 -7h-90q-5 22 -5 41q0 28 8 57h342q17 -51 17 -73q0 -23 -14 -41l-141 -191q-44 -57 -77 -93l3 -5q39 5 86 5h41q67 0 100 16q13 -32 13 -55q0 -59 -75 -59h-299q-16 44 -16 67t19 49zM150 637q0 29 10 52q24 13 65 13
q44 0 65 -13q10 -23 10 -52t-10 -52q-23 -14 -65 -14t-65 14q-10 23 -10 52z" />
    <glyph glyph-name="Zcaron" unicode="&#x17d;" horiz-adv-x="571" 
d="M59 135l237 341q36 51 80 101l-3 3q-64 -8 -155 -8h-152q-5 20 -5 45q0 31 9 66h428q19 -65 19 -84q0 -26 -16 -49l-236 -340q-39 -54 -79 -100l3 -3q86 6 136 6h79q70 0 115 21q10 -28 10 -62q0 -35 -24 -53.5t-66 -18.5h-381q-16 67 -16 82q0 27 17 53zM167 906
l115 -74l118 84q16 -6 33.5 -21.5t22.5 -32.5l-118 -118q-50 -13 -112 -1l-113 108q6 19 22.5 34.5t31.5 20.5z" />
    <glyph glyph-name="zcaron" unicode="&#x17e;" horiz-adv-x="448" 
d="M49 116l140 189q15 20 80 96l-3 4q-58 -7 -129 -7h-90q-5 22 -5 41q0 28 8 57h342q17 -51 17 -73q0 -23 -14 -41l-141 -191q-44 -57 -77 -93l3 -5q39 5 86 5h41q67 0 100 16q13 -32 13 -55q0 -59 -75 -59h-299q-16 44 -16 67t19 49zM130 740l92 -89l100 96q40 -15 59 -52
l-107 -136q-23 -7 -54 -6.5t-54 6.5l-95 126q8 19 25.5 34t33.5 21z" />
    <glyph glyph-name="dotlessj" unicode="&#x237;" horiz-adv-x="292" 
d="M224 395v-371q0 -58 -5.5 -93.5t-23 -67.5t-51.5 -51.5t-89 -31.5q-33 29 -36 80q44 20 60.5 45.5t16.5 77.5v365q0 55 -46 55h-22q-6 23 -6 45q0 24 6 47q52 5 85 5h18q43 0 68 -28t25 -77z" />
    <glyph glyph-name="circumflex" unicode="&#x2c6;" 
d="M295 549l-93 89l-98 -95q-38 14 -59 51l105 135q48 16 109 0l94 -125q-8 -19 -25 -34.5t-33 -20.5z" />
    <glyph glyph-name="caron" unicode="&#x2c7;" 
d="M104 740l92 -89l100 96q40 -15 59 -52l-107 -136q-23 -7 -54 -6.5t-54 6.5l-95 126q8 19 25.5 34t33.5 21z" />
    <glyph glyph-name="dotaccent" unicode="&#x2d9;" 
d="M124 637q0 29 10 52q24 13 65 13q44 0 65 -13q10 -23 10 -52t-10 -52q-23 -14 -65 -14t-65 14q-10 23 -10 52z" />
    <glyph glyph-name="ring" unicode="&#x2da;" 
d="M68 662q0 51 36.5 86t94.5 35t94.5 -35t36.5 -86t-36.5 -86t-94.5 -35t-94.5 35t-36.5 86zM149 662q0 -23 14 -37.5t36 -14.5t36 14.5t14 37.5t-14 38t-36 15t-36 -15t-14 -38z" />
    <glyph glyph-name="tilde" unicode="&#x2dc;" 
d="M205 572l-49 24q-16 9 -31 9q-19 0 -37 -24l-10 -14q-19 1 -37 12t-25 28l9 20q15 37 43.5 58.5t64.5 21.5q32 0 60 -16l49 -25q18 -9 31 -9q19 0 37 25l10 13q18 0 36.5 -11.5t25.5 -28.5l-9 -19q-16 -38 -44.5 -59.5t-63.5 -21.5q-30 0 -60 17z" />
    <glyph glyph-name="mu" unicode="&#x3bc;" horiz-adv-x="553" 
d="M482 496v-354q0 -62 28 -84q-5 -17 -17.5 -36.5t-26.5 -29.5q-66 6 -97 62q-41 -63 -115 -63q-35 0 -65 19v-140q0 -45 -12.5 -67t-49.5 -22q-45 0 -80 27q21 32 21 96v592q22 5 65 5q40 0 64 -5v-316q2 -37 20.5 -57.5t52.5 -20.5q46 0 81 46v348q23 5 65 5t66 -5z" />
    <glyph glyph-name="germandbls.cap" unicode="&#x1e9e;" horiz-adv-x="642" 
d="M100 0v375l-86 -1q-5 25 -5 52q0 25 5 50l86 -1v28q0 95 62.5 145.5t167.5 50.5q106 0 170 -55.5t64 -148.5q0 -35 -16 -77q-36 -9 -54 -27.5t-18 -38.5q0 -22 28 -47l38 -36q72 -69 72 -132q0 -70 -53.5 -110.5t-140.5 -40.5q-72 0 -129 29q1 22 12 49.5t26 41.5
q42 -21 78 -21q31 0 50 14t19 37q0 27 -35 59l-41 37q-63 57 -63 111q0 35 24.5 68t66.5 50q3 15 3 31q0 46 -26 76.5t-75 30.5q-97 0 -97 -110v-489q-33 -5 -67 -5q-33 0 -66 5z" />
    <glyph glyph-name="endash" unicode="&#x2013;" horiz-adv-x="544" 
d="M480 214h-416q-6 22 -6 51q0 31 6 51h416q6 -20 6 -51q0 -29 -6 -51z" />
    <glyph glyph-name="emdash" unicode="&#x2014;" horiz-adv-x="807" 
d="M731 214h-655q-5 22 -5 51q0 30 5 51h655q6 -20 6 -51q0 -29 -6 -51z" />
    <glyph glyph-name="quoteleft" unicode="&#x2018;" horiz-adv-x="249" 
d="M52 511q-12 33 -12 73q0 68 39 120.5t114 75.5q17 -8 25 -25.5t6 -35.5q-75 -31 -78 -85q36 -7 44 -14q11 -18 11 -53q0 -36 -11 -56q-27 -16 -69 -16q-45 0 -69 16z" />
    <glyph glyph-name="quoteright" unicode="&#x2019;" horiz-adv-x="249" 
d="M196 764q12 -31 12 -73q0 -68 -39 -121t-114 -76q-16 8 -24.5 25.5t-6.5 36.5q30 11 54 33.5t25 51.5q-33 4 -44 13q-11 20 -11 53q0 40 11 57q30 16 69 16q43 0 68 -16z" />
    <glyph glyph-name="quotesinglbase" unicode="&#x201a;" horiz-adv-x="249" 
d="M197 114q12 -29 12 -73q0 -68 -39 -120.5t-114 -76.5q-16 8 -24.5 25.5t-6.5 36.5q30 11 53.5 33.5t24.5 51.5q-32 5 -43 13q-11 20 -11 54q0 39 11 56q30 16 69 16q43 0 68 -16z" />
    <glyph glyph-name="quotedblleft" unicode="&#x201c;" horiz-adv-x="464" 
d="M50 511q-12 33 -12 73q0 68 39 120.5t114 75.5q17 -8 25 -25.5t6 -35.5q-75 -31 -78 -85q36 -7 44 -14q11 -18 11 -53q0 -36 -11 -56q-27 -16 -69 -16q-45 0 -69 16zM265 511q-12 33 -12 73q0 68 39 120.5t114 75.5q17 -8 25 -25.5t6 -35.5q-75 -31 -78 -85q36 -7 44 -14
q11 -18 11 -53q0 -36 -11 -56q-27 -16 -69 -16q-45 0 -69 16z" />
    <glyph glyph-name="quotedblright" unicode="&#x201d;" horiz-adv-x="464" 
d="M199 764q12 -31 12 -73q0 -68 -39 -121t-114 -76q-16 8 -24.5 25.5t-6.5 36.5q30 11 54 33.5t25 51.5q-33 4 -44 13q-11 20 -11 53q0 40 11 57q30 16 69 16q43 0 68 -16zM415 764q12 -31 12 -73q0 -68 -39 -121t-114 -76q-16 8 -24.5 25.5t-6.5 36.5q30 11 54 33.5
t25 51.5q-33 4 -44 13q-11 20 -11 53q0 40 11 57q30 16 69 16q43 0 68 -16z" />
    <glyph glyph-name="quotedblbase" unicode="&#x201e;" horiz-adv-x="465" 
d="M197 114q12 -29 12 -73q0 -68 -39 -120.5t-114 -76.5q-16 8 -24.5 25.5t-6.5 36.5q30 11 53.5 33.5t24.5 51.5q-32 5 -43 13q-11 20 -11 54q0 39 11 56q30 16 69 16q43 0 68 -16zM412 114q12 -29 12 -73q0 -68 -39 -120.5t-114 -76.5q-16 8 -24.5 25.5t-6.5 36.5
q30 11 53.5 33.5t24.5 51.5q-32 5 -43 13q-11 20 -11 54q0 39 11 56q30 16 69 16q43 0 68 -16z" />
    <glyph glyph-name="bullet" unicode="&#x2022;" horiz-adv-x="455" 
d="M102 271q0 56 16 92q49 27 112 27q61 0 110 -27q15 -34 15 -92q0 -60 -15 -94q-41 -27 -110 -27t-112 27q-16 36 -16 94z" />
    <glyph glyph-name="guilsinglleft" unicode="&#x2039;" horiz-adv-x="341" 
d="M303 413l-131 -156l135 -159q-7 -21 -29 -41t-44 -26l-200 185q-7 16 -7 39t7 39l198 187q21 -6 42.5 -26.5t28.5 -41.5z" />
    <glyph glyph-name="guilsinglright" unicode="&#x203a;" horiz-adv-x="341" 
d="M38 99l130 156l-135 159q7 21 29 41t44 26l201 -186q6 -15 6 -38t-6 -39l-198 -187q-22 6 -43 26.5t-28 41.5z" />
    <glyph glyph-name="fraction" unicode="&#x2044;" horiz-adv-x="257" 
d="M-124 0l378 683q26 6 67.5 6t58.5 -6l-377 -683q-27 -6 -68 -6t-59 6z" />
    <glyph glyph-name="foursuperior" unicode="&#x2074;" horiz-adv-x="420" 
d="M217 329v29q0 8 0.5 22t0.5 23q-9 0 -24 -1t-25 -1h-111q-24 39 -24 66q0 15 15 48l115 255q25 3 56.5 -3.5t47.5 -19.5l-63 -138q-35 -82 -64 -118l2 -2q10 1 24 1.5t29 1.5t21 1v15v27q0 37 20 58t55 21h27l4 -4v-54q0 -9 -0.5 -32t-0.5 -31h56q4 -16 4 -35
q0 -29 -8 -56h-21q-4 0 -15 0.5t-16 0.5v-74q-20 -5 -50 -5q-32 0 -55 5z" />
    <glyph glyph-name="Euro" unicode="&#x20ac;" horiz-adv-x="563" 
d="M493 498q-74 57 -147 57q-91 0 -116 -112h183q5 -21 5 -43q0 -21 -5 -41h-193v-36v-36h193q5 -21 5 -42q0 -22 -5 -42h-182q24 -110 115 -110q72 0 147 56q47 -27 56 -79q-99 -84 -221 -84q-190 0 -229 217h-81q-5 20 -5 42q0 21 5 42h72q-1 12 -1 36t1 36h-72
q-5 20 -5 41q0 22 5 43h81q39 219 229 219q121 0 221 -85q-4 -22 -19.5 -44.5t-36.5 -34.5z" />
    <glyph glyph-name="nbspace" horiz-adv-x="220" 
 />
    <glyph glyph-name="commaaccent" 
d="M263 -59q11 -24 11 -56q0 -55 -37 -98t-102 -65q-32 11 -41 54q63 39 63 98q0 30 -13 53q23 16 57 20t62 -6z" />
    <glyph glyph-name="grave.cap" 
d="M110 921l213 -129q-8 -46 -38 -64l-229 92q2 28 19 57.5t35 43.5z" />
    <glyph glyph-name="acute.cap" 
d="M86 792l213 129q18 -14 35 -43.5t19 -57.5l-229 -92q-14 8 -25 27t-13 37z" />
    <glyph glyph-name="circumflex.cap" 
d="M313 736l-115 74l-118 -84q-16 6 -33 22t-22 34l117 117q57 12 111 0l113 -108q-6 -19 -21.5 -34t-31.5 -21z" />
    <glyph glyph-name="dieresis.cap" 
d="M311 856q31 0 54 -14q11 -17 11 -45q0 -31 -11 -47q-23 -14 -54 -14t-57 14q-12 16 -12 47q0 29 12 45q26 14 57 14zM87 856q31 0 57 -14q10 -15 10 -45q0 -32 -10 -47q-26 -14 -57 -14q-33 0 -54 14q-11 16 -11 47q0 28 11 45q21 14 54 14z" />
    <glyph glyph-name="caron.cap" 
d="M80 906l115 -74l118 84q16 -6 33.5 -21.5t22.5 -32.5l-118 -118q-50 -13 -112 -1l-113 108q6 19 22.5 34.5t31.5 20.5z" />
    <glyph glyph-name="ring.cap" 
d="M68 784q0 51 36.5 86t94.5 35t94.5 -35t36.5 -86t-36.5 -85.5t-94.5 -34.5t-94.5 34.5t-36.5 85.5zM149 784q0 -22 14 -37t36 -15t36 15t14 37q0 23 -14 38t-36 15t-36 -15t-14 -38z" />
    <glyph glyph-name="tilde.cap" 
d="M205 758l-51 24q-16 9 -32 9q-22 0 -38 -24l-10 -14q-20 1 -39.5 12t-26.5 28l9 19q37 81 114 81q30 0 62 -17l51 -24q18 -9 32 -9q21 0 38 24l10 13q20 0 39.5 -11t26.5 -28l-9 -19q-37 -81 -114 -81q-32 0 -62 17z" />
    <glyph glyph-name="dotaccent.cap" 
d="M124 808q0 31 10 52q26 14 65 14q42 0 65 -14q10 -21 10 -52q0 -30 -10 -51q-23 -14 -65 -14q-45 0 -65 14q-10 21 -10 51z" />
    <glyph glyph-name="caron.alt" horiz-adv-x="445" 
d="M195 565l12 225q24 7 59 2t54 -19l-50 -213q-17 -6 -39.5 -4.5t-35.5 9.5z" />
    <glyph glyph-name="commaaccent.cap" 
d="M263 -59q11 -24 11 -56q0 -55 -37 -98t-102 -65q-32 11 -41 54q63 39 63 98q0 30 -13 53q23 16 57 20t62 -6z" />
    <glyph glyph-name="a.smcp" horiz-adv-x="560" 
d="M209 108q-4 0 -19 0.5t-22 0.5l-37 -109q-24 -6 -56 -6q-41 0 -62 10l-4 6l196 538q40 6 79 6q33 0 75 -6l193 -542q-31 -14 -75 -14q-28 0 -47 11.5t-30 45.5l-20 60q-7 0 -21.5 -0.5t-19.5 -0.5h-130zM228 286l-25 -73q6 0 19 0.5t18 0.5h73q4 0 15 -0.5t17 -0.5
l-21 64q-15 49 -46 167h-5q-30 -111 -45 -158z" />
    <glyph glyph-name="b.smcp" horiz-adv-x="557" 
d="M83 549q112 4 198 4q208 0 208 -145q0 -37 -21.5 -68.5t-56.5 -44.5q46 -13 76.5 -51.5t30.5 -85.5q0 -162 -224 -162q-42 0 -119 1.5t-92 1.5l-5 5v539zM285 241h-78v-152q30 1 86 1q91 0 91 74q0 31 -23 54t-76 23zM207 461v-127h68q84 0 84 63t-83 63q-47 0 -69 1z
" />
    <glyph glyph-name="c.smcp" horiz-adv-x="542" 
d="M390 316q0 142 -101 142q-117 0 -117 -187q0 -91 35 -133t92 -42q72 0 147 58q20 -11 38 -36.5t24 -47.5q-95 -84 -229 -84q-66 0 -115 24.5t-76 67t-39.5 91t-12.5 103.5q0 144 73.5 217t183.5 73q106 0 164 -53.5t58 -124.5q0 -72 -79 -72q-14 0 -46 4z" />
    <glyph glyph-name="d.smcp" horiz-adv-x="596" 
d="M558 273q0 -81 -20 -138.5t-79 -98.5q-57 -40 -166 -40q-93 0 -210 3l-5 6v538l5 6q156 4 210 4q43 0 90 -11t76 -31q58 -41 78.5 -99t20.5 -139zM423 273q0 177 -130 177q-54 0 -84 1v-353q15 0 41.5 0.5t42.5 0.5q130 0 130 174z" />
    <glyph glyph-name="e.smcp" horiz-adv-x="520" 
d="M273 106h207q0 -29 -2 -44q-12 -63 -80 -63h-244q-35 0 -55.5 20.5t-20.5 55.5v468l5 5h380q4 -19 4 -52q0 -29 -11 -55h-188h-60q0 -8 0.5 -24.5t0.5 -27.5v-61q23 1 59 1h142q7 -17 7 -51t-7 -53h-142h-59v-67q0 -11 -0.5 -28t-0.5 -26q40 2 65 2z" />
    <glyph glyph-name="f.smcp" horiz-adv-x="478" 
d="M455 548q6 -22 6 -49q0 -60 -67 -60h-115h-70q0 -10 0.5 -30.5t0.5 -29.5v-59h23h169q6 -18 6 -51q0 -35 -6 -54h-169h-23v-215q-28 -5 -66 -5q-39 0 -66 5v544l5 4h372z" />
    <glyph glyph-name="g.smcp" horiz-adv-x="577" 
d="M297 308q46 2 139 2q50 0 70 -18t20 -55v-218q-99 -33 -228 -33q-135 0 -198.5 78t-63.5 208q0 145 78.5 217.5t195.5 72.5t209 -51q-3 -27 -19 -56t-35 -42q-72 42 -150 42q-67 0 -105 -46t-38 -138q0 -185 150 -185q42 0 80 8v58q0 4 2 50h-54q-60 0 -60 53q0 30 7 53z
" />
    <glyph glyph-name="h.smcp" horiz-adv-x="624" 
d="M414 0v172q0 12 0.5 30.5t0.5 29.5q-7 0 -24 -0.5t-23 -0.5h-112q-6 0 -23 0.5t-24 0.5q0 -11 0.5 -29.5t0.5 -30.5v-172q-26 -5 -65 -5q-42 0 -67 5v548q24 6 67 6q40 0 65 -6v-151q0 -11 -0.5 -30t-0.5 -29q7 0 24 0.5t23 0.5h112q6 0 23 -0.5t24 -0.5q0 10 -0.5 29
t-0.5 30v151q25 6 65 6q42 0 67 -6v-548q-28 -5 -66 -5t-66 5z" />
    <glyph glyph-name="i.smcp" horiz-adv-x="294" 
d="M80 0v548q26 5 68 5q38 0 65 -5v-548q-27 -5 -65 -5q-42 0 -68 5z" />
    <glyph glyph-name="j.smcp" horiz-adv-x="415" 
d="M47 121q43 -28 89 -28q43 0 62 26.5t19 80.5v348q26 5 66 5q45 0 66 -5v-344q0 -110 -46 -163.5t-151 -53.5q-90 0 -150 41q9 57 45 93z" />
    <glyph glyph-name="k.smcp" horiz-adv-x="562" 
d="M544 33q-14 -18 -38 -29.5t-49 -10.5q-32 1 -48.5 16t-30.5 48l-49 113q-14 33 -29.5 45.5t-45.5 13.5q-26 0 -44 -1v-228q-26 -5 -65 -5q-42 0 -67 5v548q25 5 67 5q39 0 65 -5v-213l23 1q18 0 24 4.5t16 20.5l89 147q14 25 29 35.5t45 10.5q34 0 78 -6l8 -8l-114 -184
q-24 -39 -49 -58q37 -8 57.5 -29.5t37.5 -60.5l42 -98q24 -56 48 -77z" />
    <glyph glyph-name="l.smcp" horiz-adv-x="475" 
d="M298 109h154q-2 -39 -4 -47q-11 -64 -85 -64h-210q-35 0 -56 20.5t-21 56.5v472l6 6h51q39 0 57.5 -19.5t18.5 -63.5v-366q53 5 89 5z" />
    <glyph glyph-name="m.smcp" horiz-adv-x="747" 
d="M58 2l55 546q31 7 85 7q57 0 83 -7l63 -234q17 -64 27 -121h6q7 60 26 121l62 234q35 7 83 7q51 0 85 -7l55 -546q-24 -7 -67 -7q-37 0 -61 5l-17 220q-1 17 -5 197h-5l-92 -334q-32 -5 -68 -5q-38 0 -68 5l-91 334h-6q0 -138 -5 -197l-17 -220q-22 -5 -60 -5
q-43 0 -68 7z" />
    <glyph glyph-name="n.smcp" horiz-adv-x="631" 
d="M548 554l5 -6v-546q-29 -7 -75 -7q-58 0 -78 5l-147 279q-8 14 -30 62t-27 58l-3 -1q8 -142 8 -208v-190q-27 -5 -61 -5q-36 0 -62 5v546q37 7 75 7q55 0 76 -5l146 -279q7 -12 59 -128l6 2q-12 180 -12 212v125q0 43 17 58.5t58 15.5h45z" />
    <glyph glyph-name="o.smcp" horiz-adv-x="598" 
d="M172 274q0 -189 127 -189t127 189t-127 189t-127 -189zM36 274q0 162 98 239q66 49 165 49q101 0 166 -49q51 -39 74.5 -103.5t23.5 -135.5q0 -162 -98 -239q-65 -49 -166 -49t-165 49q-98 77 -98 239z" />
    <glyph glyph-name="p.smcp" horiz-adv-x="523" 
d="M497 366q0 -91 -59.5 -138.5t-158.5 -47.5h-69v-180q-26 -5 -65 -5q-42 0 -67 5v543l5 6q10 0 83.5 2t112.5 2q99 0 158.5 -46.5t59.5 -140.5zM210 454v-175h60q51 0 71 26t20 61t-20 61t-71 26q-34 0 -60 1z" />
    <glyph glyph-name="q.smcp" horiz-adv-x="600" 
d="M36 274q0 162 98 239q66 49 165 49q101 0 166 -49q51 -39 74.5 -103.5t23.5 -135.5q0 -126 -64 -200q-24 -28 -55 -44l2 -1q55 -44 128 -47q-2 -45 -28 -69.5t-63 -24.5q-51 0 -90 37l-74 62q-4 -1 -14 -1q-107 0 -171 49q-98 77 -98 239zM172 274q0 -189 127 -189
t127 189t-127 189t-127 -189z" />
    <glyph glyph-name="r.smcp" horiz-adv-x="559" 
d="M507 384q0 -53 -34.5 -92.5t-80.5 -49.5q48 -18 72 -72l31 -72q20 -44 44 -65q-32 -41 -90 -41q-29 0 -46.5 14.5t-31.5 46.5l-46 106q-12 26 -28.5 35.5t-47.5 9.5h-40v-204q-27 -5 -65 -5q-41 0 -66 5v543l5 6q152 4 209 4q97 0 156 -41t59 -128zM209 456v-152
q58 2 72 2q90 0 90 76q0 32 -20 52.5t-65 20.5q-12 0 -37.5 0.5t-39.5 0.5z" />
    <glyph glyph-name="s.smcp" horiz-adv-x="502" 
d="M22 43q1 26 15 55.5t34 42.5q95 -51 180 -50q35 0 58.5 15.5t23.5 41.5q0 39 -60 60l-96 34q-139 50 -139 152q0 74 57 121t154 47q106 1 207 -42q0 -66 -45 -100q-88 39 -164 37q-32 0 -51 -14.5t-19 -36.5q0 -18 13.5 -27.5t44.5 -21.5l94 -33q146 -53 146 -167
q0 -79 -61.5 -124.5t-160.5 -46.5q-136 0 -231 57z" />
    <glyph glyph-name="t.smcp" horiz-adv-x="450" 
d="M162 0v381q0 11 0.5 30t0.5 30q-7 0 -28 -0.5t-27 -0.5h-99q-4 27 -4 53q0 30 4 55h435q7 -21 7 -49q0 -59 -67 -59h-37q-7 0 -26.5 0.5t-25.5 0.5h-1q0 -11 0.5 -30t0.5 -30v-381q-27 -5 -66 -5q-35 0 -67 5z" />
    <glyph glyph-name="u.smcp" horiz-adv-x="609" 
d="M541 548v-347q0 -102 -61.5 -158.5t-174.5 -56.5q-114 0 -175.5 56.5t-61.5 158.5v347l6 5h48q79 0 79 -84v-268q0 -110 104 -110q103 0 103 110v347q28 5 65 5q42 0 68 -5z" />
    <glyph glyph-name="v.smcp" horiz-adv-x="530" 
d="M276 103l124 445q24 6 51 6q36 0 67 -9l5 -7l-170 -538q-33 -5 -104 -5q-36 0 -57.5 12t-31.5 46l-151 486q38 16 76 16q30 0 47 -14t28 -48l67 -216q21 -71 40 -166q2 -8 9 -8z" />
    <glyph glyph-name="w.smcp" horiz-adv-x="800" 
d="M127 52l-105 490q31 13 74 13q33 0 47 -15.5t22 -57.5l43 -225q10 -48 23 -140q2 -11 9 -11l81 435q31 5 82 5q52 0 82 -5l75 -424q1 -8 3 -9.5t6 -1.5q10 76 24 153l58 289q25 5 58 5q37 0 64 -9l6 -8l-121 -536q-36 -7 -111 -7q-33 0 -53.5 12t-25.5 47l-34 177
q-9 53 -29 193h-6q-24 -152 -32 -193l-46 -229q-41 -6 -110 -6q-36 0 -56 11.5t-28 46.5z" />
    <glyph glyph-name="x.smcp" horiz-adv-x="538" 
d="M381 548v1q27 5 58 5q35 0 67 -9l2 -7l-163 -244l186 -273q-39 -28 -92 -28q-47 0 -83 52l-96 142l-122 -187q-27 -5 -58 -5q-38 0 -68 9l-4 7l183 277l-162 240q43 28 91 28q26 0 44.5 -12t37.5 -41l75 -111z" />
    <glyph glyph-name="y.smcp" horiz-adv-x="460" 
d="M274 396l61 152q23 6 58 6q21 0 58 -8l6 -7l-162 -376v-163q-26 -5 -64 -5q-40 0 -66 5v167l-161 370q41 19 77 19q52 0 71 -50l50 -121q22 -56 30 -105h6q34 111 36 116z" />
    <glyph glyph-name="z.smcp" horiz-adv-x="513" 
d="M53 125l201 245q28 33 76 77l-3 3q-55 -7 -142 -7h-126q-5 19 -5 44q0 24 10 61h388q18 -66 18 -80q0 -26 -15 -45l-201 -243q-32 -39 -71 -75l2 -4q38 3 126 6l53 1q74 2 106 18q8 -29 8 -55q0 -34 -25 -53t-64 -19h-338q-14 68 -14 78q0 29 16 48z" />
    <glyph glyph-name="ampersand.smcp" horiz-adv-x="578" 
d="M299 340h164q54 0 92 18q17 -23 17 -58q0 -63 -83 -63h-15q1 -18 1 -57v-79q0 -15 7 -102q-20 -8 -65 -8q-36 0 -55 5l-8 37q-58 -46 -143 -46q-81 0 -126 44.5t-45 111.5q0 55 33.5 95.5t82.5 53.5q-40 13 -64 46t-24 76q0 67 54 107.5t147 40.5q91 0 176 -26
q5 -57 -33 -97q-79 23 -128 23q-38 0 -58 -16.5t-20 -42.5q0 -63 93 -63zM349 182v55h-62q-54 0 -82.5 -21.5t-28.5 -59.5q0 -36 21 -53.5t55 -17.5q55 0 97 31v66z" />
    <glyph glyph-name="zero.smcp" horiz-adv-x="482" 
d="M37 274q0 82 12 140.5t50 94.5q53 53 142 53t142 -53q38 -37 50 -95t12 -140q0 -80 -12 -138t-50 -96q-56 -54 -142 -54t-142 54q-38 38 -50 96t-12 138zM167 274q0 -135 22 -166q17 -25 52 -25t52 25q22 31 22 166q0 136 -22 167q-17 25 -52 25t-52 -25
q-22 -31 -22 -167z" />
    <glyph glyph-name="one.smcp" horiz-adv-x="482" 
d="M40 385q124 72 169 163q26 5 62 5q33 0 59 -5v-446q6 0 30 1t31 1h45q6 -22 6 -52t-6 -52h-360q-6 24 -6 52q0 30 6 52h71q6 0 28 -1t29 -1q0 10 -0.5 30.5t-0.5 30.5v143q0 13 7 83q-44 -49 -118 -79q-43 21 -52 75z" />
    <glyph glyph-name="two.smcp" horiz-adv-x="482" 
d="M437 108q0 -28 -3 -48q-10 -61 -80 -61h-267q-15 13 -30 35.5t-15 40.5q0 65 105 155l93 80q48 40 48 82q0 26 -17 44t-45 18q-58 0 -86 -72q-26 1 -52.5 13.5t-38.5 30.5q18 59 67.5 97.5t117.5 38.5q84 0 134.5 -48.5t50.5 -123.5q0 -86 -103 -169l-70 -57
q-57 -45 -67 -66q82 10 128 10h130z" />
    <glyph glyph-name="three.smcp" horiz-adv-x="482" 
d="M390 421l-72 -68q-13 -13 -32 -24q67 -7 110 -49.5t43 -109.5q0 -85 -63 -134.5t-150 -49.5q-112 0 -187 59q5 23 19.5 47.5t34.5 38.5q60 -42 118 -42q42 0 68 22.5t26 62.5q0 34 -21.5 54.5t-59.5 20.5q-26 0 -51 -10q-17 8 -32.5 30t-20.5 41h1l90 86l61 49l-3 5
q-35 -8 -98 -8h-107q-9 25 -9 47q0 33 11 59h322q26 -46 26 -78q0 -27 -24 -49z" />
    <glyph glyph-name="four.smcp" horiz-adv-x="482" 
d="M257 0v39q0 11 0.5 30.5t0.5 29.5q-10 0 -31 -1t-32 -1h-139q-28 49 -28 79q0 18 17 54l154 325q31 4 65 -4t52 -25l-82 -171q-38 -80 -83 -156l3 -4q47 5 103 7v20v39q0 42 23.5 69t61.5 27h31l5 -6v-73q0 -11 -1 -38t-1 -37v-1q6 0 21 0.5t20 0.5h35q3 -15 3 -42
q0 -34 -9 -62h-70q0 -10 0.5 -29.5t0.5 -30.5v-39q-27 -5 -59 -5q-34 0 -61 5z" />
    <glyph glyph-name="five.smcp" horiz-adv-x="482" 
d="M42 44q4 19 19.5 45.5t32.5 39.5q54 -40 117 -40q41 0 67.5 24t26.5 66t-25.5 65.5t-62.5 23.5q-43 0 -86 -33q-17 4 -35.5 17.5t-29.5 28.5l15 261l8 6h321q8 -24 8 -53q0 -52 -56 -52h-149h-15v-17l-3 -47l-2 -26q30 8 60 8q79 0 131 -49t52 -126q0 -95 -63 -147.5
t-152 -52.5q-107 0 -179 58z" />
    <glyph glyph-name="six.smcp" horiz-adv-x="482" 
d="M247 -14q-88 0 -138 50q-70 70 -70 245q0 133 63 207t178 74q84 0 140 -28q-6 -54 -42 -85q-50 16 -90 16q-110 0 -117 -139q52 33 114 33q80 0 120 -47t40 -130q0 -90 -55.5 -143t-142.5 -53zM251 261q-39 0 -80 -27v-14q0 -82 26 -115q18 -25 52 -25q33 0 51 23t18 66
q0 92 -67 92z" />
    <glyph glyph-name="seven.smcp" horiz-adv-x="482" 
d="M56 548h368q25 -46 25 -78q0 -20 -17 -43l-39 -52q-65 -86 -97 -166t-38 -189l-1 -20q-26 -7 -64 -7q-34 0 -67 7l1 20q16 205 148 366l14 16q11 13 41 43l-3 4q-50 -8 -131 -8h-145q-7 21 -7 46q0 30 12 61z" />
    <glyph glyph-name="eight.smcp" horiz-adv-x="482" 
d="M33 132q0 48 29 85.5t72 58.5q-85 50 -85 130q0 66 54 111t138 45q87 0 139 -41t52 -106q0 -77 -76 -118q93 -55 93 -144q0 -80 -60 -123.5t-153 -43.5q-92 0 -147.5 39.5t-55.5 106.5zM236 233l-10 3q-67 -34 -67 -94q0 -30 22 -49t59 -19t58.5 19.5t21.5 49.5
q0 59 -84 90zM173 415q0 -25 20 -42t60 -32l13 -5q44 30 44 76q0 26 -18.5 43.5t-50.5 17.5q-31 0 -49.5 -17t-18.5 -41z" />
    <glyph glyph-name="nine.smcp" horiz-adv-x="482" 
d="M238 562q90 0 138 -50q70 -69 70 -245q0 -133 -63 -207t-178 -74q-80 0 -140 29q8 56 42 85q47 -17 91 -17q109 0 116 140q-49 -34 -114 -34q-80 0 -120 47t-40 131q0 90 55.5 142.5t142.5 52.5zM234 287q39 0 81 27v15q0 80 -26 115q-21 25 -52 25q-34 0 -52 -23.5
t-18 -66.5q0 -92 67 -92z" />
    <glyph glyph-name="currency.smcp" horiz-adv-x="475" 
d="M46 267q0 52 23 93l-57 64q21 39 68 66l66 -60q41 19 90 19q46 0 89 -18l70 62q38 -23 68 -67l-59 -67q23 -40 23 -92q0 -53 -24 -96l57 -64q-24 -41 -68 -68l-68 62q-37 -17 -88 -17q-48 0 -87 17l-69 -60q-37 20 -68 67l57 64q-23 41 -23 95zM167 267q0 -40 17.5 -66.5
t51.5 -26.5q35 0 53 26t18 67q0 40 -18.5 66.5t-52.5 26.5t-51.5 -26t-17.5 -67z" />
    <glyph glyph-name="dollar.smcp" horiz-adv-x="450" 
d="M23 78q2 25 15.5 53t31.5 40q86 -45 159 -45q61 0 61 38q0 29 -45 45l-85 31q-117 44 -117 134q0 56 36.5 94t98.5 50v65q15 5 47 5q31 0 46 -5v-62q75 -9 139 -39q-3 -61 -45 -94q-74 36 -137 36q-56 0 -56 -39q0 -14 11 -22t35 -17l78 -28q127 -46 127 -146
q0 -61 -42 -98.5t-113 -46.5v-60q-16 -4 -46 -4q-31 0 -47 4v60q-92 11 -152 51z" />
    <glyph glyph-name="cent.smcp" horiz-adv-x="420" 
d="M172 -30v78q-52 12 -85.5 48.5t-45.5 80.5t-12 96q0 98 41 155t105 72v82q18 3 47 3q25 0 46 -3v-80q58 -11 91.5 -48t33.5 -90q0 -70 -68 -70q-27 0 -46 6q0 55 -13 81.5t-47 26.5q-65 0 -65 -139q0 -126 87 -126q47 0 101 34q37 -25 49 -70q-49 -47 -125 -60v-77
q-14 -4 -47 -4q-31 0 -47 4z" />
    <glyph glyph-name="sterling.smcp" horiz-adv-x="474" 
d="M364 311q7 -17 7 -43.5t-7 -44.5q-91 0 -136 1q-7 -68 -50 -123l3 -2q48 6 147 6h118q0 -26 -2 -42q-10 -64 -87 -64h-293q-16 63 -16 77q0 23 17 49l11 18q31 51 35 80h-60q-7 18 -7 44.5t7 43.5h41q-26 61 -26 96q0 63 49.5 109t132.5 46q115 0 186 -67
q-7 -25 -24.5 -47t-40.5 -32q-55 42 -109 42q-31 0 -50.5 -18t-19.5 -48q0 -26 22 -82q21 0 72.5 0.5t79.5 0.5z" />
    <glyph glyph-name="Euro.smcp" horiz-adv-x="498" 
d="M434 421q-62 39 -122 39q-75 0 -98 -82h148q5 -20 5 -38q0 -17 -5 -37h-159v-30v-27h159q5 -20 5 -37q0 -19 -5 -39h-148q23 -82 98 -82q62 0 122 39q21 -11 36 -32t18 -42q-88 -67 -192 -67q-169 0 -207 184h-74q-5 16 -5 39q0 21 5 37h65q-1 9 -1 28v29h-64
q-5 16 -5 37q0 22 5 38h73q36 184 209 184q105 0 191 -65q-3 -22 -18.5 -43.5t-35.5 -32.5z" />
    <glyph glyph-name="yen.smcp" horiz-adv-x="479" 
d="M435 128h-135v-128q-26 -5 -61 -5q-39 0 -64 5v128h-134q-7 22 -7 38t7 38h128l-28 59h-100q-7 24 -7 38q0 17 7 39h65l-90 194q43 23 83 23t57 -41l52 -124q14 -32 32 -95h5q11 42 33 94l68 158q23 6 56 6q26 0 59 -8l5 -7l-96 -200h65q5 -21 5 -39q0 -17 -5 -38h-101
l-28 -59h129q5 -20 5 -38t-5 -38z" />
    <glyph glyph-name="ae.smcp" horiz-adv-x="793" 
d="M235 113q-6 0 -24.5 0.5t-25.5 0.5l-57 -114q-20 -5 -59 -5q-38 0 -59 9l-5 7l275 527q24 10 81 10h375q4 -19 4 -52q0 -28 -11 -54h-190h-60q0 -9 0.5 -26.5t0.5 -27.5v-61q23 1 59 1h144q7 -19 7 -50q0 -33 -7 -52h-144h-59v-68q0 -11 -0.5 -28.5t-0.5 -26.5v-1
q30 3 64 3h210q0 -28 -2 -43q-12 -63 -81 -63h-239q-36 0 -55.5 20t-19.5 56v39q-13 -1 -36 -1h-85zM274 291l-40 -79q7 0 20 0.5t18 0.5h46q4 0 17.5 -0.5t20.5 -0.5v241h-5q-9 -20 -77 -162z" />
    <glyph glyph-name="agrave.smcp" horiz-adv-x="560" 
d="M209 108q-4 0 -19 0.5t-22 0.5l-37 -109q-24 -6 -56 -6q-41 0 -62 10l-4 6l196 538q40 6 79 6q33 0 75 -6l193 -542q-31 -14 -75 -14q-28 0 -47 11.5t-30 45.5l-20 60q-7 0 -21.5 -0.5t-19.5 -0.5h-130zM228 286l-25 -73q6 0 19 0.5t18 0.5h73q4 0 15 -0.5t17 -0.5
l-21 64q-15 49 -46 167h-5q-30 -111 -45 -158zM228 807l149 -164q-7 -18 -22.5 -32.5t-32.5 -19.5l-178 136q8 25 33 48t51 32z" />
    <glyph glyph-name="aacute.smcp" horiz-adv-x="560" 
d="M209 108q-4 0 -19 0.5t-22 0.5l-37 -109q-24 -6 -56 -6q-41 0 -62 10l-4 6l196 538q40 6 79 6q33 0 75 -6l193 -542q-31 -14 -75 -14q-28 0 -47 11.5t-30 45.5l-20 60q-7 0 -21.5 -0.5t-19.5 -0.5h-130zM228 286l-25 -73q6 0 19 0.5t18 0.5h73q4 0 15 -0.5t17 -0.5
l-21 64q-15 49 -46 167h-5q-30 -111 -45 -158zM199 643l150 164q26 -8 50.5 -31t33.5 -49l-179 -136q-40 13 -55 52z" />
    <glyph glyph-name="acircumflex.smcp" horiz-adv-x="560" 
d="M209 108q-4 0 -19 0.5t-22 0.5l-37 -109q-24 -6 -56 -6q-41 0 -62 10l-4 6l196 538q40 6 79 6q33 0 75 -6l193 -542q-31 -14 -75 -14q-28 0 -47 11.5t-30 45.5l-20 60q-7 0 -21.5 -0.5t-19.5 -0.5h-130zM228 286l-25 -73q6 0 19 0.5t18 0.5h73q4 0 15 -0.5t17 -0.5
l-21 64q-15 49 -46 167h-5q-30 -111 -45 -158zM380 601l-93 89l-98 -95q-38 14 -59 51l105 135q48 16 109 0l94 -125q-8 -19 -25 -34.5t-33 -20.5z" />
    <glyph glyph-name="atilde.smcp" horiz-adv-x="560" 
d="M209 108q-4 0 -19 0.5t-22 0.5l-37 -109q-24 -6 -56 -6q-41 0 -62 10l-4 6l196 538q40 6 79 6q33 0 75 -6l193 -542q-31 -14 -75 -14q-28 0 -47 11.5t-30 45.5l-20 60q-7 0 -21.5 -0.5t-19.5 -0.5h-130zM228 286l-25 -73q6 0 19 0.5t18 0.5h73q4 0 15 -0.5t17 -0.5
l-21 64q-15 49 -46 167h-5q-30 -111 -45 -158zM290 624l-49 24q-16 9 -31 9q-19 0 -37 -24l-10 -14q-19 1 -37 12t-25 28l9 20q15 37 43.5 58.5t64.5 21.5q32 0 60 -16l49 -25q18 -9 31 -9q19 0 37 25l10 13q18 0 36.5 -11.5t25.5 -28.5l-9 -19q-16 -38 -44.5 -59.5
t-63.5 -21.5q-30 0 -60 17z" />
    <glyph glyph-name="adieresis.smcp" horiz-adv-x="560" 
d="M209 108q-4 0 -19 0.5t-22 0.5l-37 -109q-24 -6 -56 -6q-41 0 -62 10l-4 6l196 538q40 6 79 6q33 0 75 -6l193 -542q-31 -14 -75 -14q-28 0 -47 11.5t-30 45.5l-20 60q-7 0 -21.5 -0.5t-19.5 -0.5h-130zM228 286l-25 -73q6 0 19 0.5t18 0.5h73q4 0 15 -0.5t17 -0.5
l-21 64q-15 49 -46 167h-5q-30 -111 -45 -158zM316 670q0 25 8 45q23 14 57 14t57 -14q8 -20 8 -45q0 -26 -8 -45q-22 -14 -57 -14t-57 14q-8 20 -8 45zM122 670q0 25 8 45q23 14 57 14t57 -14q8 -20 8 -45q0 -26 -8 -45q-22 -14 -57 -14t-57 14q-8 20 -8 45z" />
    <glyph glyph-name="aring.smcp" horiz-adv-x="560" 
d="M209 108q-4 0 -19 0.5t-22 0.5l-37 -109q-24 -6 -56 -6q-41 0 -62 10l-4 6l196 538q40 6 79 6q33 0 75 -6l193 -542q-31 -14 -75 -14q-28 0 -47 11.5t-30 45.5l-20 60q-7 0 -21.5 -0.5t-19.5 -0.5h-130zM228 286l-25 -73q6 0 19 0.5t18 0.5h73q4 0 15 -0.5t17 -0.5
l-21 64q-15 49 -46 167h-5q-30 -111 -45 -158zM153 714q0 51 36.5 86t94.5 35t94.5 -35t36.5 -86t-36.5 -86t-94.5 -35t-94.5 35t-36.5 86zM234 714q0 -23 14 -37.5t36 -14.5t36 14.5t14 37.5t-14 38t-36 15t-36 -15t-14 -38z" />
    <glyph glyph-name="ccedilla.smcp" horiz-adv-x="542" 
d="M230 -76q7 32 20 63q-58 5 -101 31.5t-67 67.5t-35 87.5t-11 98.5q0 144 73.5 217t183.5 73q106 0 164 -53.5t58 -124.5q0 -72 -79 -72q-14 0 -46 4q0 142 -101 142q-117 0 -117 -187q0 -91 35 -133t92 -42q72 0 147 58q20 -11 38 -36.5t24 -47.5q-77 -68 -185 -81
q-8 -16 -10 -23q44 -3 70.5 -27.5t26.5 -60.5q0 -47 -36.5 -76.5t-93.5 -29.5q-51 0 -82 22q2 37 23 60q22 -13 48 -13q40 0 40 33q0 15 -10 24.5t-27 9.5q-8 0 -22 -4q-15 8 -20 20z" />
    <glyph glyph-name="egrave.smcp" horiz-adv-x="520" 
d="M273 106h207q0 -29 -2 -44q-12 -63 -80 -63h-244q-35 0 -55.5 20.5t-20.5 55.5v468l5 5h380q4 -19 4 -52q0 -29 -11 -55h-188h-60q0 -8 0.5 -24.5t0.5 -27.5v-61q23 1 59 1h142q7 -17 7 -51t-7 -53h-142h-59v-67q0 -11 -0.5 -28t-0.5 -26q40 2 65 2zM220 807l149 -164
q-7 -18 -22.5 -32.5t-32.5 -19.5l-178 136q8 25 33 48t51 32z" />
    <glyph glyph-name="eacute.smcp" horiz-adv-x="520" 
d="M273 106h207q0 -29 -2 -44q-12 -63 -80 -63h-244q-35 0 -55.5 20.5t-20.5 55.5v468l5 5h380q4 -19 4 -52q0 -29 -11 -55h-188h-60q0 -8 0.5 -24.5t0.5 -27.5v-61q23 1 59 1h142q7 -17 7 -51t-7 -53h-142h-59v-67q0 -11 -0.5 -28t-0.5 -26q40 2 65 2zM190 643l150 164
q26 -8 50.5 -31t33.5 -49l-179 -136q-40 13 -55 52z" />
    <glyph glyph-name="ecircumflex.smcp" horiz-adv-x="520" 
d="M273 106h207q0 -29 -2 -44q-12 -63 -80 -63h-244q-35 0 -55.5 20.5t-20.5 55.5v468l5 5h380q4 -19 4 -52q0 -29 -11 -55h-188h-60q0 -8 0.5 -24.5t0.5 -27.5v-61q23 1 59 1h142q7 -17 7 -51t-7 -53h-142h-59v-67q0 -11 -0.5 -28t-0.5 -26q40 2 65 2zM371 601l-93 89
l-98 -95q-38 14 -59 51l105 135q48 16 109 0l94 -125q-8 -19 -25 -34.5t-33 -20.5z" />
    <glyph glyph-name="edieresis.smcp" horiz-adv-x="520" 
d="M273 106h207q0 -29 -2 -44q-12 -63 -80 -63h-244q-35 0 -55.5 20.5t-20.5 55.5v468l5 5h380q4 -19 4 -52q0 -29 -11 -55h-188h-60q0 -8 0.5 -24.5t0.5 -27.5v-61q23 1 59 1h142q7 -17 7 -51t-7 -53h-142h-59v-67q0 -11 -0.5 -28t-0.5 -26q40 2 65 2zM307 670q0 25 8 45
q23 14 57 14t57 -14q8 -20 8 -45q0 -26 -8 -45q-22 -14 -57 -14t-57 14q-8 20 -8 45zM113 670q0 25 8 45q23 14 57 14t57 -14q8 -20 8 -45q0 -26 -8 -45q-22 -14 -57 -14t-57 14q-8 20 -8 45z" />
    <glyph glyph-name="hbar.smcp" horiz-adv-x="632" 
d="M214 0q-26 -5 -65 -5q-42 0 -67 5v399h-60q-6 19 -6 41q0 20 6 41h60v67q24 6 67 6q40 0 65 -6v-67h204v67q25 6 65 6q42 0 67 -6v-67h61q5 -23 5 -40q0 -20 -5 -42h-61v-399q-28 -5 -66 -5t-66 5v169q0 12 0.5 30.5t0.5 28.5q-7 0 -24 -0.5t-23 -0.5h-112q-6 0 -23 0.5
t-24 0.5q0 -10 0.5 -28.5t0.5 -30.5v-169zM372 334q6 0 23 -0.5t24 -0.5q0 10 -0.5 30.5t-0.5 31.5v4h-204v-4q0 -11 -0.5 -31.5t-0.5 -30.5q7 0 24 0.5t23 0.5h112z" />
    <glyph glyph-name="igrave.smcp" horiz-adv-x="294" 
d="M80 0v548q26 5 68 5q38 0 65 -5v-548q-27 -5 -65 -5q-42 0 -68 5zM92 807l149 -164q-7 -18 -22.5 -32.5t-32.5 -19.5l-178 136q8 25 33 48t51 32z" />
    <glyph glyph-name="iacute.smcp" horiz-adv-x="294" 
d="M80 0v548q26 5 68 5q38 0 65 -5v-548q-27 -5 -65 -5q-42 0 -68 5zM63 643l150 164q26 -8 50.5 -31t33.5 -49l-179 -136q-40 13 -55 52z" />
    <glyph glyph-name="icircumflex.smcp" horiz-adv-x="294" 
d="M80 0v548q26 5 68 5q38 0 65 -5v-548q-27 -5 -65 -5q-42 0 -68 5zM244 601l-93 89l-98 -95q-38 14 -59 51l105 135q48 16 109 0l94 -125q-8 -19 -25 -34.5t-33 -20.5z" />
    <glyph glyph-name="itilde.smcp" horiz-adv-x="294" 
d="M80 0v548q26 5 68 5q38 0 65 -5v-548q-27 -5 -65 -5q-42 0 -68 5zM154 624l-49 24q-16 9 -31 9q-19 0 -37 -24l-10 -14q-19 1 -37 12t-25 28l9 20q15 37 43.5 58.5t64.5 21.5q32 0 60 -16l49 -25q18 -9 31 -9q19 0 37 25l10 13q18 0 36.5 -11.5t25.5 -28.5l-9 -19
q-16 -38 -44.5 -59.5t-63.5 -21.5q-30 0 -60 17z" />
    <glyph glyph-name="idieresis.smcp" horiz-adv-x="294" 
d="M80 0v548q26 5 68 5q38 0 65 -5v-548q-27 -5 -65 -5q-42 0 -68 5zM180 670q0 25 8 45q23 14 57 14t57 -14q8 -20 8 -45q0 -26 -8 -45q-22 -14 -57 -14t-57 14q-8 20 -8 45zM-14 670q0 25 8 45q23 14 57 14t57 -14q8 -20 8 -45q0 -26 -8 -45q-22 -14 -57 -14t-57 14
q-8 20 -8 45z" />
    <glyph glyph-name="ij.smcp" horiz-adv-x="709" 
d="M80 0v548q26 5 68 5q38 0 65 -5v-548q-27 -5 -65 -5q-42 0 -68 5zM341 121q43 -28 89 -28q43 0 62 26.5t19 80.5v348q26 5 66 5q45 0 66 -5v-344q0 -110 -46 -163.5t-151 -53.5q-90 0 -150 41q9 57 45 93z" />
    <glyph glyph-name="jcircumflex.smcp" horiz-adv-x="415" 
d="M47 121q43 -28 89 -28q43 0 62 26.5t19 80.5v348q26 5 66 5q45 0 66 -5v-344q0 -110 -46 -163.5t-151 -53.5q-90 0 -150 41q9 57 45 93zM379 601l-93 89l-98 -95q-38 14 -59 51l105 135q48 16 109 0l94 -125q-8 -19 -25 -34.5t-33 -20.5z" />
    <glyph glyph-name="kcommaaccent.smcp" horiz-adv-x="555" 
d="M544 33q-14 -18 -38 -29.5t-49 -10.5q-32 1 -48.5 16t-30.5 48l-49 113q-14 33 -29.5 45.5t-45.5 13.5q-26 0 -44 -1v-228q-26 -5 -65 -5q-42 0 -67 5v548q25 5 67 5q39 0 65 -5v-213l23 1q18 0 24 4.5t16 20.5l89 147q14 25 29 35.5t45 10.5q34 0 78 -6l8 -8l-114 -184
q-24 -39 -49 -58q37 -8 57.5 -29.5t37.5 -60.5l42 -98q24 -56 48 -77zM352 -59q11 -24 11 -56q0 -55 -37 -98t-102 -65q-32 11 -41 54q63 39 63 98q0 30 -13 53q23 16 57 20t62 -6z" />
    <glyph glyph-name="kgreenlandic.smcp" horiz-adv-x="562" 
d="M544 33q-14 -18 -38 -29.5t-49 -10.5q-32 1 -48.5 16t-30.5 48l-49 113q-14 33 -29.5 45.5t-45.5 13.5q-26 0 -44 -1v-228q-30 -5 -65 -5q-37 0 -67 5v547l6 7h56q39 0 54.5 -18t15.5 -62v-139l23 1q18 0 24 4.5t16 20.5l89 147q14 25 29 35.5t45 10.5q34 0 78 -6l8 -8
l-114 -184q-24 -39 -49 -58q37 -8 57.5 -29.5t37.5 -60.5l42 -98q24 -56 48 -77z" />
    <glyph glyph-name="ldot.smcp" horiz-adv-x="482" 
d="M298 109h154q-2 -39 -4 -47q-11 -64 -85 -64h-210q-35 0 -56 20.5t-21 56.5v472l6 6h51q39 0 57.5 -19.5t18.5 -63.5v-366q53 5 89 5zM307 318q0 34 8 53q28 15 61 15t59 -15q9 -21 9 -53t-9 -53q-21 -16 -59 -16q-37 0 -61 16q-8 19 -8 53z" />
    <glyph glyph-name="lslash.smcp" horiz-adv-x="491" 
d="M225 470v-121l134 44l10 -4q14 -39 2 -96l-146 -45v-144q53 5 88 5h154q0 -31 -3 -47q-11 -64 -85 -64h-210q-35 0 -56 20.5t-21 56.5v135l-58 -18l-9 5q-14 39 -2 96l69 20v234l6 6h51q39 0 57.5 -19.5t18.5 -63.5z" />
    <glyph glyph-name="nacute.smcp" horiz-adv-x="631" 
d="M548 554l5 -6v-546q-29 -7 -75 -7q-58 0 -78 5l-147 279q-8 14 -30 62t-27 58l-3 -1q8 -142 8 -208v-190q-27 -5 -61 -5q-36 0 -62 5v546q37 7 75 7q55 0 76 -5l146 -279q7 -12 59 -128l6 2q-12 180 -12 212v125q0 43 17 58.5t58 15.5h45zM233 643l150 164
q26 -8 50.5 -31t33.5 -49l-179 -136q-40 13 -55 52z" />
    <glyph glyph-name="ntilde.smcp" horiz-adv-x="631" 
d="M548 554l5 -6v-546q-29 -7 -75 -7q-58 0 -78 5l-147 279q-8 14 -30 62t-27 58l-3 -1q8 -142 8 -208v-190q-27 -5 -61 -5q-36 0 -62 5v546q37 7 75 7q55 0 76 -5l146 -279q7 -12 59 -128l6 2q-12 180 -12 212v125q0 43 17 58.5t58 15.5h45zM324 624l-49 24q-16 9 -31 9
q-19 0 -37 -24l-10 -14q-19 1 -37 12t-25 28l9 20q15 37 43.5 58.5t64.5 21.5q32 0 60 -16l49 -25q18 -9 31 -9q19 0 37 25l10 13q18 0 36.5 -11.5t25.5 -28.5l-9 -19q-16 -38 -44.5 -59.5t-63.5 -21.5q-30 0 -60 17z" />
    <glyph glyph-name="oe.smcp" horiz-adv-x="829" 
d="M791 106q0 -29 -3 -44q-10 -63 -80 -63h-275q-87 -13 -131 -13q-102 0 -168 51q-98 73 -98 238q0 164 98 237q67 50 168 50q54 0 138 -14h333q4 -19 4 -52q0 -28 -10 -55h-191h-62q0 -8 0.5 -28.5t0.5 -27.5v-57q23 1 61 1h145q7 -21 7 -51q0 -32 -7 -53h-145h-61v-63
q0 -8 -0.5 -29t-0.5 -29q42 2 66 2h211zM302 88q40 0 86 13v347q-49 14 -86 14q-128 0 -128 -187t128 -187z" />
    <glyph glyph-name="ograve.smcp" horiz-adv-x="598" 
d="M172 274q0 -189 127 -189t127 189t-127 189t-127 -189zM36 274q0 162 98 239q66 49 165 49q101 0 166 -49q51 -39 74.5 -103.5t23.5 -135.5q0 -162 -98 -239q-65 -49 -166 -49t-165 49q-98 77 -98 239zM243 807l149 -164q-7 -18 -22.5 -32.5t-32.5 -19.5l-178 136
q8 25 33 48t51 32z" />
    <glyph glyph-name="oacute.smcp" horiz-adv-x="598" 
d="M172 274q0 -189 127 -189t127 189t-127 189t-127 -189zM36 274q0 162 98 239q66 49 165 49q101 0 166 -49q51 -39 74.5 -103.5t23.5 -135.5q0 -162 -98 -239q-65 -49 -166 -49t-165 49q-98 77 -98 239zM214 643l150 164q26 -8 50.5 -31t33.5 -49l-179 -136q-40 13 -55 52
z" />
    <glyph glyph-name="ocircumflex.smcp" horiz-adv-x="598" 
d="M172 274q0 -189 127 -189t127 189t-127 189t-127 -189zM36 274q0 162 98 239q66 49 165 49q101 0 166 -49q51 -39 74.5 -103.5t23.5 -135.5q0 -162 -98 -239q-65 -49 -166 -49t-165 49q-98 77 -98 239zM395 601l-93 89l-98 -95q-38 14 -59 51l105 135q48 16 109 0
l94 -125q-8 -19 -25 -34.5t-33 -20.5z" />
    <glyph glyph-name="otilde.smcp" horiz-adv-x="598" 
d="M172 274q0 -189 127 -189t127 189t-127 189t-127 -189zM36 274q0 162 98 239q66 49 165 49q101 0 166 -49q51 -39 74.5 -103.5t23.5 -135.5q0 -162 -98 -239q-65 -49 -166 -49t-165 49q-98 77 -98 239zM305 624l-49 24q-16 9 -31 9q-19 0 -37 -24l-10 -14q-19 1 -37 12
t-25 28l9 20q15 37 43.5 58.5t64.5 21.5q32 0 60 -16l49 -25q18 -9 31 -9q19 0 37 25l10 13q18 0 36.5 -11.5t25.5 -28.5l-9 -19q-16 -38 -44.5 -59.5t-63.5 -21.5q-30 0 -60 17z" />
    <glyph glyph-name="odieresis.smcp" horiz-adv-x="598" 
d="M172 274q0 -189 127 -189t127 189t-127 189t-127 -189zM36 274q0 162 98 239q66 49 165 49q101 0 166 -49q51 -39 74.5 -103.5t23.5 -135.5q0 -162 -98 -239q-65 -49 -166 -49t-165 49q-98 77 -98 239zM331 670q0 25 8 45q23 14 57 14t57 -14q8 -20 8 -45q0 -26 -8 -45
q-22 -14 -57 -14t-57 14q-8 20 -8 45zM137 670q0 25 8 45q23 14 57 14t57 -14q8 -20 8 -45q0 -26 -8 -45q-22 -14 -57 -14t-57 14q-8 20 -8 45z" />
    <glyph glyph-name="oslash.smcp" horiz-adv-x="598" 
d="M36 274q0 162 98 239q66 49 165 49q77 0 129 -27l44 61q47 -17 70 -50l-46 -63q67 -78 67 -209q0 -162 -98 -239q-65 -49 -166 -49q-79 0 -133 28l-43 -58q-47 14 -70 49l46 64q-63 78 -63 205zM433 274q0 59 -13 101l-194 -276q31 -21 73 -21q134 0 134 196zM165 274
q0 -53 11 -96l193 273q-28 20 -70 20q-40 0 -68 -18t-41.5 -49t-19 -62.5t-5.5 -67.5z" />
    <glyph glyph-name="racute.smcp" horiz-adv-x="559" 
d="M507 384q0 -53 -34.5 -92.5t-80.5 -49.5q48 -18 72 -72l31 -72q20 -44 44 -65q-32 -41 -90 -41q-29 0 -46.5 14.5t-31.5 46.5l-46 106q-12 26 -28.5 35.5t-47.5 9.5h-40v-204q-27 -5 -65 -5q-41 0 -66 5v543l5 6q152 4 209 4q97 0 156 -41t59 -128zM209 456v-152
q58 2 72 2q90 0 90 76q0 32 -20 52.5t-65 20.5q-12 0 -37.5 0.5t-39.5 0.5zM190 643l150 164q26 -8 50.5 -31t33.5 -49l-179 -136q-40 13 -55 52z" />
    <glyph glyph-name="rcaron.smcp" horiz-adv-x="559" 
d="M507 384q0 -53 -34.5 -92.5t-80.5 -49.5q48 -18 72 -72l31 -72q20 -44 44 -65q-32 -41 -90 -41q-29 0 -46.5 14.5t-31.5 46.5l-46 106q-12 26 -28.5 35.5t-47.5 9.5h-40v-204q-27 -5 -65 -5q-41 0 -66 5v543l5 6q152 4 209 4q97 0 156 -41t59 -128zM209 456v-152
q58 2 72 2q90 0 90 76q0 32 -20 52.5t-65 20.5q-12 0 -37.5 0.5t-39.5 0.5zM179 792l92 -89l100 96q40 -15 59 -52l-107 -136q-23 -7 -54 -6.5t-54 6.5l-95 126q8 19 25.5 34t33.5 21z" />
    <glyph glyph-name="rcommaaccent.smcp" horiz-adv-x="559" 
d="M507 384q0 -53 -34.5 -92.5t-80.5 -49.5q48 -18 72 -72l31 -72q20 -44 44 -65q-32 -41 -90 -41q-29 0 -46.5 14.5t-31.5 46.5l-46 106q-12 26 -28.5 35.5t-47.5 9.5h-40v-204q-27 -5 -65 -5q-41 0 -66 5v543l5 6q152 4 209 4q97 0 156 -41t59 -128zM209 456v-152
q58 2 72 2q90 0 90 76q0 32 -20 52.5t-65 20.5q-12 0 -37.5 0.5t-39.5 0.5zM349 -59q11 -24 11 -56q0 -55 -37 -98t-102 -65q-32 11 -41 54q63 39 63 98q0 30 -13 53q23 16 57 20t62 -6z" />
    <glyph glyph-name="germandbls.smcp" horiz-adv-x="1004" 
d="M22 43q1 26 15 55.5t34 42.5q95 -51 180 -50q35 0 58.5 15.5t23.5 41.5q0 39 -60 60l-96 34q-139 50 -139 152q0 74 57 121t154 47q106 1 207 -42q0 -66 -45 -100q-88 39 -164 37q-32 0 -51 -14.5t-19 -36.5q0 -18 13.5 -27.5t44.5 -21.5l94 -33q146 -53 146 -167
q0 -79 -61.5 -124.5t-160.5 -46.5q-136 0 -231 57zM524 43q1 26 15 55.5t34 42.5q95 -51 180 -50q35 0 58.5 15.5t23.5 41.5q0 39 -60 60l-96 34q-139 50 -139 152q0 74 57 121t154 47q106 1 207 -42q0 -66 -45 -100q-88 39 -164 37q-32 0 -51 -14.5t-19 -36.5
q0 -18 13.5 -27.5t44.5 -21.5l94 -33q146 -53 146 -167q0 -79 -61.5 -124.5t-160.5 -46.5q-136 0 -231 57z" />
    <glyph glyph-name="germandbls.cap_smcp" horiz-adv-x="588" 
d="M90 0v259l-77 -1q-5 25 -5 51t5 49l77 -1v42q0 80 58.5 122t157.5 42q97 0 156.5 -47.5t59.5 -124.5q0 -32 -8 -56q-58 -19 -58 -54q0 -16 22 -35l29 -26q57 -52 57 -108t-47 -90t-120 -34q-66 0 -117 21q1 22 11.5 48.5t24.5 41.5q32 -15 64 -15q22 0 35 10t13 25
q0 22 -27 44l-33 28q-28 23 -40.5 41.5t-12.5 41.5q0 29 19.5 55.5t53.5 40.5q1 5 1 15q0 35 -22 58.5t-61 23.5q-83 0 -83 -84v-383q-35 -5 -66 -5q-34 0 -67 5z" />
    <glyph glyph-name="ugrave.smcp" horiz-adv-x="609" 
d="M541 548v-347q0 -102 -61.5 -158.5t-174.5 -56.5q-114 0 -175.5 56.5t-61.5 158.5v347l6 5h48q79 0 79 -84v-268q0 -110 104 -110q103 0 103 110v347q28 5 65 5q42 0 68 -5zM246 807l149 -164q-7 -18 -22.5 -32.5t-32.5 -19.5l-178 136q8 25 33 48t51 32z" />
    <glyph glyph-name="uacute.smcp" horiz-adv-x="609" 
d="M541 548v-347q0 -102 -61.5 -158.5t-174.5 -56.5q-114 0 -175.5 56.5t-61.5 158.5v347l6 5h48q79 0 79 -84v-268q0 -110 104 -110q103 0 103 110v347q28 5 65 5q42 0 68 -5zM217 643l150 164q26 -8 50.5 -31t33.5 -49l-179 -136q-40 13 -55 52z" />
    <glyph glyph-name="ucircumflex.smcp" horiz-adv-x="609" 
d="M541 548v-347q0 -102 -61.5 -158.5t-174.5 -56.5q-114 0 -175.5 56.5t-61.5 158.5v347l6 5h48q79 0 79 -84v-268q0 -110 104 -110q103 0 103 110v347q28 5 65 5q42 0 68 -5zM397 601l-93 89l-98 -95q-38 14 -59 51l105 135q48 16 109 0l94 -125q-8 -19 -25 -34.5
t-33 -20.5z" />
    <glyph glyph-name="udieresis.smcp" horiz-adv-x="609" 
d="M541 548v-347q0 -102 -61.5 -158.5t-174.5 -56.5q-114 0 -175.5 56.5t-61.5 158.5v347l6 5h48q79 0 79 -84v-268q0 -110 104 -110q103 0 103 110v347q28 5 65 5q42 0 68 -5zM333 670q0 25 8 45q23 14 57 14t57 -14q8 -20 8 -45q0 -26 -8 -45q-22 -14 -57 -14t-57 14
q-8 20 -8 45zM139 670q0 25 8 45q23 14 57 14t57 -14q8 -20 8 -45q0 -26 -8 -45q-22 -14 -57 -14t-57 14q-8 20 -8 45z" />
    <glyph glyph-name="yacute.smcp" horiz-adv-x="460" 
d="M274 396l61 152q23 6 58 6q21 0 58 -8l6 -7l-162 -376v-163q-26 -5 -64 -5q-40 0 -66 5v167l-161 370q41 19 77 19q52 0 71 -50l50 -121q22 -56 30 -105h6q34 111 36 116zM148 643l150 164q26 -8 50.5 -31t33.5 -49l-179 -136q-40 13 -55 52z" />
    <glyph glyph-name="ydieresis.smcp" horiz-adv-x="460" 
d="M274 396l61 152q23 6 58 6q21 0 58 -8l6 -7l-162 -376v-163q-26 -5 -64 -5q-40 0 -66 5v167l-161 370q41 19 77 19q52 0 71 -50l50 -121q22 -56 30 -105h6q34 111 36 116zM265 670q0 25 8 45q23 14 57 14t57 -14q8 -20 8 -45q0 -26 -8 -45q-22 -14 -57 -14t-57 14
q-8 20 -8 45zM71 670q0 25 8 45q23 14 57 14t57 -14q8 -20 8 -45q0 -26 -8 -45q-22 -14 -57 -14t-57 14q-8 20 -8 45z" />
    <glyph glyph-name="eth.smcp" horiz-adv-x="604" 
d="M567 273q0 -81 -20.5 -138.5t-79.5 -98.5q-57 -40 -165 -40q-95 0 -210 3l-6 6v218h-66q-5 21 -5 51q0 28 5 51h66v218l6 6q156 4 210 4q42 0 89 -11t76 -31q58 -41 79 -99.5t21 -138.5zM432 273q0 180 -131 180q-55 0 -86 1v-129h111q5 -22 5 -51q0 -30 -5 -51h-111
v-129q15 0 42.5 0.5t43.5 0.5q131 0 131 178z" />
    <glyph glyph-name="thorn.smcp" horiz-adv-x="526" 
d="M78 0v548q25 5 65 5q39 0 67 -5v-79q12 0 35 0.5t34 0.5q100 0 159 -46.5t59 -140.5q0 -91 -59.5 -138.5t-158.5 -47.5h-69v-97q-28 -5 -67 -5q-40 0 -65 5zM270 370q-36 0 -60 1v-176q24 1 60 1q50 0 70.5 25.5t20.5 61.5t-20.5 61.5t-70.5 25.5z" />
    <glyph glyph-name="aogonek.smcp" horiz-adv-x="560" 
d="M9 10l196 538q40 6 79 6q33 0 75 -6l193 -542l-3 -2q-84 -44 -84 -99q0 -39 45 -39q28 0 54 15q27 -25 28 -61q-46 -38 -112 -38q-50 0 -82 26.5t-32 70.5q0 64 69 121q-24 12 -35 49l-20 60q-7 0 -21.5 -0.5t-19.5 -0.5h-130q-4 0 -19 0.5t-22 0.5l-37 -109
q-24 -6 -56 -6q-41 0 -62 10zM228 286l-25 -73q6 0 19 0.5t18 0.5h73q4 0 15 -0.5t17 -0.5l-21 64q-15 49 -46 167h-5q-30 -111 -45 -158z" />
    <glyph glyph-name="cacute.smcp" horiz-adv-x="542" 
d="M390 316q0 142 -101 142q-117 0 -117 -187q0 -91 35 -133t92 -42q72 0 147 58q20 -11 38 -36.5t24 -47.5q-95 -84 -229 -84q-66 0 -115 24.5t-76 67t-39.5 91t-12.5 103.5q0 144 73.5 217t183.5 73q106 0 164 -53.5t58 -124.5q0 -72 -79 -72q-14 0 -46 4zM208 643
l150 164q26 -8 50.5 -31t33.5 -49l-179 -136q-40 13 -55 52z" />
    <glyph glyph-name="ccaron.smcp" horiz-adv-x="542" 
d="M390 316q0 142 -101 142q-117 0 -117 -187q0 -91 35 -133t92 -42q72 0 147 58q20 -11 38 -36.5t24 -47.5q-95 -84 -229 -84q-66 0 -115 24.5t-76 67t-39.5 91t-12.5 103.5q0 144 73.5 217t183.5 73q106 0 164 -53.5t58 -124.5q0 -72 -79 -72q-14 0 -46 4zM198 792l92 -89
l100 96q40 -15 59 -52l-107 -136q-23 -7 -54 -6.5t-54 6.5l-95 126q8 19 25.5 34t33.5 21z" />
    <glyph glyph-name="dcaron.smcp" horiz-adv-x="596" 
d="M558 273q0 -81 -20 -138.5t-79 -98.5q-57 -40 -166 -40q-93 0 -210 3l-5 6v538l5 6q156 4 210 4q43 0 90 -11t76 -31q58 -41 78.5 -99t20.5 -139zM423 273q0 177 -130 177q-54 0 -84 1v-353q15 0 41.5 0.5t42.5 0.5q130 0 130 174zM190 792l92 -89l100 96q40 -15 59 -52
l-107 -136q-23 -7 -54 -6.5t-54 6.5l-95 126q8 19 25.5 34t33.5 21z" />
    <glyph glyph-name="ecaron.smcp" horiz-adv-x="520" 
d="M273 106h207q0 -29 -2 -44q-12 -63 -80 -63h-244q-35 0 -55.5 20.5t-20.5 55.5v468l5 5h380q4 -19 4 -52q0 -29 -11 -55h-188h-60q0 -8 0.5 -24.5t0.5 -27.5v-61q23 1 59 1h142q7 -17 7 -51t-7 -53h-142h-59v-67q0 -11 -0.5 -28t-0.5 -26q40 2 65 2zM180 792l92 -89
l100 96q40 -15 59 -52l-107 -136q-23 -7 -54 -6.5t-54 6.5l-95 126q8 19 25.5 34t33.5 21z" />
    <glyph glyph-name="eogonek.smcp" horiz-adv-x="520" 
d="M447 -119q26 -23 29 -61q-48 -38 -113 -38q-50 0 -81.5 26.5t-31.5 71.5q0 69 67 119h-163q-35 0 -55.5 20.5t-20.5 55.5v468l5 5h380q4 -19 4 -52q0 -28 -11 -56h-188h-60q0 -9 0.5 -25.5t0.5 -26.5v-59q23 1 59 1h142q7 -19 7 -52q0 -36 -7 -53h-142h-59v-67
q0 -11 -0.5 -27.5t-0.5 -25.5v-1q30 3 65 3h207q0 -30 -2 -45q-8 -44 -44 -58l-1 -1q-41 -16 -63 -43t-22 -54q0 -19 12.5 -29.5t32.5 -10.5q28 0 54 15z" />
    <glyph glyph-name="ncaron.smcp" horiz-adv-x="631" 
d="M548 554l5 -6v-546q-29 -7 -75 -7q-58 0 -78 5l-147 279q-8 14 -30 62t-27 58l-3 -1q8 -142 8 -208v-190q-27 -5 -61 -5q-36 0 -62 5v546q37 7 75 7q55 0 76 -5l146 -279q7 -12 59 -128l6 2q-12 180 -12 212v125q0 43 17 58.5t58 15.5h45zM223 792l92 -89l100 96
q40 -15 59 -52l-107 -136q-23 -7 -54 -6.5t-54 6.5l-95 126q8 19 25.5 34t33.5 21z" />
    <glyph glyph-name="sacute.smcp" horiz-adv-x="502" 
d="M22 43q1 26 15 55.5t34 42.5q95 -51 180 -50q35 0 58.5 15.5t23.5 41.5q0 39 -60 60l-96 34q-139 50 -139 152q0 74 57 121t154 47q106 1 207 -42q0 -66 -45 -100q-88 39 -164 37q-32 0 -51 -14.5t-19 -36.5q0 -18 13.5 -27.5t44.5 -21.5l94 -33q146 -53 146 -167
q0 -79 -61.5 -124.5t-160.5 -46.5q-136 0 -231 57zM168 643l150 164q26 -8 50.5 -31t33.5 -49l-179 -136q-40 13 -55 52z" />
    <glyph glyph-name="scaron.smcp" horiz-adv-x="502" 
d="M22 43q1 26 15 55.5t34 42.5q95 -51 180 -50q35 0 58.5 15.5t23.5 41.5q0 39 -60 60l-96 34q-139 50 -139 152q0 74 57 121t154 47q106 1 207 -42q0 -66 -45 -100q-88 39 -164 37q-32 0 -51 -14.5t-19 -36.5q0 -18 13.5 -27.5t44.5 -21.5l94 -33q146 -53 146 -167
q0 -79 -61.5 -124.5t-160.5 -46.5q-136 0 -231 57zM157 792l92 -89l100 96q40 -15 59 -52l-107 -136q-23 -7 -54 -6.5t-54 6.5l-95 126q8 19 25.5 34t33.5 21z" />
    <glyph glyph-name="tcaron.smcp" horiz-adv-x="450" 
d="M162 0v381q0 11 0.5 30t0.5 30q-7 0 -28 -0.5t-27 -0.5h-99q-4 27 -4 53q0 30 4 55h435q7 -21 7 -49q0 -59 -67 -59h-37q-7 0 -26.5 0.5t-25.5 0.5h-1q0 -11 0.5 -30t0.5 -30v-381q-27 -5 -66 -5q-35 0 -67 5zM134 792l92 -89l100 96q40 -15 59 -52l-107 -136
q-23 -7 -54 -6.5t-54 6.5l-95 126q8 19 25.5 34t33.5 21z" />
    <glyph glyph-name="uring.smcp" horiz-adv-x="609" 
d="M541 548v-347q0 -102 -61.5 -158.5t-174.5 -56.5q-114 0 -175.5 56.5t-61.5 158.5v347l6 5h48q79 0 79 -84v-268q0 -110 104 -110q103 0 103 110v347q28 5 65 5q42 0 68 -5zM170 714q0 51 36.5 86t94.5 35t94.5 -35t36.5 -86t-36.5 -86t-94.5 -35t-94.5 35t-36.5 86z
M251 714q0 -23 14 -37.5t36 -14.5t36 14.5t14 37.5t-14 38t-36 15t-36 -15t-14 -38z" />
    <glyph glyph-name="zacute.smcp" horiz-adv-x="513" 
d="M53 125l201 245q28 33 76 77l-3 3q-55 -7 -142 -7h-126q-5 19 -5 44q0 24 10 61h388q18 -66 18 -80q0 -26 -15 -45l-201 -243q-32 -39 -71 -75l2 -4q38 3 126 6l53 1q74 2 106 18q8 -29 8 -55q0 -34 -25 -53t-64 -19h-338q-14 68 -14 78q0 29 16 48zM176 643l150 164
q26 -8 50.5 -31t33.5 -49l-179 -136q-40 13 -55 52z" />
    <glyph glyph-name="zdotaccent.smcp" horiz-adv-x="513" 
d="M53 125l201 245q28 33 76 77l-3 3q-55 -7 -142 -7h-126q-5 19 -5 44q0 24 10 61h388q18 -66 18 -80q0 -26 -15 -45l-201 -243q-32 -39 -71 -75l2 -4q38 3 126 6l53 1q74 2 106 18q8 -29 8 -55q0 -34 -25 -53t-64 -19h-338q-14 68 -14 78q0 29 16 48zM186 689q0 29 10 52
q24 13 65 13q44 0 65 -13q10 -23 10 -52t-10 -52q-23 -14 -65 -14t-65 14q-10 23 -10 52z" />
    <glyph glyph-name="zcaron.smcp" horiz-adv-x="513" 
d="M53 125l201 245q28 33 76 77l-3 3q-55 -7 -142 -7h-126q-5 19 -5 44q0 24 10 61h388q18 -66 18 -80q0 -26 -15 -45l-201 -243q-32 -39 -71 -75l2 -4q38 3 126 6l53 1q74 2 106 18q8 -29 8 -55q0 -34 -25 -53t-64 -19h-338q-14 68 -14 78q0 29 16 48zM166 792l92 -89
l100 96q40 -15 59 -52l-107 -136q-23 -7 -54 -6.5t-54 6.5l-95 126q8 19 25.5 34t33.5 21z" />
    </font>
</defs>
</svg>
